<svg width="319" height="284" viewBox="0 0 319 284" fill="none" xmlns="http://www.w3.org/2000/svg">
<g clip-path="url(#clip0_1827_15039)">
<path opacity="0.1" d="M399 182.407C399.008 190.101 398.072 197.768 396.214 205.237C395.589 207.754 394.863 210.218 394.036 212.631C393.024 215.608 391.851 218.529 390.522 221.38C389.852 222.823 389.144 224.237 388.398 225.622C388.411 233.512 386.778 241.32 383.604 248.55C377.866 261.524 367.635 272.014 354.775 278.108C346.734 281.926 337.947 283.933 329.038 283.988H23.0824C9.46986 284.017 -3.90764 280.459 -15.6899 273.674L-15.8711 273.573C-17.5494 272.595 -19.1856 271.56 -20.7797 270.468C-24.3666 268.002 -27.7364 265.238 -30.853 262.204C-35.0712 258.102 -38.7882 253.519 -41.9269 248.55C-49.2985 236.903 -53.2035 223.416 -53.1899 209.651C-60.6552 196.617 -65.0083 181.003 -65.0083 164.225C-65.0083 143.056 -58.0906 123.746 -46.7252 109.128C-44.3557 106.074 -41.7602 103.2 -38.9604 100.531C-36.1979 97.8899 -33.2287 95.4714 -30.0809 93.2985C-27.5623 91.5583 -24.9302 89.9867 -22.2019 88.5944C-21.0634 88.0182 -19.9209 87.4733 -18.7588 86.9676C-17.7385 86.5167 -16.7063 86.0973 -15.6624 85.7014C-14.4096 85.2283 -13.1411 84.7932 -11.8568 84.396C-10.5725 83.9987 -9.30534 83.6512 -8.05521 83.3532C-6.21679 82.9063 -4.34686 82.5431 -2.4454 82.2634C-0.869606 82.0322 0.706184 81.8714 2.28198 81.7499C3.53474 81.6558 4.79931 81.6049 6.07176 81.5892H6.76117C8.16362 81.5892 9.5582 81.6441 10.941 81.7381C11.0867 81.4481 11.2443 81.154 11.3901 80.8679C11.9416 79.8212 12.5128 78.7785 13.088 77.7592C13.0867 77.7501 13.0867 77.7409 13.088 77.7318C13.1865 77.5515 13.285 77.3751 13.3874 77.2026C13.8522 76.3676 14.3368 75.5405 14.8332 74.7212C15.0617 74.3291 15.2862 73.9606 15.5186 73.5922C15.5678 73.5006 15.6217 73.4116 15.6802 73.3256C15.9165 72.9336 16.1568 72.5416 16.4011 72.1496C17.6171 70.2156 18.8816 68.3157 20.1948 66.4497L20.5297 65.9715C20.7345 65.6814 20.9236 65.3991 21.1521 65.1091C21.6957 64.3525 22.2551 63.592 22.8185 62.8471C23.2124 62.314 23.6064 61.7848 24.0319 61.2791C25.0561 59.9724 26.1066 58.6657 27.1834 57.359C28.2602 56.0523 29.3791 54.7626 30.5399 53.4899C30.6975 53.3134 30.855 53.141 31.0205 52.9685L32.7027 51.1417C32.7854 51.0555 32.8563 50.9771 32.9351 50.8987C33.136 50.6831 33.329 50.4674 33.5457 50.2597C34.4478 49.3071 35.3736 48.3741 36.3033 47.445C41.0349 42.7556 46.0755 38.3854 51.3916 34.3636C51.6003 34.199 51.8131 34.0422 52.0219 33.8854C53.0225 33.1367 54.0389 32.3958 55.0553 31.6666C60.6458 27.6757 66.4897 24.0486 72.5505 20.8079C72.9681 20.5688 73.3936 20.3454 73.823 20.1258C79.2565 17.2654 84.8447 14.7056 90.5618 12.4581C93.6779 11.2311 96.865 10.0786 100.072 9.02408C102.207 8.3263 104.35 7.6638 106.521 7.0405C109.914 6.06832 113.331 5.19675 116.771 4.42579C126.907 2.16266 137.219 0.764635 147.594 0.246958C150.745 0.0875399 153.932 0.00521871 157.155 -8.1008e-06C172.704 -0.0204922 188.192 1.9291 203.247 5.80175C203.402 6.03581 203.615 6.22663 203.865 6.35624C204.116 6.48586 204.395 6.55 204.677 6.54265H206C206.576 6.69945 207.147 6.85626 207.722 7.0209C210.934 7.94082 214.1 8.94568 217.22 10.0355L218.008 10.3177C225.709 13.0426 233.201 16.3179 240.428 20.118C246.941 23.5353 253.213 27.3912 259.199 31.6588C260.121 32.3174 261.03 32.9812 261.925 33.6502C263.013 32.9576 264.118 32.2938 265.242 31.6588C269.583 29.1987 274.194 27.2428 278.983 25.8296C288.997 22.8809 299.592 22.4686 309.806 24.63C322.905 27.3937 334.762 34.2539 344.339 44.011C348.239 48.0032 351.71 52.3886 354.696 57.0964C354.913 57.4335 355.13 57.7745 355.338 58.1195C357.905 62.2862 360.111 66.6624 361.933 71.2009C362 71.3695 362.067 71.5263 362.126 71.6909C363.808 75.9408 365.164 80.3111 366.184 84.7645C366.231 84.9918 366.286 85.2153 366.333 85.4426C367.287 89.7525 367.935 94.1238 368.272 98.524C368.272 98.6808 368.272 98.8416 368.303 99.0062C368.469 101.282 368.553 103.582 368.555 105.906C368.555 107.983 368.484 110.045 368.354 112.092C368.354 112.315 368.323 112.546 368.303 112.778C368.268 113.369 368.216 113.954 368.165 114.549C371.174 116.964 373.99 119.608 376.588 122.456C377.736 123.703 378.847 124.997 379.921 126.337C383.193 130.418 386.068 134.798 388.509 139.419C395.17 151.932 399 166.652 399 182.407Z" fill="#F8F8F8"/>
<path opacity="0.1" d="M354.484 276.658C354.484 279.335 345.214 281.844 329.039 284H23.083C9.47041 284.029 -3.90709 280.47 -15.6894 273.686L-15.8706 273.584C-11.222 271.899 -2.83092 270.327 8.58963 268.908L9.10176 268.845C14.2231 268.222 19.9472 267.63 26.2031 267.069C26.3606 267.069 26.5221 267.046 26.6797 267.026C31.6435 266.587 36.9237 266.175 42.5204 265.791C42.6977 265.791 42.871 265.76 43.0483 265.752C45.2071 265.598 47.4106 265.451 49.6587 265.313L50.5254 265.258C66.894 264.247 85.5001 263.439 105.678 262.906H105.702C108.528 262.828 111.384 262.758 114.27 262.698C117.48 262.622 120.728 262.556 124.016 262.498C126.526 262.443 129.067 262.404 131.616 262.365H131.675C143.174 262.192 155.056 262.106 167.205 262.106C197.247 262.106 225.643 262.651 250.805 263.631H250.876C254.744 263.78 258.542 263.945 262.245 264.113L265.397 264.262C269.575 264.461 273.646 264.674 277.609 264.901C324.213 267.54 354.484 271.824 354.484 276.658Z" fill="#F8F8F8"/>
<g opacity="0.2">
<path d="M202.995 260.307C202.982 260.73 202.933 261.151 202.849 261.565C200.107 261.131 197.35 260.739 194.576 260.389C194.576 260.279 194.576 260.166 194.576 260.052C194.602 258.877 194.942 257.729 195.561 256.728C196.373 255.45 197.606 254.65 198.965 254.693C200.324 254.736 201.502 255.611 202.231 256.932C202.782 257.969 203.046 259.134 202.995 260.307Z" fill="#3F3D56"/>
<path d="M203.221 253.608C203.318 250.576 201.509 248.059 199.182 247.986C196.856 247.913 194.891 250.311 194.795 253.343C194.699 256.375 196.507 258.892 198.834 258.965C201.161 259.038 203.125 256.64 203.221 253.608Z" fill="#3F3D56"/>
<path d="M203.436 246.897C203.532 243.865 201.724 241.348 199.397 241.275C197.07 241.202 195.106 243.6 195.01 246.632C194.913 249.663 196.722 252.18 199.049 252.254C201.375 252.327 203.34 249.928 203.436 246.897Z" fill="#3F3D56"/>
<path d="M203.647 240.185C203.743 237.154 201.935 234.637 199.608 234.564C197.281 234.49 195.317 236.889 195.221 239.92C195.124 242.952 196.933 245.469 199.26 245.542C201.586 245.615 203.551 243.217 203.647 240.185Z" fill="#3F3D56"/>
<path d="M203.858 233.474C203.954 230.442 202.146 227.925 199.819 227.852C197.492 227.779 195.528 230.177 195.432 233.209C195.335 236.241 197.144 238.758 199.47 238.831C201.797 238.904 203.762 236.506 203.858 233.474Z" fill="#3F3D56"/>
<path d="M185.307 186.907C184.752 186.159 184.252 185.373 183.81 184.555L194.943 183.093L182.959 182.806C181.889 180.282 181.348 177.567 181.369 174.828C181.39 172.089 181.973 169.383 183.081 166.875L198.886 175.676L184.408 164.37C185.869 162.02 187.801 159.994 190.083 158.42C192.366 156.845 194.95 155.756 197.675 155.221C200.399 154.685 203.205 154.714 205.918 155.306C208.631 155.898 211.192 157.04 213.441 158.661C215.69 160.282 217.58 162.347 218.991 164.727C220.402 167.108 221.305 169.752 221.643 172.495C221.981 175.238 221.747 178.021 220.955 180.67C220.164 183.319 218.832 185.777 217.043 187.891C217.906 189.053 218.639 190.306 219.229 191.627L204.618 198.604L220.112 193.967C221.088 197.171 221.245 200.566 220.569 203.845C219.894 207.125 218.407 210.185 216.243 212.748C218.493 215.785 219.838 219.391 220.125 223.153C220.412 226.915 219.63 230.681 217.867 234.022C216.104 237.362 213.432 240.141 210.157 242.041C206.881 243.941 203.134 244.886 199.345 244.767C195.555 244.648 191.876 243.471 188.727 241.369C185.579 239.267 183.088 236.326 181.54 232.882C179.992 229.438 179.449 225.63 179.974 221.893C180.499 218.157 182.07 214.642 184.507 211.752C181.819 208.123 180.436 203.7 180.579 199.194C180.722 194.688 182.383 190.36 185.295 186.907H185.307Z" fill="#F8F8F8"/>
<path opacity="0.1" d="M220.971 200.463C220.833 204.971 219.167 209.301 216.243 212.748C218.493 215.785 219.838 219.391 220.125 223.153C220.412 226.915 219.63 230.681 217.867 234.021C216.104 237.362 213.432 240.141 210.157 242.041C206.881 243.941 203.134 244.886 199.345 244.767C195.555 244.648 191.876 243.471 188.727 241.369C185.579 239.267 183.088 236.326 181.54 232.882C179.992 229.438 179.449 225.63 179.974 221.893C180.499 218.157 182.07 214.642 184.507 211.752C181.919 208.252 221.042 198.208 220.971 200.463Z" fill="black"/>
</g>
<g opacity="0.2">
<path d="M143.115 260.307C143.102 260.73 143.054 261.151 142.969 261.565C140.227 261.131 137.47 260.739 134.696 260.389C134.696 260.279 134.696 260.166 134.696 260.052C134.722 258.877 135.062 257.729 135.681 256.728C136.493 255.45 137.726 254.65 139.085 254.693C140.444 254.736 141.622 255.611 142.351 256.932C142.902 257.969 143.166 259.134 143.115 260.307Z" fill="#3F3D56"/>
<path d="M143.337 253.61C143.433 250.578 141.625 248.061 139.298 247.988C136.971 247.915 135.007 250.313 134.911 253.345C134.814 256.376 136.623 258.893 138.949 258.967C141.276 259.04 143.241 256.641 143.337 253.61Z" fill="#3F3D56"/>
<path d="M143.552 246.898C143.648 243.867 141.84 241.35 139.513 241.277C137.186 241.203 135.222 243.602 135.125 246.633C135.029 249.665 136.837 252.182 139.164 252.255C141.491 252.328 143.455 249.93 143.552 246.898Z" fill="#3F3D56"/>
<path d="M143.763 240.187C143.859 237.155 142.051 234.638 139.724 234.565C137.397 234.492 135.433 236.89 135.336 239.922C135.24 242.954 137.048 245.471 139.375 245.544C141.702 245.617 143.666 243.219 143.763 240.187Z" fill="#3F3D56"/>
<path d="M143.974 233.476C144.07 230.444 142.262 227.927 139.935 227.854C137.608 227.781 135.644 230.179 135.548 233.211C135.452 236.242 137.26 238.759 139.587 238.832C141.914 238.906 143.878 236.507 143.974 233.476Z" fill="#3F3D56"/>
<path d="M125.427 186.907C124.872 186.159 124.372 185.373 123.93 184.555L135.063 183.093L123.079 182.806C122.009 180.282 121.469 177.567 121.49 174.828C121.511 172.089 122.093 169.383 123.201 166.875L139.006 175.676L124.529 164.37C125.989 162.02 127.921 159.994 130.203 158.42C132.486 156.845 135.07 155.756 137.795 155.221C140.519 154.685 143.326 154.714 146.038 155.306C148.751 155.898 151.312 157.04 153.561 158.661C155.81 160.282 157.7 162.347 159.111 164.727C160.522 167.108 161.425 169.752 161.763 172.495C162.101 175.238 161.867 178.021 161.075 180.67C160.284 183.319 158.952 185.777 157.163 187.891C158.026 189.053 158.759 190.306 159.35 191.627L144.738 198.604L160.232 193.967C161.208 197.171 161.365 200.566 160.69 203.845C160.014 207.125 158.527 210.185 156.363 212.748C158.613 215.785 159.958 219.391 160.245 223.153C160.532 226.915 159.75 230.681 157.987 234.022C156.224 237.362 153.552 240.141 150.277 242.041C147.001 243.941 143.255 244.886 139.465 244.767C135.675 244.648 131.996 243.471 128.847 241.369C125.699 239.267 123.208 236.326 121.66 232.882C120.112 229.438 119.57 225.63 120.094 221.893C120.619 218.157 122.19 214.642 124.627 211.752C121.94 208.123 120.556 203.7 120.699 199.194C120.842 194.688 122.503 190.36 125.415 186.907H125.427Z" fill="#F8F8F8"/>
<path opacity="0.1" d="M161.091 200.463C160.953 204.971 159.287 209.301 156.363 212.748C158.613 215.785 159.958 219.391 160.245 223.153C160.532 226.915 159.75 230.681 157.987 234.021C156.224 237.362 153.552 240.141 150.277 242.041C147.001 243.941 143.255 244.886 139.465 244.767C135.675 244.648 131.996 243.471 128.847 241.369C125.699 239.267 123.208 236.326 121.66 232.882C120.112 229.438 119.57 225.63 120.094 221.893C120.619 218.157 122.19 214.642 124.627 211.752C122.039 208.252 161.162 198.208 161.091 200.463Z" fill="black"/>
</g>
<g opacity="0.2">
<path d="M306.682 264.595C306.652 265.396 306.556 266.194 306.395 266.979C301.116 266.14 295.799 265.39 290.444 264.729C290.444 264.517 290.444 264.301 290.444 264.082C290.494 261.818 291.149 259.608 292.343 257.68C293.918 255.223 296.282 253.682 298.894 253.76C301.506 253.839 303.779 255.528 305.197 258.072C306.267 260.077 306.779 262.328 306.682 264.595Z" fill="#3F3D56"/>
<path d="M307.111 251.689C307.296 245.851 303.813 241.004 299.332 240.863C294.85 240.722 291.066 245.34 290.881 251.179C290.695 257.017 294.178 261.864 298.66 262.005C303.142 262.146 306.926 257.527 307.111 251.689Z" fill="#3F3D56"/>
<path d="M307.52 238.768C307.706 232.93 304.223 228.083 299.741 227.942C295.259 227.801 291.475 232.42 291.29 238.258C291.104 244.096 294.587 248.943 299.069 249.084C303.551 249.225 307.335 244.607 307.52 238.768Z" fill="#3F3D56"/>
<path d="M307.934 225.847C308.119 220.009 304.636 215.162 300.154 215.021C295.672 214.88 291.889 219.499 291.703 225.337C291.518 231.175 295.001 236.023 299.483 236.163C303.965 236.304 307.748 231.686 307.934 225.847Z" fill="#3F3D56"/>
<path d="M307.882 212.339C308.058 206.497 304.565 201.654 300.081 201.52C295.597 201.386 291.819 206.013 291.643 211.854C291.467 217.695 294.959 222.539 299.443 222.673C303.928 222.807 307.706 218.18 307.882 212.339Z" fill="#3F3D56"/>
<path d="M272.626 123.291C271.563 121.852 270.6 120.342 269.746 118.771L291.177 115.957L268.111 115.404C266.051 110.545 265.008 105.319 265.047 100.045C265.087 94.7715 266.207 89.5612 268.339 84.7331L298.772 101.672L270.904 79.9075C273.722 75.3931 277.444 71.5045 281.838 68.4842C286.232 65.4639 291.204 63.3766 296.445 62.3523C301.685 61.328 307.081 61.3886 312.297 62.5305C317.513 63.6724 322.437 65.871 326.761 68.9893C331.086 72.1077 334.718 76.0789 337.433 80.6555C340.147 85.2321 341.886 90.3159 342.539 95.5903C343.193 100.865 342.747 106.216 341.231 111.312C339.715 116.408 337.161 121.138 333.727 125.208C335.387 127.448 336.798 129.86 337.938 132.402L309.806 145.844L339.632 136.906C341.512 143.066 341.818 149.595 340.523 155.903C339.227 162.211 336.372 168.097 332.214 173.03C336.544 178.876 339.133 185.818 339.685 193.06C340.237 200.302 338.73 207.552 335.336 213.982C331.942 220.412 326.799 225.761 320.493 229.419C314.188 233.077 306.975 234.896 299.68 234.667C292.385 234.438 285.302 232.171 279.241 228.125C273.179 224.079 268.385 218.418 265.405 211.788C262.425 205.158 261.379 197.828 262.389 190.635C263.398 183.442 266.422 176.676 271.113 171.113C265.942 164.126 263.28 155.613 263.554 146.94C263.829 138.267 267.023 129.937 272.626 123.287V123.291Z" fill="#F8F8F8"/>
<path opacity="0.1" d="M341.291 149.384C341.032 158.058 337.84 166.392 332.23 173.037C336.56 178.884 339.148 185.826 339.7 193.067C340.253 200.309 338.746 207.56 335.352 213.99C331.958 220.42 326.814 225.769 320.509 229.427C314.203 233.085 306.991 234.904 299.696 234.675C292.401 234.446 285.318 232.179 279.256 228.133C273.195 224.087 268.4 218.426 265.42 211.796C262.44 205.166 261.395 197.835 262.405 190.642C263.414 183.45 266.437 176.684 271.128 171.121C266.11 164.374 341.428 145.044 341.291 149.384Z" fill="black"/>
</g>
<path d="M-2.82715 265.285L1.30536 265.274H7.13186L14.4987 146.189L87.4539 25.0456L84.2827 21.6586V13.0814L5.38273 143.382L-2.82715 265.285Z" fill="#F1C0C0"/>
<path opacity="0.1" d="M1.74658 265.274H7.13186L14.4987 146.189L87.4539 25.0456L84.2827 21.6586L9.03069 144.374L1.74658 265.274Z" fill="black"/>
<path d="M-15.0039 266.277L174.032 280.672L174.194 280.684L357.139 269.488L357.277 269.48V261.793L155.694 258.112L-12.4866 257.951H-13.7157L-13.8496 258.813L-15.0039 266.277Z" fill="#F1C0C0"/>
<path opacity="0.1" d="M-15.0039 266.277L174.032 280.672L174.194 280.684L357.139 269.488L357.277 269.339V261.953H357.116L174.032 268.037L-12.4866 257.951H-12.5142L-12.8451 258.166L-13.8496 258.813L-15.0039 266.277Z" fill="black"/>
<path opacity="0.1" d="M-15.0039 266.277L174.032 280.672V268.037L-12.8451 258.167L-13.8496 258.813L-15.0039 266.277Z" fill="black"/>
<path d="M84.2593 21.4979L167.599 110.508L165.023 267.077L172.102 267.928L172.22 267.943H179.299L180.146 117.231L336.201 169.102L338.832 261.459L344.529 262.094L346.459 262.31L341.992 162.696L178.858 105.706L89.4082 13.1716H84.2593V21.4979Z" fill="#F1C0C0"/>
<path opacity="0.1" d="M179.504 114.35L180.146 117.231L336.201 169.102L338.832 261.459L344.529 262.094L340.061 167.181L179.504 114.35Z" fill="black"/>
<path opacity="0.1" d="M84.2593 21.4979L167.599 110.508L165.023 267.077L172.102 267.928L174.032 105.384L84.2593 13.1716V21.4979Z" fill="black"/>
<path d="M179.807 177.185L237.044 188.4L237.064 188.404L337.312 208.056L341.901 206.225L341.885 205.904L341.586 199.533L179.866 167.016L179.807 177.185Z" fill="#F1C0C0"/>
<path opacity="0.1" d="M237.063 188.404L337.311 208.056L341.901 206.225L341.885 205.904L237.063 188.404Z" fill="black"/>
<path d="M240.897 137.423L242.445 222.231L243.245 265.74L250.293 265.505L254.728 265.356L253.35 138.65L250.293 137.639L249.623 137.423H240.897Z" fill="#F1C0C0"/>
<path opacity="0.1" d="M240.96 137.404V137.423L242.445 222.231L243.245 265.74L250.293 265.505V137.404H240.96Z" fill="black"/>
<path d="M130.501 159.082C130.914 159.305 131.309 159.561 131.683 159.846C132.124 160.231 132.52 160.663 132.864 161.136C134.554 163.312 136.115 165.84 135.949 168.584C135.953 168.983 135.877 169.379 135.726 169.749C135.575 170.119 135.353 170.456 135.071 170.74C134.373 171.332 133.373 171.36 132.459 171.36C131.466 171.36 130.422 171.36 129.563 170.85C128.704 170.34 127.987 169.349 126.971 169.372C126.828 169.396 126.681 169.396 126.538 169.372C126.187 169.258 126.116 168.8 125.888 168.51C125.494 167.988 124.662 168.118 124.044 168.345C123.425 168.572 122.74 168.913 122.129 168.651C121.775 168.465 121.485 168.176 121.298 167.824C119.837 165.472 119.525 162.645 119.25 159.913C119.08 158.251 117.788 152.582 121.353 153.872C122.929 154.437 124.402 155.566 125.836 156.393L130.501 159.082Z" fill="#3F3D56"/>
<path d="M126.979 159.642C127.297 159.87 127.683 159.986 128.075 159.97C128.467 159.954 128.843 159.809 129.142 159.556C129.728 159.029 130.102 158.307 130.194 157.526C130.588 157.404 130.788 157.918 131.041 158.231C131.482 158.764 132.38 158.756 132.782 159.325C133.062 159.717 132.998 160.262 133.195 160.705C133.452 161.277 134.086 161.575 134.519 162.038C134.928 162.543 135.224 163.13 135.386 163.759L136.032 165.687C136.341 166.489 136.54 167.329 136.623 168.184C136.664 168.612 136.618 169.043 136.49 169.453C136.361 169.863 136.152 170.243 135.874 170.572C135.008 171.501 133.585 171.599 132.329 171.571C131.909 171.58 131.49 171.531 131.084 171.426C129.969 171.081 129.256 169.964 128.961 168.839C128.665 167.714 128.697 166.534 128.523 165.381C128.336 164.249 128.005 163.146 127.538 162.096C127.192 161.281 126.238 160.066 126.254 159.199C126.538 159.199 126.743 159.458 126.979 159.642Z" fill="#3F3D56"/>
<path d="M128.393 155.671C128.209 155.115 128.101 154.536 128.074 153.95C128.074 152.774 128.613 151.669 129.157 150.618L124.654 151.226C124.111 151.3 123.504 151.41 123.197 151.861C123.08 152.084 123.019 152.333 123.019 152.584C123.019 152.836 123.08 153.084 123.197 153.308C123.422 153.755 123.602 154.224 123.732 154.707C123.743 155.13 123.791 155.551 123.878 155.965C124.018 156.27 124.215 156.545 124.457 156.777C125.746 158.196 126.711 159.87 127.672 161.528C127.644 161.481 130.386 159.368 130.276 158.678C130.213 158.286 129.421 157.816 129.169 157.439C128.821 156.893 128.559 156.297 128.393 155.671Z" fill="#BE6F72"/>
<path d="M167 140.356V144.217L100.553 157.114L97.1057 159.192H85.2124V157.016L150.497 141.32L167 140.356Z" fill="#F1C0C0"/>
<path opacity="0.1" d="M167 144.217L100.553 157.114L97.1057 159.192H85.2124L150.982 145.185L167 144.217Z" fill="black"/>
<path d="M113.651 249.97C112.911 249.077 111.889 248.461 110.752 248.22C109.614 247.98 108.429 248.129 107.388 248.645C107.165 248.749 106.968 248.902 106.813 249.091C106.419 249.64 106.671 250.397 106.706 251.075C106.797 252.729 105.473 254.074 104.283 255.23C103.645 255.85 102.995 256.512 102.708 257.355C102.42 258.198 102.633 259.268 103.405 259.707C103.742 259.875 104.108 259.976 104.484 260.005C105.743 260.249 107.035 260.285 108.306 260.111C109.562 259.872 110.795 259.162 111.339 258.01C111.444 257.697 111.617 257.412 111.847 257.175C112.541 256.63 113.604 257.269 114.392 256.881C115.042 256.559 115.07 256.054 115.078 255.387C115.101 253.545 114.825 251.459 113.651 249.97Z" fill="#F8F8F8"/>
<path d="M123.106 249.899C123.591 251.169 123.658 252.553 123.721 253.909C123.756 254.693 123.78 255.532 123.354 256.195C122.929 256.857 122.098 257.206 121.302 257.371C119.659 257.708 117.756 257.39 116.697 256.093C115.885 255.101 115.716 253.741 115.865 252.455C115.991 251.4 116.259 250.166 115.499 249.417C115.302 249.217 115.046 249.076 114.865 248.86C114.471 248.382 114.534 247.661 114.747 247.073C115.024 246.51 115.231 245.917 115.365 245.305C115.397 245.015 120.699 245.508 121.188 245.748C121.853 246.073 121.751 246.618 121.952 247.276C122.232 248.194 122.767 249.021 123.106 249.899Z" fill="#F8F8F8"/>
<path d="M124.079 193.583C125.119 194.253 125.521 195.57 125.683 196.793C126.128 200.145 125.348 203.532 125.289 206.915C125.233 211.654 126.612 216.48 125.434 221.071C124.729 223.815 125.328 226.951 124.666 229.722C124.469 230.545 124.107 231.322 123.918 232.145C123.524 233.929 123.937 235.794 124.493 237.539C124.67 238.009 124.783 238.501 124.828 239.001C124.801 239.771 124.605 240.526 124.252 241.212L121.889 246.775C121.625 247.398 120.585 247.5 119.919 247.582C118.666 247.731 117.268 247.837 116.271 247.065C115.274 246.293 115.034 244.999 114.88 243.791C114.586 241.474 114.454 239.138 114.487 236.802C114.53 236.192 114.475 235.58 114.325 234.987C114.108 234.317 113.632 233.736 113.502 233.027C113.336 232.11 113.805 231.208 113.978 230.283C114.097 229.438 114.084 228.58 113.939 227.739C113.785 226.484 113.608 225.23 113.407 223.983C113.123 222.239 113.529 220.518 113.801 218.769C114.057 217.127 113.73 215.453 113.407 213.822C113.435 215.146 113.269 216.466 112.915 217.742C112.706 218.366 112.406 218.962 112.225 219.597C111.418 222.447 113.139 225.438 112.895 228.389C112.781 229.769 112.237 231.133 112.391 232.494C112.497 233.489 112.962 234.403 113.281 235.352C113.6 236.3 113.766 237.386 113.281 238.272C112.001 240.679 112.958 243.952 114.104 246.422C114.337 246.86 114.54 247.313 114.711 247.778C115.05 248.892 114.766 250.087 114.857 251.248C114.527 251.301 114.189 251.279 113.869 251.184C113.549 251.088 113.255 250.921 113.009 250.695C112.836 250.514 112.694 250.303 112.525 250.115C112.051 249.666 111.491 249.318 110.878 249.091C110.518 248.891 110.108 248.797 109.696 248.821C109.263 248.941 108.874 249.182 108.573 249.515C108.184 249.856 107.77 250.169 107.336 250.452C107.151 250.593 106.935 250.689 106.706 250.73C106.591 250.748 106.473 250.729 106.369 250.676C106.265 250.623 106.18 250.539 106.127 250.436C106.102 250.371 106.088 250.302 106.084 250.232C105.937 249.049 105.86 247.857 105.851 246.665C105.851 244.615 103.385 243.203 103.074 241.177C102.826 239.542 103.287 237.876 103.133 236.23C103.058 235.383 102.822 234.552 102.837 233.705C102.837 233.156 102.964 232.619 103.007 232.074C103.043 231.469 103.034 230.863 102.979 230.259L102.857 228.366C102.739 226.496 102.609 224.587 101.868 222.878C100.99 220.882 100.47 218.749 100.332 216.574C100.253 215.202 100.304 213.83 100.147 212.454C100.005 211.211 99.6898 209.977 99.7804 208.73C99.8553 207.766 100.174 206.833 100.249 205.868C100.403 204.014 99.6938 202.211 99.1383 200.435C98.5828 198.659 98.1731 196.691 98.9019 194.978C99.0061 194.697 99.1795 194.446 99.4062 194.249C99.6856 194.065 100.004 193.947 100.336 193.904C107.095 192.491 114.023 192.052 120.908 192.599C122.03 192.662 123.12 193 124.079 193.583Z" fill="#3F3D56"/>
<path d="M101.715 151.947C105.2 151.947 108.026 149.136 108.026 145.667C108.026 142.199 105.2 139.387 101.715 139.387C98.2294 139.387 95.4038 142.199 95.4038 145.667C95.4038 149.136 98.2294 151.947 101.715 151.947Z" fill="#BE6F72"/>
<path d="M100.494 153.511C100.584 153.87 100.584 154.246 100.494 154.605C100.394 154.856 100.255 155.089 100.08 155.295C99.4691 156.079 98.7931 156.811 98.0591 157.482C98.433 158.314 99.1063 158.975 99.9461 159.337C100.78 159.69 101.655 159.939 102.55 160.078C102.997 160.195 103.462 160.226 103.921 160.172C104.344 160.066 104.744 159.885 105.103 159.639L108.609 157.549C109.138 157.264 109.628 156.912 110.067 156.502C110.71 155.845 111.074 154.966 111.083 154.048C111.099 153.884 111.054 153.72 110.957 153.586C110.823 153.469 110.654 153.399 110.476 153.386C109.243 153.115 108.27 152.12 107.719 150.991C107.22 149.833 106.897 148.609 106.761 147.357L103.023 149.317C102.467 149.611 101.916 149.905 101.341 150.16C100.974 150.324 100.234 150.462 99.9737 150.795C99.4773 151.41 100.364 152.771 100.494 153.511Z" fill="#BE6F72"/>
<path d="M98.0827 156.342C97.5504 156.776 97.1348 157.335 96.8733 157.969C96.629 158.753 96.8733 159.58 97.0939 160.356C98.1278 163.664 98.9178 167.043 99.4576 170.466C99.7885 172.818 99.9106 175.205 100.072 177.585C100.403 182.438 100.884 190.176 101.526 194.998C103.889 195.104 106.194 194.418 108.538 194.167C112.919 193.704 117.429 194.763 121.72 193.775C120.68 189.686 119.64 182.704 118.6 178.62C118.139 177.01 117.82 175.364 117.646 173.7C117.556 172.504 117.611 171.305 117.626 170.101C117.662 167.749 117.532 165.397 117.402 163.045C117.252 160.301 117.102 157.557 116.449 154.872C116.403 154.53 116.242 154.213 115.992 153.974C115.598 153.688 115.085 153.79 114.617 153.852C113.181 154.034 111.728 153.691 110.528 152.888C110.007 152.535 109.31 152.104 108.826 152.496C108.619 152.733 108.482 153.022 108.432 153.331C108.217 153.886 107.886 154.388 107.461 154.805C107.036 155.223 106.526 155.544 105.966 155.75C104.843 156.154 103.667 156.395 102.475 156.463C102.11 156.541 101.73 156.498 101.392 156.342C100.832 156.001 100.793 154.774 100.088 154.691C99.4694 154.621 98.5003 155.946 98.0827 156.342Z" fill="#3F3D56"/>
<path d="M107.403 165.915C105.95 164.531 105.311 162.524 104.252 160.818C103.53 159.672 102.608 158.663 101.53 157.839C100.987 157.483 100.49 157.063 100.048 156.589C99.6741 156.13 99.3904 155.518 98.8231 155.342C98.5887 155.291 98.3454 155.298 98.1142 155.361C97.8829 155.425 97.6706 155.543 97.4955 155.707C97.1482 156.036 96.8195 156.384 96.5107 156.749C94.8403 158.47 91.9054 158.709 90.5817 160.701C90.2246 161.123 89.9819 161.629 89.8766 162.171C89.4955 165.069 90.2486 168.003 91.9803 170.364C92.3155 170.911 92.8304 171.327 93.4379 171.54C93.3555 172.271 93.4528 173.011 93.7215 173.696C94.4509 176.177 95.3472 178.606 96.4043 180.968C96.1515 181.891 95.975 182.834 95.8764 183.786C95.6006 186.182 95.8567 188.612 95.5967 191.011C95.384 192.971 94.8088 194.88 94.7891 196.844C94.7891 197.158 94.8167 197.53 95.0885 197.691C95.2331 197.765 95.395 197.799 95.5573 197.789L100.403 197.934C103.216 198.016 106.056 198.099 108.825 197.581C109.194 197.527 109.552 197.414 109.885 197.248C110.823 196.727 111.134 195.551 111.284 194.504C111.479 193.146 111.557 191.774 111.516 190.404C112.103 192.25 112.8 194.159 114.573 194.959C115.511 195.382 116.582 195.351 117.611 195.323C119.827 195.225 122.035 194.999 124.225 194.645C124.36 194.662 124.497 194.647 124.625 194.601C124.753 194.556 124.869 194.481 124.962 194.383C125.056 194.285 125.126 194.167 125.165 194.037C125.205 193.908 125.213 193.771 125.19 193.638L125.214 191.497C125.261 187.15 124.178 182.995 123.756 178.667C123.622 177.303 123.634 175.923 123.299 174.586C123.161 174.025 122.96 173.476 122.838 172.912C122.733 172.359 122.667 171.8 122.641 171.238L122.334 166.926C122.188 164.931 121.979 163.006 121.826 161.014C121.741 159.075 121.459 157.15 120.983 155.268C120.64 154.092 119.927 152.759 118.694 152.614C118.036 152.539 117.398 152.825 116.771 153.025C115.232 153.508 113.58 153.501 112.044 153.006C111.57 152.819 111.075 152.688 110.571 152.614C110.317 152.579 110.058 152.613 109.821 152.711C109.585 152.808 109.378 152.967 109.223 153.17C109.07 153.477 108.999 153.817 109.015 154.158C108.829 158.074 108.487 162.108 107.403 165.915Z" fill="#F8F8F8"/>
<path d="M101.065 166.032C99.249 164.127 97.3856 162.187 95.0456 160.975C94.1237 160.497 93.0758 160.136 92.0555 160.317C91.0352 160.497 90.0858 161.379 90.133 162.41C90.1646 163.049 90.5546 163.614 90.6767 164.241C90.8185 164.946 90.6137 165.699 90.8343 166.381C91.0135 166.831 91.2814 167.24 91.6222 167.585L94.4113 170.874C95.5932 172.246 96.775 173.637 98.2956 174.586C99.8163 175.535 101.786 175.978 103.456 175.303C104.645 174.754 105.633 173.851 106.285 172.72C106.978 171.622 107.467 170.423 108.117 169.29C109.128 167.48 110.463 165.868 112.056 164.535C111.237 164.323 110.209 164.025 109.693 163.359C109.546 163.147 109.42 162.921 109.318 162.684L108.68 161.312C108.463 161.301 108.246 161.335 108.043 161.411C107.839 161.487 107.654 161.604 107.498 161.755C107.225 162.07 106.931 162.367 106.62 162.645C106.064 163.061 105.312 163.174 104.808 163.649C104.613 163.852 104.436 164.073 104.28 164.307C103.898 164.806 103.414 165.218 102.86 165.516C102.305 165.813 101.693 165.989 101.065 166.032Z" fill="#3F3D56"/>
<path d="M112.202 157.835C113.569 155.354 113.506 152.378 113.896 149.576C113.938 148.833 114.2 148.12 114.648 147.525C115.436 146.639 116.827 146.628 118.016 146.741C118.367 146.781 118.804 146.945 118.785 147.294C118.757 147.419 118.696 147.534 118.607 147.627C117.454 149.108 116.776 150.9 116.661 152.77C117.28 153.198 118.237 152.32 118.832 152.77C119.226 153.1 119.045 153.751 118.808 154.221C118.259 155.311 117.693 156.393 117.11 157.467C116.645 158.414 116.038 159.285 115.31 160.05C114.81 160.528 114.223 160.905 113.715 161.375C112.533 162.477 111.82 164.033 110.598 165.107C110.495 165.218 110.356 165.289 110.204 165.307C110.049 165.296 109.903 165.231 109.791 165.123C109.181 164.629 108.675 164.02 108.302 163.331C107.837 162.477 107.908 162.226 108.641 161.622C110.011 160.544 111.347 159.388 112.202 157.835Z" fill="#BE6F72"/>
<path d="M98.7801 164.347C99.0164 164.492 99.308 164.656 99.568 164.535C99.6742 164.471 99.7645 164.384 99.8319 164.28C100.282 163.682 100.658 163.032 100.951 162.343C101.001 162.246 101.029 162.139 101.033 162.03C101.033 161.779 100.809 161.595 100.6 161.45C99.4813 160.74 98.2785 160.171 97.0191 159.756C95.9791 159.364 94.8918 159.023 93.7887 159.121C93.3743 159.149 92.9697 159.26 92.5994 159.447C92.2291 159.634 91.9006 159.894 91.6338 160.211C90.846 161.218 92.1657 161.524 92.993 161.889C94.9076 162.755 96.9797 163.257 98.7801 164.347Z" fill="#F8F8F8"/>
<path opacity="0.1" d="M97.539 171.011C97.5256 171.1 97.5337 171.192 97.5624 171.277C97.5912 171.363 97.6398 171.441 97.7044 171.505C97.8187 170.948 97.669 170.36 97.7871 169.799C97.9605 168.957 98.7838 168.322 98.8547 167.475C97.3459 167.181 97.5508 170.101 97.539 171.011Z" fill="black"/>
<path opacity="0.2" d="M167 140.356V144.217L150.982 145.185L150.498 141.32L167 140.356Z" fill="black"/>
<path d="M96.0342 146.6C97.0349 145.789 96.4558 144.087 97.1334 142.998C97.5273 142.402 98.1931 142.088 98.847 141.822C99.6363 141.454 100.482 141.221 101.349 141.132C101.783 141.09 102.221 141.147 102.63 141.297C103.039 141.447 103.409 141.686 103.712 141.998C103.968 142.288 104.142 142.641 104.382 142.943C104.68 143.295 105.067 143.56 105.504 143.711C105.941 143.861 106.411 143.891 106.864 143.797C107.388 143.68 107.931 143.284 107.896 142.751C107.837 142.426 107.67 142.131 107.423 141.912L106.297 140.669C105.016 139.258 103.594 137.76 101.715 137.408C100.407 137.161 99.0676 137.51 97.807 137.929C97.2988 138.098 96.7276 138.348 96.5858 138.862C96.4912 139.215 96.6331 139.599 96.5503 139.956C96.3888 140.665 95.4748 140.904 95.0494 141.5C94.6239 142.096 94.7539 142.802 94.6318 143.46C94.5097 144.119 94.1551 144.762 94.1118 145.444C94.0842 145.855 94.293 146.62 94.7579 146.769C95.2227 146.918 95.7467 146.11 96.0342 146.6Z" fill="#3F3D56"/>
<path d="M107.514 142.186C107.181 140.461 106.465 138.833 105.418 137.419C104.486 136.099 103.191 135.075 101.687 134.471C100.936 134.179 100.127 134.06 99.3228 134.123C98.5184 134.186 97.7388 134.43 97.0425 134.836C96.0089 135.57 95.2046 136.58 94.7222 137.749C93.7018 139.936 93.3236 142.61 94.5094 144.711C94.9822 144.138 95.7937 144.397 96.5107 144.189C97.4089 143.935 98.1692 143.339 99.0241 142.966C101.604 141.833 104.756 142.751 107.514 142.186Z" fill="#FED253"/>
<path opacity="0.1" d="M95.1123 142.065C95.0217 141.359 94.9626 140.54 95.4668 140.038C95.4919 140.007 95.5238 139.983 95.56 139.966C95.5963 139.95 95.6359 139.942 95.6756 139.944C95.7108 139.955 95.7432 139.974 95.771 139.998C95.7988 140.022 95.8213 140.052 95.8371 140.085C96.1282 140.542 96.3761 141.025 96.5777 141.528C96.2841 141.46 95.977 141.482 95.6961 141.591C95.4151 141.699 95.1733 141.889 95.002 142.135" fill="black"/>
<path opacity="0.1" d="M104.319 140.073L104.177 138.674C104.154 138.558 104.164 138.439 104.205 138.329C104.264 138.237 104.356 138.169 104.462 138.14C104.568 138.111 104.681 138.123 104.78 138.172C104.974 138.279 105.133 138.438 105.241 138.631C105.569 139.132 105.841 139.667 106.052 140.226C105.418 140.105 104.765 140.113 104.134 140.25" fill="black"/>
<path opacity="0.1" d="M107.845 196.872V200.071L105.131 200.251H90.854V196.872H107.845Z" fill="black"/>
<path d="M107.845 196.872V200.251H90.8539L45.7153 143.986V141.328H55.178L107.845 196.872Z" fill="#F1C0C0"/>
<path opacity="0.1" d="M107.845 196.872V200.251H90.8539L45.7153 143.986V141.328H55.178L107.845 196.872Z" fill="black"/>
<path opacity="0.1" d="M107.845 196.872V200.251H90.8539L45.7153 143.986V141.328L91.0982 196.872H107.845Z" fill="black"/>
<path d="M51.6323 253.266C51.662 253.425 51.6584 253.589 51.6218 253.746C51.5851 253.904 51.5162 254.052 51.4194 254.182C51.3225 254.312 51.1997 254.421 51.0588 254.501C50.9178 254.582 50.7617 254.632 50.6002 254.65C49.505 255.019 48.3428 255.383 47.5667 256.218C46.7907 257.053 46.637 258.602 47.5667 259.28C48.042 259.565 48.5876 259.713 49.1425 259.707C50.9271 259.829 52.7866 259.805 54.4057 259.052C55.5639 258.519 56.6551 257.61 57.9276 257.692C58.5855 257.731 59.2867 258.037 59.8737 257.739C60.4607 257.441 60.6261 256.61 60.6301 255.916C60.645 254.468 60.4255 253.026 59.9801 251.647C59.921 251.459 57.4155 251.314 57.1161 251.255L54.0787 250.863C53.5035 250.789 52.2626 250.358 51.8096 250.836C51.3565 251.314 51.6323 252.698 51.6323 253.266Z" fill="#F8F8F8"/>
<path d="M69.7577 243.482C69.8863 244.188 70.0951 244.877 70.3801 245.536C70.8016 246.602 71.3413 247.735 72.3735 248.253C73.3111 248.719 74.4614 248.55 75.4148 248.108C75.8127 247.944 76.1614 247.68 76.4272 247.343C76.7348 246.81 76.8721 246.196 76.8212 245.583C76.8212 244.066 76.7306 242.498 76.0333 241.149C75.4345 239.973 74.3905 238.962 74.3747 237.66L70.7859 238.35C70.5938 238.369 70.4108 238.441 70.258 238.558C70.1443 238.677 70.0653 238.825 70.0295 238.985C69.6463 240.452 69.554 241.98 69.7577 243.482Z" fill="#F8F8F8"/>
<path d="M26.9002 206.241C26.7505 207.503 26.8136 208.855 27.4754 209.945C28.1372 211.035 29.5318 211.756 30.7373 211.321C30.7991 211.306 30.857 211.278 30.9078 211.239C30.9585 211.201 31.001 211.153 31.0328 211.098C31.0648 210.965 31.0466 210.826 30.9815 210.706C30.4494 209.292 30.4932 207.728 31.1037 206.347C31.1825 206.166 31.3519 205.955 31.537 206.025C31.6145 206.064 31.6768 206.128 31.7143 206.205C31.905 206.534 32.0005 206.908 31.9901 207.287C31.9345 207.631 31.9239 207.98 31.9585 208.326C32.0334 208.663 32.3958 208.981 32.711 208.836C32.8021 208.78 32.8809 208.707 32.9425 208.62C33.0041 208.533 33.0473 208.434 33.0695 208.33C33.948 205.802 33.5501 203.038 33.1483 200.392C33.1516 200.331 33.1415 200.27 33.1187 200.214C33.0959 200.158 33.0609 200.107 33.0161 200.065C32.9714 200.024 32.9181 199.993 32.8599 199.974C32.8018 199.955 32.7401 199.949 32.6795 199.957C30.82 199.773 29.8036 199.33 28.74 201.051C27.826 202.501 26.9002 204.496 26.9002 206.241Z" fill="#F8F8F8"/>
<path d="M48.6381 199.808C48.0865 202.089 47.5311 204.398 47.4956 206.743C47.5053 208.203 47.6159 209.661 47.8265 211.106L48.2402 214.5C48.382 215.645 48.5199 216.786 48.7208 217.919C48.849 218.502 48.9189 219.097 48.9296 219.695C48.8909 220.283 48.7973 220.867 48.6499 221.439C48.4021 222.639 48.2637 223.86 48.2362 225.085C48.1929 227.045 48.4371 229.005 48.5908 230.965C48.8975 234.871 48.8514 238.796 48.4529 242.694C48.2938 243.746 48.5234 244.82 49.099 245.716C49.3326 245.999 49.5249 246.313 49.6702 246.649C49.9657 247.547 49.2763 248.445 49.099 249.366C48.9856 250.084 49.1634 250.818 49.5933 251.406C50.0231 251.994 50.67 252.388 51.3918 252.502C54.5433 252.874 57.7816 252.706 60.622 254.141C60.9214 253.27 60.2674 252.282 60.5668 251.396C60.7559 250.848 61.2759 250.491 61.6305 250.028C62.1068 249.324 62.3442 248.486 62.3081 247.637C62.322 246.529 62.1241 245.429 61.725 244.395C61.3902 243.533 60.9095 242.682 60.9371 241.757C60.9371 241.302 61.0986 240.824 60.9135 240.405C60.7865 240.164 60.614 239.949 60.4053 239.773C59.2279 238.49 58.5044 236.859 58.3449 235.128C58.1913 233.411 58.2469 231.681 58.5104 229.977C58.7034 228.354 58.9634 226.641 59.9995 225.375C59.5191 221.535 59.8015 217.64 60.8308 213.908C60.9332 213.564 61.0947 213.164 61.4493 213.081C61.5901 213.067 61.7324 213.087 61.864 213.138C61.9956 213.19 62.1128 213.273 62.2056 213.379C62.8241 213.956 63.1196 214.791 63.3875 215.59C63.6829 216.457 63.9823 217.382 63.7578 218.268C63.6632 218.66 63.4741 219.005 63.3638 219.381C63.1242 220.137 63.1661 220.954 63.482 221.682C63.636 221.948 63.7326 222.243 63.7657 222.548C63.7291 222.811 63.6493 223.065 63.5293 223.301C63.3832 223.765 63.3368 224.254 63.3931 224.737C63.4494 225.22 63.6073 225.686 63.8563 226.104C64.3584 226.936 64.978 227.693 65.696 228.35C65.3529 229.855 65.4417 231.425 65.9521 232.882C65.9889 232.947 66.0124 233.02 66.0212 233.094C66.03 233.169 66.0239 233.245 66.0033 233.317C65.9324 233.466 65.7512 233.521 65.6093 233.627C65.2154 233.948 65.4597 234.556 65.7236 234.975C66.447 236.126 67.2458 237.229 68.1149 238.276C68.9027 239.213 68.8318 241.02 70.0058 241.357C70.4991 241.463 71.0095 241.463 71.5028 241.357C72.661 241.181 73.9532 240.847 74.5205 239.828C74.7529 239.409 74.8474 238.899 75.2099 238.586C75.5723 238.272 76.0411 238.217 76.242 237.841C76.4429 237.464 76.2184 236.971 76.2853 236.535C76.3523 236.1 76.7344 235.751 76.8566 235.293C77.1481 234.234 75.9071 233.364 75.7378 232.282C75.4935 230.714 77.479 229.538 77.3963 227.97C77.2229 224.563 77.1126 221.141 76.9354 217.735C76.7129 214.683 76.6813 211.621 76.8408 208.565C76.9787 206.664 77.2347 204.673 76.5335 202.905C75.525 200.412 72.7437 199.012 70.0531 198.746C67.3624 198.479 64.6796 199.114 62.0126 199.53C57.5862 200.208 53.0891 200.302 48.6381 199.808Z" fill="#3F3D56"/>
<path d="M56.6353 162.339C60.1208 162.339 62.9463 159.528 62.9463 156.059C62.9463 152.591 60.1208 149.779 56.6353 149.779C53.1498 149.779 50.3242 152.591 50.3242 156.059C50.3242 159.528 53.1498 162.339 56.6353 162.339Z" fill="#FBBEBE"/>
<path d="M54.0668 163.512C53.8524 164.008 53.4919 164.429 53.0328 164.718C52.5736 165.007 52.0373 165.151 51.4943 165.131C51.2658 166.071 51.8134 167.02 52.4398 167.761C53.7405 169.267 55.4213 170.401 57.3091 171.045C59.1968 171.689 61.223 171.821 63.1788 171.426C63.9399 171.291 64.662 170.991 65.2943 170.548C66.1468 169.84 66.7191 168.854 66.9095 167.765C67.0908 166.684 67.1424 165.585 67.0632 164.492C67.0853 164.276 67.0232 164.06 66.8898 163.888C66.7323 163.766 66.5375 163.703 66.3383 163.708C65.0068 163.59 63.6161 163.539 62.4461 162.888C61.2761 162.238 60.4449 160.768 61.0082 159.56C60.9176 159.748 58.6169 159.838 58.3136 159.878C57.3642 160.011 56.4148 160.16 55.4693 160.332C55.015 160.357 54.5659 160.442 54.1338 160.583C53.5626 160.877 53.7753 160.732 53.9092 161.265C54.1102 162.081 54.4056 162.665 54.0668 163.512Z" fill="#FBBEBE"/>
<path d="M58.8691 167.33C58.0191 167.34 57.1711 167.246 56.3439 167.051C55.5087 166.857 54.7725 166.368 54.2717 165.675C53.9802 165.236 53.7911 164.684 53.3263 164.437C52.5659 164.045 51.6993 164.707 51.0926 165.315C50.5402 165.914 49.9 166.427 49.1937 166.836C48.3507 167.279 47.3658 167.436 46.57 167.957C45.9484 168.424 45.4148 168.998 44.9942 169.65L39.412 177.216C37.1704 180.258 35.2204 183.524 33.2231 186.734C31.4937 189.514 30.5876 192.712 29.2836 195.711C29.1803 195.895 29.1376 196.106 29.1615 196.315C29.2088 196.519 29.4569 196.684 29.6303 196.566C29.0433 197.146 29.5594 198.134 29.4215 198.949C29.2647 199.52 28.9378 200.03 28.4839 200.412C29.351 200.299 30.2313 200.34 31.0839 200.533C31.9652 200.782 32.7968 201.179 33.5422 201.709C34.0189 201.635 33.9755 200.792 34.3301 200.478C34.5428 200.294 34.858 200.317 35.1377 200.263C36.1895 200.059 36.6071 198.8 37.4147 198.091C38.0883 197.499 39.0417 197.307 39.7547 196.75C40.913 195.845 41.1611 194.233 41.7678 192.897C42.2839 191.764 43.0954 190.776 43.5485 189.616C43.8439 188.863 43.9857 188.048 44.4073 187.354C45.0809 186.233 46.3494 185.637 47.5589 185.1C48.3231 184.759 49.1346 184.406 49.958 184.461C49.9147 186.283 49.6822 188.079 50.0801 189.859C50.218 190.486 50.411 191.097 50.5765 191.721C51.3289 194.527 51.5062 197.452 51.5417 200.345C53.3517 199.933 55.2004 199.712 57.057 199.686C58.5185 199.643 59.9761 199.831 61.4377 199.804C63.171 199.773 64.8847 199.439 66.6181 199.322C68.3514 199.204 70.1636 199.322 71.6961 200.106C71.5716 197.621 71.6414 195.131 71.9048 192.658L72.3224 188.761C72.4167 187.629 72.5918 186.505 72.8464 185.398C73.0749 184.504 73.4058 183.641 73.6579 182.751C74.5443 179.615 74.3828 176.268 74.2134 173.002C74.1267 171.324 73.4767 169.674 72.7124 168.18C72.4358 167.626 72.1199 167.091 71.767 166.581C70.8434 165.315 69.6127 164.302 68.1894 163.637C66.7662 162.972 65.1969 162.677 63.628 162.779C63.4276 162.785 63.23 162.827 63.045 162.904C62.7124 163.116 62.4527 163.424 62.3004 163.786C61.4853 165.244 60.3027 166.465 58.8691 167.33Z" fill="#3F3D56"/>
<path d="M51.0847 158.141C51.2619 157.749 51.7386 157.604 52.0301 157.29C52.5895 156.695 52.3374 155.742 52.4241 154.938C52.5659 153.762 53.5468 152.778 54.6696 152.359C55.8146 151.993 57.0329 151.916 58.2151 152.135C58.7842 152.177 59.3339 152.359 59.8145 152.665C60.0194 152.814 60.2085 153.006 60.4015 153.143C60.7534 153.355 61.1745 153.421 61.5749 153.328C61.9753 153.235 62.3233 152.99 62.5446 152.645C61.15 150.975 59.6058 149.211 57.4863 148.697C56.7592 148.55 56.0183 148.48 55.2763 148.49C54.2953 148.47 53.2829 148.454 52.3768 148.827C51.1437 149.333 50.2771 150.497 49.8319 151.751C49.4426 153.023 49.2344 154.342 49.2134 155.671C49.1326 156.558 49.1326 157.45 49.2134 158.337C49.3657 159.548 49.8178 160.702 50.5292 161.697C50.6254 161.851 50.7614 161.977 50.9231 162.061C52.7195 162.845 50.9389 158.466 51.0847 158.141Z" fill="#3F3D56"/>
<path d="M62.3399 151.677C62.1233 149.83 60.7996 148.306 59.3932 147.079C58.2597 146.015 56.9094 145.206 55.434 144.707C53.9489 144.272 52.2391 144.366 50.9667 145.248C49.9424 145.957 49.2924 147.086 48.7921 148.223C48.1348 149.565 47.8093 151.043 47.8427 152.535C47.9411 154.017 48.666 155.519 49.9582 156.267C50.423 155.585 51.2306 155.232 52.0067 154.954C55.3892 153.677 58.8387 152.583 62.3399 151.677Z" fill="#FED253"/>
<path opacity="0.1" d="M50.3913 150.908C50.5174 150.908 50.6001 151.038 50.6632 151.144C50.9839 151.641 51.2595 152.166 51.4865 152.712C51.0256 152.81 50.2338 152.919 50.0053 152.516C49.8831 152.312 50.0289 150.889 50.3913 150.908Z" fill="black"/>
<path opacity="0.1" d="M59.3693 150.022C59.2748 150.113 59.1645 149.928 59.1645 149.795V148.274C59.1619 148.232 59.1715 148.19 59.1921 148.153C59.2084 148.134 59.2283 148.119 59.2506 148.108C59.273 148.097 59.2973 148.091 59.3221 148.09C59.6412 148.055 59.9051 148.325 60.11 148.584C60.4208 149.003 60.6912 149.451 60.9175 149.921L59.2511 149.87" fill="black"/>
<path d="M80.1658 175.209C80.5284 174.867 80.9155 174.551 81.324 174.264C82.4153 173.539 83.735 173.253 84.9602 172.79C86.1854 172.328 87.4303 171.579 87.9069 170.364C88.1456 169.604 88.2234 168.803 88.1354 168.012C88.1469 167.681 88.0878 167.351 87.9621 167.044C87.8121 166.772 87.5986 166.541 87.3396 166.369C85.6772 165.146 83.4474 165.048 81.3832 165.174C76.8321 165.455 72.3712 166.563 68.2213 168.443C68.0019 168.515 67.8096 168.652 67.6698 168.835C67.589 169.005 67.5524 169.192 67.5634 169.38C67.49 170.536 67.6412 171.695 68.0086 172.794C68.5523 174.19 69.6711 175.315 70.1399 176.738C70.3526 177.377 70.4235 178.055 70.6087 178.698C70.7606 179.362 71.1551 179.946 71.7157 180.337C73.2718 181.262 74.7412 180.019 75.8206 179.055L80.1658 175.209Z" fill="#3F3D56"/>
<path d="M59.7869 180.639L57.7896 176.303C57.4968 175.702 57.2441 175.083 57.0332 174.449C56.8047 173.692 56.6944 172.908 56.4817 172.148C55.7805 169.615 54.0116 167.506 53.1489 165.025C53.0944 164.801 52.9832 164.594 52.8259 164.425C52.6999 164.336 52.556 164.276 52.4042 164.249C52.2523 164.222 52.0964 164.229 51.9474 164.268C50.7419 164.476 49.8003 165.389 48.6973 165.907C48.1852 166.142 47.6336 166.299 47.1215 166.569C46.8655 166.69 46.6387 166.864 46.4565 167.08C46.2743 167.296 46.141 167.548 46.0657 167.82C45.9436 168.42 46.243 168.996 46.4951 169.58C47.5667 171.987 47.8109 174.676 47.8582 177.31C47.8936 179.082 47.803 180.983 46.7512 182.406C44.7302 185.151 46.0224 189.18 46.7788 192.501C46.8694 192.893 46.9757 193.316 47.0388 193.732C47.1054 194.252 47.1357 194.776 47.1294 195.3C47.1294 197.06 47.0309 198.875 46.2903 200.47C47.0215 200.857 47.8273 201.085 48.654 201.137C50.9415 201.427 53.2382 201.631 55.5441 201.748C56.2666 201.816 56.9951 201.779 57.7069 201.639C58.5522 201.411 59.2973 200.91 59.8245 200.214C60.3517 199.519 60.631 198.668 60.6182 197.797C60.7442 198.883 60.9767 200.063 61.7685 200.815C62.5603 201.568 63.7146 201.682 64.7901 201.74C67.8254 201.901 70.8688 201.815 73.8903 201.486C74.0831 201.477 74.2727 201.433 74.4497 201.356C75.0327 201.066 75.0642 200.266 75.017 199.624C74.9303 198.42 74.8397 197.217 74.6939 196.021C74.5703 195.259 74.5071 194.488 74.5048 193.716C74.5649 192.922 74.6967 192.135 74.8988 191.364C75.4267 188.918 75.8443 186.421 75.667 183.916C75.5969 183.306 75.5719 182.691 75.5921 182.077C75.6946 180.693 76.4273 179.376 76.2894 178C75.8955 173.955 75.5764 169.803 74.4418 165.899C74.2369 165.201 73.9769 164.452 73.3663 164.053C72.5784 163.527 71.4714 163.802 70.5693 163.468C70.146 163.272 69.7435 163.035 69.3678 162.759C68.5514 162.251 67.6156 161.964 66.6534 161.928C65.9286 161.9 65.121 162.061 64.6837 162.641C64.4812 162.968 64.3472 163.332 64.2898 163.712C63.7185 166.103 63.0488 168.467 62.3791 170.83L61.737 173.096L60.0154 179.18C59.846 179.827 59.9603 180.027 59.7869 180.639Z" fill="#F8F8F8"/>
<path d="M69.8603 156.902L107.967 196.75V200.129H90.9759L62.3398 162.939" fill="#F1C0C0"/>
<path opacity="0.1" d="M69.8603 156.902L107.967 196.75V200.129H90.9759L62.3398 162.939" fill="black"/>
<path opacity="0.1" d="M62.9465 162.414L63.0687 162.457L91.2202 196.75H107.967V200.129H90.9759L62.3398 162.939L62.9465 162.414Z" fill="black"/>
<path d="M67.3313 163.253C65.9525 163.853 64.42 164.621 64.0064 166.064C63.9247 166.317 63.9071 166.586 63.9552 166.848C64.0559 167.155 64.2481 167.425 64.5062 167.622C64.7643 167.818 65.0763 167.933 65.401 167.949C66.0497 167.965 66.6947 167.847 67.2958 167.604L75.4309 164.931C75.6515 164.86 75.9036 164.754 75.9588 164.539C75.9729 164.403 75.9455 164.266 75.88 164.147C75.6279 163.535 75.3797 162.285 74.8518 161.857C74.4184 161.512 73.5596 161.634 73.0357 161.642C71.0187 161.657 69.1238 162.469 67.3313 163.253Z" fill="#F8F8F8"/>
<path d="M74.5835 165.248C75.954 165.244 77.3166 165.455 78.6215 165.871C79.9322 166.295 81.0931 167.084 81.9661 168.145C82.2203 168.442 82.4011 168.793 82.494 169.172C82.5728 169.564 83.857 169.799 83.5734 170.066C84.4362 169.929 84.2313 170.333 85.1059 170.325C85.9804 170.317 86.9259 170.093 87.4499 169.4C87.8139 168.83 87.9761 168.155 87.9108 167.483C87.9222 167.017 87.8336 166.555 87.6508 166.126C87.2568 165.303 86.3507 164.86 85.5156 164.48L78.4796 161.277C78.0715 161.061 77.6334 160.907 77.1796 160.818C76.7977 160.783 76.4129 160.792 76.0332 160.846L72.8462 161.21C73.5432 161.659 74.1106 162.281 74.4926 163.015C74.8746 163.748 75.058 164.568 75.0247 165.393" fill="#3F3D56"/>
</g>
<defs>
<clipPath id="clip0_1827_15039">
<rect width="464" height="284" fill="white" transform="translate(-65)"/>
</clipPath>
</defs>
</svg>
