<svg width="320" height="283" viewBox="0 0 320 283" fill="none" xmlns="http://www.w3.org/2000/svg">
<g clip-path="url(#clip0_1827_15155)">
<path d="M33.1377 167.105C46.1563 167.105 56.71 156.581 56.71 143.6C56.71 130.619 46.1563 120.095 33.1377 120.095C20.1191 120.095 9.56543 130.619 9.56543 143.6C9.56543 156.581 20.1191 167.105 33.1377 167.105Z" fill="#FF6584"/>
<path d="M81.411 276.366H81.387C80.557 276.365 79.7613 276.036 79.1743 275.451C78.5874 274.865 78.2573 274.072 78.2563 273.244V89.9796C78.2573 89.152 78.5874 88.3585 79.1743 87.7732C79.7613 87.188 80.557 86.8588 81.387 86.8579H236.08C236.91 86.8588 237.706 87.188 238.293 87.7732C238.88 88.3585 239.21 89.152 239.211 89.9796V232.478C239.21 233.301 238.883 234.091 238.301 234.676C237.72 235.26 236.93 235.592 236.104 235.6L81.411 276.366Z" fill="#F2F2F2"/>
<path d="M195.75 60.9658H123.928V19.465C123.929 18.5886 124.278 17.7485 124.9 17.1288C125.521 16.5092 126.364 16.1606 127.243 16.1596H192.435C193.314 16.1606 194.156 16.5092 194.778 17.1288C195.399 17.7485 195.749 18.5886 195.75 19.465V60.9658ZM124.664 60.2313H195.013V19.465C195.012 18.7834 194.74 18.1299 194.257 17.648C193.774 17.166 193.118 16.8949 192.435 16.8941H127.243C126.559 16.8949 125.904 17.166 125.42 17.648C124.937 18.1299 124.665 18.7834 124.664 19.465V60.2313Z" fill="white"/>
<path d="M144.369 31.9519H175.308C176.089 31.9519 176.839 32.2615 177.392 32.8125C177.944 33.3635 178.255 34.1108 178.255 34.8901V78.9617H141.423V34.8901C141.423 34.1108 141.733 33.3635 142.286 32.8125C142.838 32.2615 143.588 31.9519 144.369 31.9519Z" fill="#E6E6E6"/>
<path d="M150.447 16.8941H135.346V1.83632C135.346 1.34947 135.54 0.882716 135.886 0.53846C136.231 0.194204 136.699 0.000556974 137.187 0H148.605C149.093 0.000556974 149.561 0.194204 149.907 0.53846C150.252 0.882716 150.446 1.34947 150.447 1.83632V16.8941ZM136.082 16.1596H149.71V1.83632C149.71 1.5442 149.593 1.26414 149.386 1.05759C149.179 0.85103 148.898 0.734846 148.605 0.734527H137.187C136.894 0.734846 136.613 0.85103 136.406 1.05759C136.199 1.26414 136.083 1.5442 136.082 1.83632V16.1596Z" fill="white"/>
<path d="M274.536 238.295C274.389 238.295 274.247 238.295 274.1 238.292C264.988 238.191 256.226 234.776 249.461 228.689C249.211 228.462 248.963 228.232 248.717 227.999L248.603 227.89V157.503L248.638 157.429C248.882 156.913 249.129 156.405 249.377 155.897C257.038 140.388 265.973 131.848 274.536 131.848C286.886 131.848 296.463 148.739 301.073 158.808C307.484 172.81 311.961 190.16 311.961 201C311.958 210.82 308.072 220.243 301.146 227.225C294.219 234.206 284.812 238.183 274.964 238.292C274.826 238.295 274.679 238.295 274.536 238.295ZM249.34 227.575C249.544 227.768 249.75 227.957 249.956 228.144C256.589 234.112 265.179 237.46 274.113 237.557C274.262 237.561 274.403 237.557 274.546 237.561C274.68 237.561 274.817 237.561 274.95 237.557C294.954 237.336 311.224 220.936 311.224 201C311.224 190.254 306.775 173.029 300.403 159.113C295.867 149.205 286.474 132.582 274.536 132.582C266.268 132.582 257.568 140.977 250.038 156.22C249.805 156.699 249.571 157.18 249.34 157.668L249.34 227.575Z" fill="white"/>
<path d="M274.535 282.825C274.422 282.825 274.314 282.781 274.235 282.702C274.155 282.622 274.111 282.515 274.111 282.403V196.144C274.111 196.089 274.121 196.033 274.142 195.982C274.164 195.93 274.195 195.883 274.234 195.844C274.273 195.804 274.32 195.773 274.372 195.752C274.423 195.73 274.479 195.719 274.535 195.719C274.59 195.719 274.646 195.73 274.697 195.752C274.749 195.773 274.796 195.804 274.835 195.844C274.874 195.883 274.906 195.93 274.927 195.982C274.948 196.033 274.959 196.089 274.958 196.144V282.403C274.958 282.515 274.914 282.622 274.834 282.702C274.755 282.781 274.647 282.825 274.535 282.825Z" fill="#CCCCCC"/>
<path d="M54.6493 282.825C54.537 282.825 54.4292 282.781 54.3497 282.702C54.2702 282.622 54.2256 282.515 54.2256 282.403V196.144C54.2253 196.089 54.236 196.033 54.2571 195.982C54.2783 195.93 54.3094 195.883 54.3488 195.844C54.3882 195.804 54.435 195.773 54.4866 195.752C54.5382 195.73 54.5935 195.719 54.6493 195.719C54.7052 195.719 54.7605 195.73 54.8121 195.752C54.8637 195.773 54.9105 195.804 54.9499 195.844C54.9892 195.883 55.0204 195.93 55.0415 195.982C55.0627 196.033 55.0734 196.089 55.0731 196.144V282.403C55.0731 282.515 55.0284 282.622 54.949 282.702C54.8695 282.781 54.7617 282.825 54.6493 282.825Z" fill="#CCCCCC"/>
<path d="M274.535 212.26C274.474 212.26 274.414 212.247 274.359 212.222C274.304 212.197 274.254 212.16 274.215 212.115L252.902 187.607C252.829 187.522 252.792 187.412 252.8 187.3C252.808 187.189 252.861 187.085 252.945 187.012C253.03 186.938 253.141 186.901 253.253 186.909C253.365 186.917 253.469 186.969 253.543 187.053L274.855 211.561C274.908 211.622 274.943 211.697 274.954 211.777C274.966 211.858 274.954 211.939 274.92 212.013C274.887 212.087 274.832 212.149 274.764 212.193C274.696 212.237 274.616 212.26 274.535 212.26V212.26Z" fill="#CCCCCC"/>
<path d="M274.535 226.404C274.451 226.404 274.369 226.379 274.299 226.333C274.229 226.286 274.175 226.22 274.143 226.143C274.111 226.066 274.103 225.981 274.119 225.899C274.135 225.817 274.176 225.742 274.235 225.683L286.345 213.607C286.424 213.528 286.532 213.484 286.644 213.484C286.756 213.484 286.864 213.529 286.943 213.608C287.023 213.687 287.067 213.794 287.067 213.906C287.068 214.018 287.023 214.125 286.944 214.205L274.834 226.28C274.795 226.32 274.748 226.351 274.697 226.372C274.645 226.393 274.59 226.404 274.535 226.404Z" fill="#CCCCCC"/>
<path d="M313.741 283H282.063V282.633C282.062 280.558 282.471 278.504 283.267 276.587C284.062 274.67 285.229 272.928 286.7 271.46C288.171 269.993 289.917 268.829 291.839 268.035C293.761 267.241 295.821 266.832 297.902 266.832C299.983 266.832 302.043 267.241 303.965 268.035C305.887 268.829 307.633 269.993 309.104 271.46C310.575 272.928 311.742 274.67 312.537 276.587C313.333 278.504 313.742 280.558 313.741 282.633L313.741 283ZM282.805 282.265H313C312.903 278.336 311.271 274.6 308.45 271.855C305.629 269.11 301.844 267.574 297.902 267.574C293.961 267.574 290.175 269.11 287.354 271.855C284.533 274.6 282.901 278.336 282.805 282.265H282.805Z" fill="white"/>
<path d="M297.902 273.669C297.791 273.669 297.685 273.713 297.606 273.791C297.528 273.869 297.484 273.975 297.484 274.086V278.515L293.157 274.812C293.115 274.776 293.067 274.749 293.015 274.732C292.963 274.714 292.908 274.708 292.853 274.712C292.798 274.716 292.744 274.731 292.695 274.755C292.646 274.78 292.603 274.814 292.567 274.856C292.531 274.897 292.504 274.946 292.487 274.998C292.469 275.05 292.463 275.105 292.467 275.16C292.471 275.214 292.486 275.268 292.511 275.316C292.536 275.365 292.571 275.409 292.612 275.444L297.484 279.614V282.216C297.484 282.271 297.494 282.325 297.515 282.376C297.536 282.426 297.567 282.473 297.606 282.511C297.645 282.55 297.691 282.581 297.742 282.602C297.793 282.623 297.847 282.634 297.902 282.634C297.957 282.634 298.012 282.623 298.062 282.602C298.113 282.581 298.159 282.55 298.198 282.511C298.237 282.473 298.268 282.426 298.289 282.376C298.31 282.325 298.32 282.271 298.32 282.216V274.086C298.32 273.975 298.276 273.869 298.198 273.791C298.119 273.713 298.013 273.669 297.902 273.669Z" fill="white"/>
<path d="M48.1845 283H16.5073V282.633C16.5063 280.558 16.9153 278.504 17.7108 276.587C18.5063 274.67 19.6728 272.928 21.1436 271.46C22.6145 269.993 24.3608 268.829 26.283 268.035C28.2051 267.241 30.2653 266.832 32.3459 266.832C34.4265 266.832 36.4867 267.241 38.4088 268.035C40.3309 268.829 42.0773 269.993 43.5482 271.46C45.019 272.928 46.1855 274.67 46.981 276.587C47.7765 278.504 48.1855 280.558 48.1845 282.633L48.1845 283ZM17.2484 282.265H47.4434C47.3473 278.336 45.7145 274.6 42.8936 271.855C40.0728 269.11 36.2874 267.574 32.3459 267.574C28.4044 267.574 24.619 269.11 21.7982 271.855C18.9773 274.6 17.3445 278.336 17.2484 282.265H17.2484Z" fill="white"/>
<path d="M32.3454 273.669C32.2345 273.669 32.1282 273.713 32.0498 273.791C31.9714 273.869 31.9273 273.975 31.9273 274.086V278.515L27.6005 274.812C27.5588 274.776 27.5105 274.749 27.4583 274.732C27.406 274.714 27.3509 274.708 27.2961 274.712C27.2412 274.716 27.1877 274.731 27.1387 274.755C27.0896 274.78 27.0459 274.814 27.0101 274.856C26.9742 274.897 26.947 274.946 26.9299 274.998C26.9128 275.05 26.9062 275.105 26.9104 275.16C26.9147 275.214 26.9297 275.268 26.9546 275.316C26.9796 275.365 27.0139 275.409 27.0557 275.444L31.9273 279.614V282.216C31.9271 282.271 31.9378 282.325 31.9588 282.376C31.9797 282.426 32.0105 282.473 32.0493 282.511C32.0882 282.55 32.1343 282.581 32.1851 282.602C32.2359 282.623 32.2904 282.634 32.3454 282.634C32.4004 282.634 32.4549 282.623 32.5057 282.602C32.5565 282.581 32.6027 282.55 32.6415 282.511C32.6804 282.473 32.7111 282.426 32.7321 282.376C32.753 282.325 32.7637 282.271 32.7636 282.216V274.086C32.7635 273.975 32.7195 273.869 32.6411 273.791C32.5627 273.713 32.4563 273.669 32.3454 273.669Z" fill="white"/>
<path d="M55.0192 238.295C54.8724 238.295 54.7295 238.295 54.5827 238.292C44.7359 238.181 35.3299 234.203 28.4049 227.222C21.4799 220.241 17.5943 210.819 17.5908 201C17.5908 190.159 22.0681 172.81 28.4788 158.808C33.0891 148.739 42.6676 131.848 55.0192 131.848C60.1068 131.848 65.2298 134.739 70.246 140.442C70.4948 140.723 70.7441 141.013 70.9898 141.31L71.0741 141.411V234.691L70.8664 234.792C70.6185 234.911 70.367 235.024 70.1155 235.132C65.4932 237.172 60.5012 238.247 55.4467 238.292C55.3092 238.295 55.1622 238.295 55.0192 238.295ZM55.0192 132.582C43.0795 132.582 33.6858 149.205 29.1489 159.113C22.7774 173.029 18.3275 190.253 18.3275 201C18.3275 220.933 34.5975 237.333 54.596 237.557C54.745 237.561 54.8841 237.562 55.0289 237.561C55.1626 237.561 55.2997 237.561 55.4333 237.557C60.3907 237.514 65.2867 236.46 69.8202 234.459C69.9941 234.384 70.1666 234.308 70.3375 234.229V141.676C70.1242 141.421 69.9085 141.171 69.6929 140.927C64.822 135.39 59.8853 132.582 55.0192 132.582Z" fill="white"/>
<path d="M55.0179 212.26C54.9571 212.26 54.897 212.247 54.8417 212.222C54.7864 212.197 54.7372 212.16 54.6975 212.115L33.3853 187.607C33.3119 187.522 33.2752 187.412 33.2833 187.3C33.2914 187.189 33.3436 187.085 33.4284 187.012C33.5132 186.938 33.6237 186.901 33.7357 186.909C33.8477 186.917 33.952 186.969 34.0257 187.053L55.3379 211.561C55.391 211.622 55.4255 211.697 55.4371 211.777C55.4486 211.858 55.4369 211.939 55.4031 212.013C55.3694 212.087 55.3152 212.149 55.2469 212.193C55.1786 212.237 55.0991 212.26 55.0179 212.26V212.26Z" fill="#CCCCCC"/>
<path d="M55.0175 226.404C54.9336 226.404 54.8517 226.379 54.782 226.333C54.7124 226.286 54.6581 226.22 54.626 226.143C54.5939 226.066 54.5855 225.981 54.6019 225.899C54.6182 225.817 54.6586 225.742 54.7178 225.683L66.8278 213.607C66.9073 213.528 67.015 213.484 67.1272 213.484C67.2393 213.484 67.3469 213.529 67.4262 213.608C67.5055 213.687 67.5501 213.794 67.5503 213.906C67.5504 214.018 67.5061 214.125 67.427 214.205L55.3171 226.28C55.2778 226.32 55.2311 226.351 55.1797 226.372C55.1282 226.393 55.0731 226.404 55.0175 226.404Z" fill="#CCCCCC"/>
<path d="M88.2969 63.9039L88.5696 64.4401C88.6904 64.6715 88.7536 64.9284 88.7537 65.1893V79.6962H101.645V65.1893C101.645 64.9285 101.708 64.6715 101.829 64.4401L102.102 63.9039H88.2969ZM100.908 65.1893V78.9617H89.4904V65.1893C89.4906 65.0037 89.4683 64.8187 89.424 64.6384H100.975C100.93 64.8187 100.908 65.0037 100.908 65.1893ZM104.503 63.9039L104.776 64.4401C104.896 64.6715 104.96 64.9284 104.96 65.1893V79.6962H117.851V65.1893C117.851 64.9285 117.914 64.6715 118.035 64.4401L118.308 63.9039H104.503ZM117.114 65.1893V78.9617H105.696V65.1893C105.697 65.0037 105.674 64.8187 105.63 64.6384H117.181C117.136 64.8187 117.114 65.0037 117.114 65.1893ZM120.709 63.9039L120.981 64.4401C121.102 64.6715 121.165 64.9284 121.166 65.1893V79.6962H134.057V65.1893C134.057 64.9285 134.12 64.6715 134.241 64.4401L134.514 63.9039H120.709ZM133.32 65.1893V78.9617H121.902V65.1893C121.902 65.0037 121.88 64.8187 121.836 64.6384H133.386C133.342 64.8187 133.32 65.0037 133.32 65.1893ZM136.915 63.9039L137.187 64.4401C137.308 64.6715 137.371 64.9284 137.372 65.1893V79.6962H150.263V65.1893C150.263 64.9285 150.326 64.6715 150.447 64.4401L150.719 63.9039H136.915ZM149.526 65.1893V78.9617H138.108V65.1893C138.108 65.0037 138.086 64.8187 138.042 64.6384H149.592C149.548 64.8187 149.526 65.0037 149.526 65.1893ZM153.121 63.9039L153.393 64.4401C153.514 64.6715 153.577 64.9284 153.578 65.1893V79.6962H166.469V65.1893C166.469 64.9285 166.532 64.6715 166.653 64.4401L166.925 63.9039H153.121ZM165.732 65.1893V78.9617H154.314V65.1893C154.314 65.0037 154.292 64.8187 154.248 64.6384H165.798C165.754 64.8187 165.732 65.0037 165.732 65.1893ZM169.327 63.9039L169.599 64.4401C169.72 64.6715 169.783 64.9284 169.783 65.1893V79.6962H182.675V65.1893C182.675 64.9285 182.738 64.6715 182.859 64.4401L183.131 63.9039H169.327ZM181.938 65.1893V78.9617H170.52V65.1893C170.52 65.0037 170.498 64.8187 170.454 64.6384H182.004C181.96 64.8187 181.938 65.0037 181.938 65.1893ZM185.533 63.9039L185.805 64.4401C185.926 64.6715 185.989 64.9284 185.989 65.1893V79.6962H198.88V65.1893C198.881 64.9285 198.944 64.6715 199.065 64.4401L199.337 63.9039H185.533ZM198.144 65.1893V78.9617H186.726V65.1893C186.726 65.0037 186.704 64.8187 186.66 64.6384H198.21C198.166 64.8187 198.144 65.0037 198.144 65.1893ZM201.739 63.9039L202.011 64.4401C202.132 64.6715 202.195 64.9284 202.195 65.1893V79.6962H215.086V65.1893C215.087 64.9285 215.15 64.6715 215.271 64.4401L215.543 63.9039H201.739ZM214.35 65.1893V78.9617H202.932V65.1893C202.932 65.0037 202.91 64.8187 202.866 64.6384H214.416C214.372 64.8187 214.35 65.0037 214.35 65.1893ZM217.944 63.9039L218.217 64.4401C218.338 64.6715 218.401 64.9284 218.401 65.1893V79.6962H231.292V65.1893C231.293 64.9285 231.356 64.6715 231.477 64.4401L231.749 63.9039H217.944ZM230.556 65.1893V78.9617H219.138V65.1893C219.138 65.0037 219.116 64.8187 219.072 64.6384H230.622C230.578 64.8187 230.556 65.0037 230.556 65.1893ZM217.944 63.9039L218.217 64.4401C218.338 64.6715 218.401 64.9284 218.401 65.1893V79.6962H231.292V65.1893C231.293 64.9285 231.356 64.6715 231.477 64.4401L231.749 63.9039H217.944ZM230.556 65.1893V78.9617H219.138V65.1893C219.138 65.0037 219.116 64.8187 219.072 64.6384H230.622C230.578 64.8187 230.556 65.0037 230.556 65.1893ZM201.739 63.9039L202.011 64.4401C202.132 64.6715 202.195 64.9284 202.195 65.1893V79.6962H215.086V65.1893C215.087 64.9285 215.15 64.6715 215.271 64.4401L215.543 63.9039H201.739ZM214.35 65.1893V78.9617H202.932V65.1893C202.932 65.0037 202.91 64.8187 202.866 64.6384H214.416C214.372 64.8187 214.35 65.0037 214.35 65.1893ZM185.533 63.9039L185.805 64.4401C185.926 64.6715 185.989 64.9284 185.989 65.1893V79.6962H198.88V65.1893C198.881 64.9285 198.944 64.6715 199.065 64.4401L199.337 63.9039H185.533ZM198.144 65.1893V78.9617H186.726V65.1893C186.726 65.0037 186.704 64.8187 186.66 64.6384H198.21C198.166 64.8187 198.144 65.0037 198.144 65.1893ZM169.327 63.9039L169.599 64.4401C169.72 64.6715 169.783 64.9284 169.783 65.1893V79.6962H182.675V65.1893C182.675 64.9285 182.738 64.6715 182.859 64.4401L183.131 63.9039H169.327ZM181.938 65.1893V78.9617H170.52V65.1893C170.52 65.0037 170.498 64.8187 170.454 64.6384H182.004C181.96 64.8187 181.938 65.0037 181.938 65.1893ZM153.121 63.9039L153.393 64.4401C153.514 64.6715 153.577 64.9284 153.578 65.1893V79.6962H166.469V65.1893C166.469 64.9285 166.532 64.6715 166.653 64.4401L166.925 63.9039H153.121ZM165.732 65.1893V78.9617H154.314V65.1893C154.314 65.0037 154.292 64.8187 154.248 64.6384H165.798C165.754 64.8187 165.732 65.0037 165.732 65.1893ZM136.915 63.9039L137.187 64.4401C137.308 64.6715 137.371 64.9284 137.372 65.1893V79.6962H150.263V65.1893C150.263 64.9285 150.326 64.6715 150.447 64.4401L150.719 63.9039H136.915ZM149.526 65.1893V78.9617H138.108V65.1893C138.108 65.0037 138.086 64.8187 138.042 64.6384H149.592C149.548 64.8187 149.526 65.0037 149.526 65.1893ZM120.709 63.9039L120.981 64.4401C121.102 64.6715 121.165 64.9284 121.166 65.1893V79.6962H134.057V65.1893C134.057 64.9285 134.12 64.6715 134.241 64.4401L134.514 63.9039H120.709ZM133.32 65.1893V78.9617H121.902V65.1893C121.902 65.0037 121.88 64.8187 121.836 64.6384H133.386C133.342 64.8187 133.32 65.0037 133.32 65.1893ZM104.503 63.9039L104.776 64.4401C104.896 64.6715 104.96 64.9284 104.96 65.1893V79.6962H117.851V65.1893C117.851 64.9285 117.914 64.6715 118.035 64.4401L118.308 63.9039H104.503ZM117.114 65.1893V78.9617H105.696V65.1893C105.697 65.0037 105.674 64.8187 105.63 64.6384H117.181C117.136 64.8187 117.114 65.0037 117.114 65.1893ZM88.2969 63.9039L88.5696 64.4401C88.6904 64.6715 88.7536 64.9284 88.7537 65.1893V79.6962H101.645V65.1893C101.645 64.9285 101.708 64.6715 101.829 64.4401L102.102 63.9039H88.2969ZM100.908 65.1893V78.9617H89.4904V65.1893C89.4906 65.0037 89.4683 64.8187 89.424 64.6384H100.975C100.93 64.8187 100.908 65.0037 100.908 65.1893ZM217.944 63.9039L218.217 64.4401C218.338 64.6715 218.401 64.9284 218.401 65.1893V79.6962H231.292V65.1893C231.293 64.9285 231.356 64.6715 231.477 64.4401L231.749 63.9039H217.944ZM230.556 65.1893V78.9617H219.138V65.1893C219.138 65.0037 219.116 64.8187 219.072 64.6384H230.622C230.578 64.8187 230.556 65.0037 230.556 65.1893ZM201.739 63.9039L202.011 64.4401C202.132 64.6715 202.195 64.9284 202.195 65.1893V79.6962H215.086V65.1893C215.087 64.9285 215.15 64.6715 215.271 64.4401L215.543 63.9039H201.739ZM214.35 65.1893V78.9617H202.932V65.1893C202.932 65.0037 202.91 64.8187 202.866 64.6384H214.416C214.372 64.8187 214.35 65.0037 214.35 65.1893ZM185.533 63.9039L185.805 64.4401C185.926 64.6715 185.989 64.9284 185.989 65.1893V79.6962H198.88V65.1893C198.881 64.9285 198.944 64.6715 199.065 64.4401L199.337 63.9039H185.533ZM198.144 65.1893V78.9617H186.726V65.1893C186.726 65.0037 186.704 64.8187 186.66 64.6384H198.21C198.166 64.8187 198.144 65.0037 198.144 65.1893ZM169.327 63.9039L169.599 64.4401C169.72 64.6715 169.783 64.9284 169.783 65.1893V79.6962H182.675V65.1893C182.675 64.9285 182.738 64.6715 182.859 64.4401L183.131 63.9039H169.327ZM181.938 65.1893V78.9617H170.52V65.1893C170.52 65.0037 170.498 64.8187 170.454 64.6384H182.004C181.96 64.8187 181.938 65.0037 181.938 65.1893ZM153.121 63.9039L153.393 64.4401C153.514 64.6715 153.577 64.9284 153.578 65.1893V79.6962H166.469V65.1893C166.469 64.9285 166.532 64.6715 166.653 64.4401L166.925 63.9039H153.121ZM165.732 65.1893V78.9617H154.314V65.1893C154.314 65.0037 154.292 64.8187 154.248 64.6384H165.798C165.754 64.8187 165.732 65.0037 165.732 65.1893ZM136.915 63.9039L137.187 64.4401C137.308 64.6715 137.371 64.9284 137.372 65.1893V79.6962H150.263V65.1893C150.263 64.9285 150.326 64.6715 150.447 64.4401L150.719 63.9039H136.915ZM149.526 65.1893V78.9617H138.108V65.1893C138.108 65.0037 138.086 64.8187 138.042 64.6384H149.592C149.548 64.8187 149.526 65.0037 149.526 65.1893ZM120.709 63.9039L120.981 64.4401C121.102 64.6715 121.165 64.9284 121.166 65.1893V79.6962H134.057V65.1893C134.057 64.9285 134.12 64.6715 134.241 64.4401L134.514 63.9039H120.709ZM133.32 65.1893V78.9617H121.902V65.1893C121.902 65.0037 121.88 64.8187 121.836 64.6384H133.386C133.342 64.8187 133.32 65.0037 133.32 65.1893ZM104.503 63.9039L104.776 64.4401C104.896 64.6715 104.96 64.9284 104.96 65.1893V79.6962H117.851V65.1893C117.851 64.9285 117.914 64.6715 118.035 64.4401L118.308 63.9039H104.503ZM117.114 65.1893V78.9617H105.696V65.1893C105.697 65.0037 105.674 64.8187 105.63 64.6384H117.181C117.136 64.8187 117.114 65.0037 117.114 65.1893ZM88.2969 63.9039L88.5696 64.4401C88.6904 64.6715 88.7536 64.9284 88.7537 65.1893V79.6962H101.645V65.1893C101.645 64.9285 101.708 64.6715 101.829 64.4401L102.102 63.9039H88.2969ZM100.908 65.1893V78.9617H89.4904V65.1893C89.4906 65.0037 89.4683 64.8187 89.424 64.6384H100.975C100.93 64.8187 100.908 65.0037 100.908 65.1893ZM217.944 63.9039L218.217 64.4401C218.338 64.6715 218.401 64.9284 218.401 65.1893V79.6962H231.292V65.1893C231.293 64.9285 231.356 64.6715 231.477 64.4401L231.749 63.9039H217.944ZM230.556 65.1893V78.9617H219.138V65.1893C219.138 65.0037 219.116 64.8187 219.072 64.6384H230.622C230.578 64.8187 230.556 65.0037 230.556 65.1893ZM201.739 63.9039L202.011 64.4401C202.132 64.6715 202.195 64.9284 202.195 65.1893V79.6962H215.086V65.1893C215.087 64.9285 215.15 64.6715 215.271 64.4401L215.543 63.9039H201.739ZM214.35 65.1893V78.9617H202.932V65.1893C202.932 65.0037 202.91 64.8187 202.866 64.6384H214.416C214.372 64.8187 214.35 65.0037 214.35 65.1893ZM185.533 63.9039L185.805 64.4401C185.926 64.6715 185.989 64.9284 185.989 65.1893V79.6962H198.88V65.1893C198.881 64.9285 198.944 64.6715 199.065 64.4401L199.337 63.9039H185.533ZM198.144 65.1893V78.9617H186.726V65.1893C186.726 65.0037 186.704 64.8187 186.66 64.6384H198.21C198.166 64.8187 198.144 65.0037 198.144 65.1893ZM169.327 63.9039L169.599 64.4401C169.72 64.6715 169.783 64.9284 169.783 65.1893V79.6962H182.675V65.1893C182.675 64.9285 182.738 64.6715 182.859 64.4401L183.131 63.9039H169.327ZM181.938 65.1893V78.9617H170.52V65.1893C170.52 65.0037 170.498 64.8187 170.454 64.6384H182.004C181.96 64.8187 181.938 65.0037 181.938 65.1893ZM153.121 63.9039L153.393 64.4401C153.514 64.6715 153.577 64.9284 153.578 65.1893V79.6962H166.469V65.1893C166.469 64.9285 166.532 64.6715 166.653 64.4401L166.925 63.9039H153.121ZM165.732 65.1893V78.9617H154.314V65.1893C154.314 65.0037 154.292 64.8187 154.248 64.6384H165.798C165.754 64.8187 165.732 65.0037 165.732 65.1893ZM136.915 63.9039L137.187 64.4401C137.308 64.6715 137.371 64.9284 137.372 65.1893V79.6962H150.263V65.1893C150.263 64.9285 150.326 64.6715 150.447 64.4401L150.719 63.9039H136.915ZM149.526 65.1893V78.9617H138.108V65.1893C138.108 65.0037 138.086 64.8187 138.042 64.6384H149.592C149.548 64.8187 149.526 65.0037 149.526 65.1893ZM120.709 63.9039L120.981 64.4401C121.102 64.6715 121.165 64.9284 121.166 65.1893V79.6962H134.057V65.1893C134.057 64.9285 134.12 64.6715 134.241 64.4401L134.514 63.9039H120.709ZM133.32 65.1893V78.9617H121.902V65.1893C121.902 65.0037 121.88 64.8187 121.836 64.6384H133.386C133.342 64.8187 133.32 65.0037 133.32 65.1893ZM104.503 63.9039L104.776 64.4401C104.896 64.6715 104.96 64.9284 104.96 65.1893V79.6962H117.851V65.1893C117.851 64.9285 117.914 64.6715 118.035 64.4401L118.308 63.9039H104.503ZM117.114 65.1893V78.9617H105.696V65.1893C105.697 65.0037 105.674 64.8187 105.63 64.6384H117.181C117.136 64.8187 117.114 65.0037 117.114 65.1893ZM88.2969 63.9039L88.5696 64.4401C88.6904 64.6715 88.7536 64.9284 88.7537 65.1893V79.6962H101.645V65.1893C101.645 64.9285 101.708 64.6715 101.829 64.4401L102.102 63.9039H88.2969ZM100.908 65.1893V78.9617H89.4904V65.1893C89.4906 65.0037 89.4683 64.8187 89.424 64.6384H100.975C100.93 64.8187 100.908 65.0037 100.908 65.1893ZM217.944 63.9039L218.217 64.4401C218.338 64.6715 218.401 64.9284 218.401 65.1893V79.6962H231.292V65.1893C231.293 64.9285 231.356 64.6715 231.477 64.4401L231.749 63.9039H217.944ZM230.556 65.1893V78.9617H219.138V65.1893C219.138 65.0037 219.116 64.8187 219.072 64.6384H230.622C230.578 64.8187 230.556 65.0037 230.556 65.1893ZM201.739 63.9039L202.011 64.4401C202.132 64.6715 202.195 64.9284 202.195 65.1893V79.6962H215.086V65.1893C215.087 64.9285 215.15 64.6715 215.271 64.4401L215.543 63.9039H201.739ZM214.35 65.1893V78.9617H202.932V65.1893C202.932 65.0037 202.91 64.8187 202.866 64.6384H214.416C214.372 64.8187 214.35 65.0037 214.35 65.1893ZM185.533 63.9039L185.805 64.4401C185.926 64.6715 185.989 64.9284 185.989 65.1893V79.6962H198.88V65.1893C198.881 64.9285 198.944 64.6715 199.065 64.4401L199.337 63.9039H185.533ZM198.144 65.1893V78.9617H186.726V65.1893C186.726 65.0037 186.704 64.8187 186.66 64.6384H198.21C198.166 64.8187 198.144 65.0037 198.144 65.1893ZM169.327 63.9039L169.599 64.4401C169.72 64.6715 169.783 64.9284 169.783 65.1893V79.6962H182.675V65.1893C182.675 64.9285 182.738 64.6715 182.859 64.4401L183.131 63.9039H169.327ZM181.938 65.1893V78.9617H170.52V65.1893C170.52 65.0037 170.498 64.8187 170.454 64.6384H182.004C181.96 64.8187 181.938 65.0037 181.938 65.1893ZM153.121 63.9039L153.393 64.4401C153.514 64.6715 153.577 64.9284 153.578 65.1893V79.6962H166.469V65.1893C166.469 64.9285 166.532 64.6715 166.653 64.4401L166.925 63.9039H153.121ZM165.732 65.1893V78.9617H154.314V65.1893C154.314 65.0037 154.292 64.8187 154.248 64.6384H165.798C165.754 64.8187 165.732 65.0037 165.732 65.1893ZM136.915 63.9039L137.187 64.4401C137.308 64.6715 137.371 64.9284 137.372 65.1893V79.6962H150.263V65.1893C150.263 64.9285 150.326 64.6715 150.447 64.4401L150.719 63.9039H136.915ZM149.526 65.1893V78.9617H138.108V65.1893C138.108 65.0037 138.086 64.8187 138.042 64.6384H149.592C149.548 64.8187 149.526 65.0037 149.526 65.1893ZM120.709 63.9039L120.981 64.4401C121.102 64.6715 121.165 64.9284 121.166 65.1893V79.6962H134.057V65.1893C134.057 64.9285 134.12 64.6715 134.241 64.4401L134.514 63.9039H120.709ZM133.32 65.1893V78.9617H121.902V65.1893C121.902 65.0037 121.88 64.8187 121.836 64.6384H133.386C133.342 64.8187 133.32 65.0037 133.32 65.1893ZM104.503 63.9039L104.776 64.4401C104.896 64.6715 104.96 64.9284 104.96 65.1893V79.6962H117.851V65.1893C117.851 64.9285 117.914 64.6715 118.035 64.4401L118.308 63.9039H104.503ZM117.114 65.1893V78.9617H105.696V65.1893C105.697 65.0037 105.674 64.8187 105.63 64.6384H117.181C117.136 64.8187 117.114 65.0037 117.114 65.1893ZM88.2969 63.9039L88.5696 64.4401C88.6904 64.6715 88.7536 64.9284 88.7537 65.1893V79.6962H101.645V65.1893C101.645 64.9285 101.708 64.6715 101.829 64.4401L102.102 63.9039H88.2969ZM100.908 65.1893V78.9617H89.4904V65.1893C89.4906 65.0037 89.4683 64.8187 89.424 64.6384H100.975C100.93 64.8187 100.908 65.0037 100.908 65.1893ZM217.944 63.9039L218.217 64.4401C218.338 64.6715 218.401 64.9284 218.401 65.1893V79.6962H231.292V65.1893C231.293 64.9285 231.356 64.6715 231.477 64.4401L231.749 63.9039H217.944ZM230.556 65.1893V78.9617H219.138V65.1893C219.138 65.0037 219.116 64.8187 219.072 64.6384H230.622C230.578 64.8187 230.556 65.0037 230.556 65.1893ZM202.011 64.4401C202.132 64.6715 202.195 64.9284 202.195 65.1893V79.6962H215.086V65.1893C215.087 64.9285 215.15 64.6715 215.271 64.4401L215.543 63.9039H201.739L202.011 64.4401ZM214.416 64.6384C214.372 64.8187 214.35 65.0037 214.35 65.1893V78.9617H202.932V65.1893C202.932 65.0037 202.91 64.8187 202.866 64.6384H214.416ZM185.805 64.4401C185.926 64.6715 185.989 64.9284 185.989 65.1893V79.6962H198.88V65.1893C198.881 64.9285 198.944 64.6715 199.065 64.4401L199.337 63.9039H185.533L185.805 64.4401ZM198.21 64.6384C198.166 64.8187 198.144 65.0037 198.144 65.1893V78.9617H186.726V65.1893C186.726 65.0037 186.704 64.8187 186.66 64.6384H198.21ZM169.599 64.4401C169.72 64.6715 169.783 64.9284 169.783 65.1893V79.6962H182.675V65.1893C182.675 64.9285 182.738 64.6715 182.859 64.4401L183.131 63.9039H169.327L169.599 64.4401ZM182.004 64.6384C181.96 64.8187 181.938 65.0037 181.938 65.1893V78.9617H170.52V65.1893C170.52 65.0037 170.498 64.8187 170.454 64.6384H182.004ZM153.393 64.4401C153.514 64.6715 153.577 64.9284 153.578 65.1893V79.6962H166.469V65.1893C166.469 64.9285 166.532 64.6715 166.653 64.4401L166.925 63.9039H153.121L153.393 64.4401ZM165.798 64.6384C165.754 64.8187 165.732 65.0037 165.732 65.1893V78.9617H154.314V65.1893C154.314 65.0037 154.292 64.8187 154.248 64.6384H165.798ZM137.187 64.4401C137.308 64.6715 137.371 64.9284 137.372 65.1893V79.6962H150.263V65.1893C150.263 64.9285 150.326 64.6715 150.447 64.4401L150.719 63.9039H136.915L137.187 64.4401ZM149.592 64.6384C149.548 64.8187 149.526 65.0037 149.526 65.1893V78.9617H138.108V65.1893C138.108 65.0037 138.086 64.8187 138.042 64.6384H149.592ZM120.981 64.4401C121.102 64.6715 121.165 64.9284 121.166 65.1893V79.6962H134.057V65.1893C134.057 64.9285 134.12 64.6715 134.241 64.4401L134.514 63.9039H120.709L120.981 64.4401ZM133.386 64.6384C133.342 64.8187 133.32 65.0037 133.32 65.1893V78.9617H121.902V65.1893C121.902 65.0037 121.88 64.8187 121.836 64.6384H133.386ZM104.776 64.4401C104.896 64.6715 104.96 64.9284 104.96 65.1893V79.6962H117.851V65.1893C117.851 64.9285 117.914 64.6715 118.035 64.4401L118.308 63.9039H104.503L104.776 64.4401ZM117.181 64.6384C117.136 64.8187 117.114 65.0037 117.114 65.1893V78.9617H105.696V65.1893C105.697 65.0037 105.674 64.8187 105.63 64.6384H117.181ZM88.5696 64.4401C88.6904 64.6715 88.7536 64.9284 88.7537 65.1893V79.6962H101.645V65.1893C101.645 64.9285 101.708 64.6715 101.829 64.4401L102.102 63.9039H88.2969L88.5696 64.4401ZM100.975 64.6384C100.93 64.8187 100.908 65.0037 100.908 65.1893V78.9617H89.4904V65.1893C89.4906 65.0037 89.4683 64.8187 89.424 64.6384H100.975ZM218.217 64.4401C218.338 64.6715 218.401 64.9284 218.401 65.1893V79.6962H231.292V65.1893C231.293 64.9285 231.356 64.6715 231.477 64.4401L231.749 63.9039H217.944L218.217 64.4401ZM230.622 64.6384C230.578 64.8187 230.556 65.0037 230.556 65.1893V78.9617H219.138V65.1893C219.138 65.0037 219.116 64.8187 219.072 64.6384H230.622ZM202.011 64.4401C202.132 64.6715 202.195 64.9284 202.195 65.1893V79.6962H215.086V65.1893C215.087 64.9285 215.15 64.6715 215.271 64.4401L215.543 63.9039H201.739L202.011 64.4401ZM214.416 64.6384C214.372 64.8187 214.35 65.0037 214.35 65.1893V78.9617H202.932V65.1893C202.932 65.0037 202.91 64.8187 202.866 64.6384H214.416ZM185.805 64.4401C185.926 64.6715 185.989 64.9284 185.989 65.1893V79.6962H198.88V65.1893C198.881 64.9285 198.944 64.6715 199.065 64.4401L199.337 63.9039H185.533L185.805 64.4401ZM198.21 64.6384C198.166 64.8187 198.144 65.0037 198.144 65.1893V78.9617H186.726V65.1893C186.726 65.0037 186.704 64.8187 186.66 64.6384H198.21ZM169.599 64.4401C169.72 64.6715 169.783 64.9284 169.783 65.1893V79.6962H182.675V65.1893C182.675 64.9285 182.738 64.6715 182.859 64.4401L183.131 63.9039H169.327L169.599 64.4401ZM182.004 64.6384C181.96 64.8187 181.938 65.0037 181.938 65.1893V78.9617H170.52V65.1893C170.52 65.0037 170.498 64.8187 170.454 64.6384H182.004ZM153.393 64.4401C153.514 64.6715 153.577 64.9284 153.578 65.1893V79.6962H166.469V65.1893C166.469 64.9285 166.532 64.6715 166.653 64.4401L166.925 63.9039H153.121L153.393 64.4401ZM165.798 64.6384C165.754 64.8187 165.732 65.0037 165.732 65.1893V78.9617H154.314V65.1893C154.314 65.0037 154.292 64.8187 154.248 64.6384H165.798ZM137.187 64.4401C137.308 64.6715 137.371 64.9284 137.372 65.1893V79.6962H150.263V65.1893C150.263 64.9285 150.326 64.6715 150.447 64.4401L150.719 63.9039H136.915L137.187 64.4401ZM149.592 64.6384C149.548 64.8187 149.526 65.0037 149.526 65.1893V78.9617H138.108V65.1893C138.108 65.0037 138.086 64.8187 138.042 64.6384H149.592ZM120.981 64.4401C121.102 64.6715 121.165 64.9284 121.166 65.1893V79.6962H134.057V65.1893C134.057 64.9285 134.12 64.6715 134.241 64.4401L134.514 63.9039H120.709L120.981 64.4401ZM133.386 64.6384C133.342 64.8187 133.32 65.0037 133.32 65.1893V78.9617H121.902V65.1893C121.902 65.0037 121.88 64.8187 121.836 64.6384H133.386ZM104.776 64.4401C104.896 64.6715 104.96 64.9284 104.96 65.1893V79.6962H117.851V65.1893C117.851 64.9285 117.914 64.6715 118.035 64.4401L118.308 63.9039H104.503L104.776 64.4401ZM117.181 64.6384C117.136 64.8187 117.114 65.0037 117.114 65.1893V78.9617H105.696V65.1893C105.697 65.0037 105.674 64.8187 105.63 64.6384H117.181ZM88.5696 64.4401C88.6904 64.6715 88.7536 64.9284 88.7537 65.1893V79.6962H101.645V65.1893C101.645 64.9285 101.708 64.6715 101.829 64.4401L102.102 63.9039H88.2969L88.5696 64.4401ZM100.975 64.6384C100.93 64.8187 100.908 65.0037 100.908 65.1893V78.9617H89.4904V65.1893C89.4906 65.0037 89.4683 64.8187 89.424 64.6384H100.975ZM246.025 81.8998H241.635C241.393 81.0549 240.882 80.3115 240.179 79.7815C239.476 79.2515 238.619 78.9638 237.738 78.9617H235.344V65.1893C235.345 64.8937 235.289 64.6006 235.178 64.3262C235.595 64.0812 235.92 63.706 236.102 63.2586C236.285 62.8111 236.314 62.3163 236.186 61.8505C236.059 61.3847 235.781 60.9738 235.395 60.6811C235.01 60.3885 234.539 60.2304 234.055 60.2313H85.9914C85.507 60.2304 85.0359 60.3885 84.6506 60.6811C84.2654 60.9738 83.9874 61.3847 83.8596 61.8505C83.7319 62.3163 83.7614 62.8111 83.9436 63.2586C84.1259 63.706 84.4507 64.0812 84.8681 64.3262C84.7576 64.6006 84.7013 64.8937 84.7022 65.1893V78.9617H82.3082C81.427 78.9638 80.5703 79.2515 79.8674 79.7815C79.1646 80.3115 78.6535 81.0549 78.4114 81.8998H73.6527C72.774 81.9011 71.9316 82.2498 71.3103 82.8694C70.6889 83.489 70.3392 84.3289 70.3379 85.2052V279.12C70.3398 279.996 70.6897 280.836 71.3109 281.456C71.9321 282.075 72.7742 282.424 73.6527 282.426H246.025C246.904 282.425 247.746 282.076 248.368 281.456C248.989 280.837 249.339 279.997 249.34 279.12V85.2052C249.339 84.3289 248.989 83.489 248.368 82.8694C247.746 82.2498 246.904 81.9011 246.025 81.8998ZM248.603 279.12C248.603 279.645 248.441 280.157 248.14 280.588C247.839 281.019 247.414 281.347 246.92 281.53C246.634 281.638 246.331 281.693 246.025 281.691H73.6527C73.3469 281.693 73.0435 281.638 72.7577 281.53C72.2642 281.347 71.8384 281.019 71.5376 280.588C71.2367 280.157 71.0751 279.645 71.0745 279.12V85.2052C71.0753 84.5236 71.3472 83.8701 71.8305 83.3882C72.3139 82.9062 72.9692 82.6351 73.6527 82.6343H79.0007L79.0597 82.3405C79.2146 81.595 79.622 80.9252 80.2135 80.4437C80.805 79.9622 81.5446 79.6983 82.3082 79.6962H85.4389V65.1893C85.439 64.8904 85.5205 64.5972 85.6747 64.3409L85.9029 63.9627L85.4867 63.8084C85.1615 63.6908 84.8882 63.4626 84.7152 63.1639C84.5421 62.8652 84.4803 62.5152 84.5406 62.1755C84.6009 61.8359 84.7794 61.5283 85.0448 61.307C85.3102 61.0857 85.6454 60.9649 85.9914 60.9658H234.055C234.401 60.9649 234.736 61.0857 235.001 61.307C235.267 61.5283 235.445 61.8359 235.505 62.1755C235.566 62.5152 235.504 62.8652 235.331 63.1639C235.158 63.4626 234.885 63.6908 234.559 63.8084L234.143 63.9627L234.371 64.3409C234.526 64.5972 234.607 64.8904 234.607 65.1893V79.6962H237.738C238.501 79.6982 239.241 79.9622 239.833 80.4437C240.424 80.9252 240.832 81.5949 240.986 82.3405L241.045 82.6343H246.025C246.709 82.6351 247.364 82.9062 247.847 83.3882C248.331 83.8701 248.602 84.5236 248.603 85.2052L248.603 279.12ZM88.2969 63.9039L88.5696 64.4401C88.6904 64.6715 88.7536 64.9284 88.7537 65.1893V79.6962H101.645V65.1893C101.645 64.9285 101.708 64.6715 101.829 64.4401L102.102 63.9039H88.2969ZM100.908 65.1893V78.9617H89.4904V65.1893C89.4906 65.0037 89.4683 64.8187 89.424 64.6384H100.975C100.93 64.8187 100.908 65.0037 100.908 65.1893ZM104.503 63.9039L104.776 64.4401C104.896 64.6715 104.96 64.9284 104.96 65.1893V79.6962H117.851V65.1893C117.851 64.9285 117.914 64.6715 118.035 64.4401L118.308 63.9039H104.503ZM117.114 65.1893V78.9617H105.696V65.1893C105.697 65.0037 105.674 64.8187 105.63 64.6384H117.181C117.136 64.8187 117.114 65.0037 117.114 65.1893ZM120.709 63.9039L120.981 64.4401C121.102 64.6715 121.165 64.9284 121.166 65.1893V79.6962H134.057V65.1893C134.057 64.9285 134.12 64.6715 134.241 64.4401L134.514 63.9039H120.709ZM133.32 65.1893V78.9617H121.902V65.1893C121.902 65.0037 121.88 64.8187 121.836 64.6384H133.386C133.342 64.8187 133.32 65.0037 133.32 65.1893ZM136.915 63.9039L137.187 64.4401C137.308 64.6715 137.371 64.9284 137.372 65.1893V79.6962H150.263V65.1893C150.263 64.9285 150.326 64.6715 150.447 64.4401L150.719 63.9039H136.915ZM149.526 65.1893V78.9617H138.108V65.1893C138.108 65.0037 138.086 64.8187 138.042 64.6384H149.592C149.548 64.8187 149.526 65.0037 149.526 65.1893ZM153.121 63.9039L153.393 64.4401C153.514 64.6715 153.577 64.9284 153.578 65.1893V79.6962H166.469V65.1893C166.469 64.9285 166.532 64.6715 166.653 64.4401L166.925 63.9039H153.121ZM165.732 65.1893V78.9617H154.314V65.1893C154.314 65.0037 154.292 64.8187 154.248 64.6384H165.798C165.754 64.8187 165.732 65.0037 165.732 65.1893ZM169.327 63.9039L169.599 64.4401C169.72 64.6715 169.783 64.9284 169.783 65.1893V79.6962H182.675V65.1893C182.675 64.9285 182.738 64.6715 182.859 64.4401L183.131 63.9039H169.327ZM181.938 65.1893V78.9617H170.52V65.1893C170.52 65.0037 170.498 64.8187 170.454 64.6384H182.004C181.96 64.8187 181.938 65.0037 181.938 65.1893ZM185.533 63.9039L185.805 64.4401C185.926 64.6715 185.989 64.9284 185.989 65.1893V79.6962H198.88V65.1893C198.881 64.9285 198.944 64.6715 199.065 64.4401L199.337 63.9039H185.533ZM198.144 65.1893V78.9617H186.726V65.1893C186.726 65.0037 186.704 64.8187 186.66 64.6384H198.21C198.166 64.8187 198.144 65.0037 198.144 65.1893ZM201.739 63.9039L202.011 64.4401C202.132 64.6715 202.195 64.9284 202.195 65.1893V79.6962H215.086V65.1893C215.087 64.9285 215.15 64.6715 215.271 64.4401L215.543 63.9039H201.739ZM214.35 65.1893V78.9617H202.932V65.1893C202.932 65.0037 202.91 64.8187 202.866 64.6384H214.416C214.372 64.8187 214.35 65.0037 214.35 65.1893ZM217.944 63.9039L218.217 64.4401C218.338 64.6715 218.401 64.9284 218.401 65.1893V79.6962H231.292V65.1893C231.293 64.9285 231.356 64.6715 231.477 64.4401L231.749 63.9039H217.944ZM230.556 65.1893V78.9617H219.138V65.1893C219.138 65.0037 219.116 64.8187 219.072 64.6384H230.622C230.578 64.8187 230.556 65.0037 230.556 65.1893ZM88.2969 63.9039L88.5696 64.4401C88.6904 64.6715 88.7536 64.9284 88.7537 65.1893V79.6962H101.645V65.1893C101.645 64.9285 101.708 64.6715 101.829 64.4401L102.102 63.9039H88.2969ZM100.908 65.1893V78.9617H89.4904V65.1893C89.4906 65.0037 89.4683 64.8187 89.424 64.6384H100.975C100.93 64.8187 100.908 65.0037 100.908 65.1893ZM104.503 63.9039L104.776 64.4401C104.896 64.6715 104.96 64.9284 104.96 65.1893V79.6962H117.851V65.1893C117.851 64.9285 117.914 64.6715 118.035 64.4401L118.308 63.9039H104.503ZM117.114 65.1893V78.9617H105.696V65.1893C105.697 65.0037 105.674 64.8187 105.63 64.6384H117.181C117.136 64.8187 117.114 65.0037 117.114 65.1893ZM120.709 63.9039L120.981 64.4401C121.102 64.6715 121.165 64.9284 121.166 65.1893V79.6962H134.057V65.1893C134.057 64.9285 134.12 64.6715 134.241 64.4401L134.514 63.9039H120.709ZM133.32 65.1893V78.9617H121.902V65.1893C121.902 65.0037 121.88 64.8187 121.836 64.6384H133.386C133.342 64.8187 133.32 65.0037 133.32 65.1893ZM136.915 63.9039L137.187 64.4401C137.308 64.6715 137.371 64.9284 137.372 65.1893V79.6962H150.263V65.1893C150.263 64.9285 150.326 64.6715 150.447 64.4401L150.719 63.9039H136.915ZM149.526 65.1893V78.9617H138.108V65.1893C138.108 65.0037 138.086 64.8187 138.042 64.6384H149.592C149.548 64.8187 149.526 65.0037 149.526 65.1893ZM153.121 63.9039L153.393 64.4401C153.514 64.6715 153.577 64.9284 153.578 65.1893V79.6962H166.469V65.1893C166.469 64.9285 166.532 64.6715 166.653 64.4401L166.925 63.9039H153.121ZM165.732 65.1893V78.9617H154.314V65.1893C154.314 65.0037 154.292 64.8187 154.248 64.6384H165.798C165.754 64.8187 165.732 65.0037 165.732 65.1893ZM169.327 63.9039L169.599 64.4401C169.72 64.6715 169.783 64.9284 169.783 65.1893V79.6962H182.675V65.1893C182.675 64.9285 182.738 64.6715 182.859 64.4401L183.131 63.9039H169.327ZM181.938 65.1893V78.9617H170.52V65.1893C170.52 65.0037 170.498 64.8187 170.454 64.6384H182.004C181.96 64.8187 181.938 65.0037 181.938 65.1893ZM185.533 63.9039L185.805 64.4401C185.926 64.6715 185.989 64.9284 185.989 65.1893V79.6962H198.88V65.1893C198.881 64.9285 198.944 64.6715 199.065 64.4401L199.337 63.9039H185.533ZM198.144 65.1893V78.9617H186.726V65.1893C186.726 65.0037 186.704 64.8187 186.66 64.6384H198.21C198.166 64.8187 198.144 65.0037 198.144 65.1893ZM201.739 63.9039L202.011 64.4401C202.132 64.6715 202.195 64.9284 202.195 65.1893V79.6962H215.086V65.1893C215.087 64.9285 215.15 64.6715 215.271 64.4401L215.543 63.9039H201.739ZM214.35 65.1893V78.9617H202.932V65.1893C202.932 65.0037 202.91 64.8187 202.866 64.6384H214.416C214.372 64.8187 214.35 65.0037 214.35 65.1893ZM217.944 63.9039L218.217 64.4401C218.338 64.6715 218.401 64.9284 218.401 65.1893V79.6962H231.292V65.1893C231.293 64.9285 231.356 64.6715 231.477 64.4401L231.749 63.9039H217.944ZM230.556 65.1893V78.9617H219.138V65.1893C219.138 65.0037 219.116 64.8187 219.072 64.6384H230.622C230.578 64.8187 230.556 65.0037 230.556 65.1893ZM88.2969 63.9039L88.5696 64.4401C88.6904 64.6715 88.7536 64.9284 88.7537 65.1893V79.6962H101.645V65.1893C101.645 64.9285 101.708 64.6715 101.829 64.4401L102.102 63.9039H88.2969ZM100.908 65.1893V78.9617H89.4904V65.1893C89.4906 65.0037 89.4683 64.8187 89.424 64.6384H100.975C100.93 64.8187 100.908 65.0037 100.908 65.1893ZM104.503 63.9039L104.776 64.4401C104.896 64.6715 104.96 64.9284 104.96 65.1893V79.6962H117.851V65.1893C117.851 64.9285 117.914 64.6715 118.035 64.4401L118.308 63.9039H104.503ZM117.114 65.1893V78.9617H105.696V65.1893C105.697 65.0037 105.674 64.8187 105.63 64.6384H117.181C117.136 64.8187 117.114 65.0037 117.114 65.1893ZM120.709 63.9039L120.981 64.4401C121.102 64.6715 121.165 64.9284 121.166 65.1893V79.6962H134.057V65.1893C134.057 64.9285 134.12 64.6715 134.241 64.4401L134.514 63.9039H120.709ZM133.32 65.1893V78.9617H121.902V65.1893C121.902 65.0037 121.88 64.8187 121.836 64.6384H133.386C133.342 64.8187 133.32 65.0037 133.32 65.1893ZM136.915 63.9039L137.187 64.4401C137.308 64.6715 137.371 64.9284 137.372 65.1893V79.6962H150.263V65.1893C150.263 64.9285 150.326 64.6715 150.447 64.4401L150.719 63.9039H136.915ZM149.526 65.1893V78.9617H138.108V65.1893C138.108 65.0037 138.086 64.8187 138.042 64.6384H149.592C149.548 64.8187 149.526 65.0037 149.526 65.1893ZM153.121 63.9039L153.393 64.4401C153.514 64.6715 153.577 64.9284 153.578 65.1893V79.6962H166.469V65.1893C166.469 64.9285 166.532 64.6715 166.653 64.4401L166.925 63.9039H153.121ZM165.732 65.1893V78.9617H154.314V65.1893C154.314 65.0037 154.292 64.8187 154.248 64.6384H165.798C165.754 64.8187 165.732 65.0037 165.732 65.1893ZM169.327 63.9039L169.599 64.4401C169.72 64.6715 169.783 64.9284 169.783 65.1893V79.6962H182.675V65.1893C182.675 64.9285 182.738 64.6715 182.859 64.4401L183.131 63.9039H169.327ZM181.938 65.1893V78.9617H170.52V65.1893C170.52 65.0037 170.498 64.8187 170.454 64.6384H182.004C181.96 64.8187 181.938 65.0037 181.938 65.1893ZM185.533 63.9039L185.805 64.4401C185.926 64.6715 185.989 64.9284 185.989 65.1893V79.6962H198.88V65.1893C198.881 64.9285 198.944 64.6715 199.065 64.4401L199.337 63.9039H185.533ZM198.144 65.1893V78.9617H186.726V65.1893C186.726 65.0037 186.704 64.8187 186.66 64.6384H198.21C198.166 64.8187 198.144 65.0037 198.144 65.1893ZM201.739 63.9039L202.011 64.4401C202.132 64.6715 202.195 64.9284 202.195 65.1893V79.6962H215.086V65.1893C215.087 64.9285 215.15 64.6715 215.271 64.4401L215.543 63.9039H201.739ZM214.35 65.1893V78.9617H202.932V65.1893C202.932 65.0037 202.91 64.8187 202.866 64.6384H214.416C214.372 64.8187 214.35 65.0037 214.35 65.1893ZM217.944 63.9039L218.217 64.4401C218.338 64.6715 218.401 64.9284 218.401 65.1893V79.6962H231.292V65.1893C231.293 64.9285 231.356 64.6715 231.477 64.4401L231.749 63.9039H217.944ZM230.556 65.1893V78.9617H219.138V65.1893C219.138 65.0037 219.116 64.8187 219.072 64.6384H230.622C230.578 64.8187 230.556 65.0037 230.556 65.1893ZM88.2969 63.9039L88.5696 64.4401C88.6904 64.6715 88.7536 64.9284 88.7537 65.1893V79.6962H101.645V65.1893C101.645 64.9285 101.708 64.6715 101.829 64.4401L102.102 63.9039H88.2969ZM100.908 65.1893V78.9617H89.4904V65.1893C89.4906 65.0037 89.4683 64.8187 89.424 64.6384H100.975C100.93 64.8187 100.908 65.0037 100.908 65.1893ZM104.503 63.9039L104.776 64.4401C104.896 64.6715 104.96 64.9284 104.96 65.1893V79.6962H117.851V65.1893C117.851 64.9285 117.914 64.6715 118.035 64.4401L118.308 63.9039H104.503ZM117.114 65.1893V78.9617H105.696V65.1893C105.697 65.0037 105.674 64.8187 105.63 64.6384H117.181C117.136 64.8187 117.114 65.0037 117.114 65.1893ZM120.709 63.9039L120.981 64.4401C121.102 64.6715 121.165 64.9284 121.166 65.1893V79.6962H134.057V65.1893C134.057 64.9285 134.12 64.6715 134.241 64.4401L134.514 63.9039H120.709ZM133.32 65.1893V78.9617H121.902V65.1893C121.902 65.0037 121.88 64.8187 121.836 64.6384H133.386C133.342 64.8187 133.32 65.0037 133.32 65.1893ZM136.915 63.9039L137.187 64.4401C137.308 64.6715 137.371 64.9284 137.372 65.1893V79.6962H150.263V65.1893C150.263 64.9285 150.326 64.6715 150.447 64.4401L150.719 63.9039H136.915ZM149.526 65.1893V78.9617H138.108V65.1893C138.108 65.0037 138.086 64.8187 138.042 64.6384H149.592C149.548 64.8187 149.526 65.0037 149.526 65.1893ZM153.121 63.9039L153.393 64.4401C153.514 64.6715 153.577 64.9284 153.578 65.1893V79.6962H166.469V65.1893C166.469 64.9285 166.532 64.6715 166.653 64.4401L166.925 63.9039H153.121ZM165.732 65.1893V78.9617H154.314V65.1893C154.314 65.0037 154.292 64.8187 154.248 64.6384H165.798C165.754 64.8187 165.732 65.0037 165.732 65.1893ZM169.327 63.9039L169.599 64.4401C169.72 64.6715 169.783 64.9284 169.783 65.1893V79.6962H182.675V65.1893C182.675 64.9285 182.738 64.6715 182.859 64.4401L183.131 63.9039H169.327ZM181.938 65.1893V78.9617H170.52V65.1893C170.52 65.0037 170.498 64.8187 170.454 64.6384H182.004C181.96 64.8187 181.938 65.0037 181.938 65.1893ZM185.533 63.9039L185.805 64.4401C185.926 64.6715 185.989 64.9284 185.989 65.1893V79.6962H198.88V65.1893C198.881 64.9285 198.944 64.6715 199.065 64.4401L199.337 63.9039H185.533ZM198.144 65.1893V78.9617H186.726V65.1893C186.726 65.0037 186.704 64.8187 186.66 64.6384H198.21C198.166 64.8187 198.144 65.0037 198.144 65.1893ZM201.739 63.9039L202.011 64.4401C202.132 64.6715 202.195 64.9284 202.195 65.1893V79.6962H215.086V65.1893C215.087 64.9285 215.15 64.6715 215.271 64.4401L215.543 63.9039H201.739ZM214.35 65.1893V78.9617H202.932V65.1893C202.932 65.0037 202.91 64.8187 202.866 64.6384H214.416C214.372 64.8187 214.35 65.0037 214.35 65.1893ZM217.944 63.9039L218.217 64.4401C218.338 64.6715 218.401 64.9284 218.401 65.1893V79.6962H231.292V65.1893C231.293 64.9285 231.356 64.6715 231.477 64.4401L231.749 63.9039H217.944ZM230.556 65.1893V78.9617H219.138V65.1893C219.138 65.0037 219.116 64.8187 219.072 64.6384H230.622C230.578 64.8187 230.556 65.0037 230.556 65.1893Z" fill="white"/>
<path d="M132.087 128.175H104.926C104.354 128.174 103.805 127.948 103.401 127.544C102.996 127.141 102.769 126.594 102.768 126.024V111.596C102.769 111.026 102.996 110.479 103.401 110.075C103.805 109.672 104.354 109.445 104.926 109.445H132.087C132.659 109.445 133.207 109.672 133.612 110.075C134.016 110.479 134.244 111.026 134.244 111.596V126.024C134.244 126.594 134.016 127.141 133.612 127.544C133.207 127.948 132.659 128.174 132.087 128.175Z" fill="#F8F8F8"/>
<path d="M173.419 128.175H146.258C145.686 128.174 145.138 127.948 144.733 127.544C144.329 127.141 144.101 126.594 144.101 126.024V111.596C144.101 111.026 144.329 110.479 144.733 110.075C145.138 109.672 145.686 109.445 146.258 109.445H173.419C173.991 109.445 174.54 109.672 174.944 110.075C175.349 110.479 175.576 111.026 175.577 111.596V126.024C175.576 126.594 175.349 127.141 174.944 127.544C174.54 127.948 173.991 128.174 173.419 128.175Z" fill="#F8F8F8"/>
<path d="M214.752 128.175H187.591C187.019 128.174 186.47 127.948 186.066 127.544C185.661 127.141 185.434 126.594 185.433 126.024V111.596C185.434 111.026 185.661 110.479 186.066 110.075C186.47 109.672 187.019 109.445 187.591 109.445H214.752C215.324 109.445 215.872 109.672 216.277 110.075C216.681 110.479 216.909 111.026 216.909 111.596V126.024C216.909 126.594 216.681 127.141 216.277 127.544C215.872 127.948 215.324 128.174 214.752 128.175Z" fill="#F8F8F8"/>
<path d="M132.087 176.287H104.926C104.354 176.286 103.805 176.059 103.401 175.656C102.996 175.252 102.769 174.706 102.768 174.135V159.708C102.769 159.137 102.996 158.59 103.401 158.187C103.805 157.784 104.354 157.557 104.926 157.556H132.087C132.659 157.557 133.207 157.784 133.612 158.187C134.016 158.59 134.244 159.137 134.244 159.708V174.135C134.244 174.706 134.016 175.252 133.612 175.656C133.207 176.059 132.659 176.286 132.087 176.287Z" fill="#F8F8F8"/>
<path d="M173.419 176.287H146.258C145.686 176.286 145.138 176.059 144.733 175.656C144.329 175.252 144.101 174.706 144.101 174.135V159.708C144.101 159.137 144.329 158.59 144.733 158.187C145.138 157.784 145.686 157.557 146.258 157.556H173.419C173.991 157.557 174.54 157.784 174.944 158.187C175.349 158.59 175.576 159.137 175.577 159.708V174.135C175.576 174.706 175.349 175.252 174.944 175.656C174.54 176.059 173.991 176.286 173.419 176.287Z" fill="#F8F8F8"/>
<path d="M214.752 176.287H187.591C187.019 176.286 186.47 176.059 186.066 175.656C185.661 175.252 185.434 174.706 185.433 174.135V159.708C185.434 159.137 185.661 158.59 186.066 158.187C186.47 157.784 187.019 157.557 187.591 157.556H214.752C215.324 157.557 215.872 157.784 216.277 158.187C216.681 158.59 216.909 159.137 216.909 159.708V174.135C216.909 174.706 216.681 175.252 216.277 175.656C215.872 176.059 215.324 176.286 214.752 176.287Z" fill="#F8F8F8"/>
<path d="M132.087 224.398H104.926C104.354 224.397 103.805 224.171 103.401 223.767C102.996 223.364 102.769 222.817 102.768 222.247V207.819C102.769 207.249 102.996 206.702 103.401 206.299C103.805 205.895 104.354 205.668 104.926 205.668H132.087C132.659 205.668 133.207 205.895 133.612 206.299C134.016 206.702 134.244 207.249 134.244 207.819V222.247C134.244 222.817 134.016 223.364 133.612 223.767C133.207 224.171 132.659 224.397 132.087 224.398Z" fill="#F8F8F8"/>
<path d="M173.419 224.398H146.258C145.686 224.397 145.138 224.171 144.733 223.767C144.329 223.364 144.101 222.817 144.101 222.247V207.819C144.101 207.249 144.329 206.702 144.733 206.299C145.138 205.895 145.686 205.668 146.258 205.668H173.419C173.991 205.668 174.54 205.895 174.944 206.299C175.349 206.702 175.576 207.249 175.577 207.819V222.247C175.576 222.817 175.349 223.364 174.944 223.767C174.54 224.171 173.991 224.397 173.419 224.398Z" fill="#F8F8F8"/>
<path d="M214.752 224.398H187.591C187.019 224.397 186.47 224.171 186.066 223.767C185.661 223.364 185.434 222.817 185.433 222.247V207.819C185.434 207.249 185.661 206.702 186.066 206.299C186.47 205.895 187.019 205.668 187.591 205.668H214.752C215.324 205.668 215.872 205.895 216.277 206.299C216.681 206.702 216.909 207.249 216.909 207.819V222.247C216.909 222.817 216.681 223.364 216.277 223.767C215.872 224.171 215.324 224.397 214.752 224.398Z" fill="#F8F8F8"/>
<path d="M127.69 130.026H96.2252C95.4649 130.025 94.7359 129.724 94.1983 129.188C93.6607 128.652 93.3583 127.925 93.3574 127.166V110.453C93.3583 109.695 93.6607 108.968 94.1983 108.432C94.7359 107.896 95.4649 107.594 96.2252 107.593H127.69C128.45 107.594 129.179 107.896 129.717 108.432C130.254 108.968 130.557 109.695 130.557 110.453V127.166C130.557 127.925 130.254 128.652 129.717 129.188C129.179 129.724 128.45 130.025 127.69 130.026ZM96.2252 108.328C95.6602 108.329 95.1185 108.553 94.7189 108.951C94.3194 109.35 94.0947 109.89 94.0941 110.453V127.166C94.0947 127.73 94.3194 128.27 94.7189 128.669C95.1185 129.067 95.6602 129.291 96.2252 129.292H127.69C128.255 129.291 128.796 129.067 129.196 128.669C129.595 128.27 129.82 127.73 129.821 127.166V110.453C129.82 109.89 129.595 109.349 129.196 108.951C128.796 108.553 128.255 108.329 127.69 108.328H96.2252Z" fill="#3F3D56"/>
<path d="M175.571 130.026H144.107C143.346 130.025 142.617 129.724 142.08 129.188C141.542 128.652 141.24 127.925 141.239 127.166V110.453C141.24 109.695 141.542 108.968 142.08 108.432C142.617 107.896 143.346 107.594 144.107 107.593H175.571C176.331 107.594 177.06 107.896 177.598 108.432C178.136 108.968 178.438 109.695 178.439 110.453V127.166C178.438 127.925 178.136 128.652 177.598 129.188C177.06 129.724 176.331 130.025 175.571 130.026ZM144.107 108.328C143.542 108.329 143 108.553 142.6 108.951C142.201 109.349 141.976 109.89 141.975 110.453V127.166C141.976 127.73 142.201 128.27 142.6 128.669C143 129.067 143.542 129.291 144.107 129.292H175.571C176.136 129.291 176.678 129.067 177.077 128.669C177.477 128.27 177.702 127.73 177.702 127.166V110.453C177.702 109.89 177.477 109.349 177.077 108.951C176.678 108.553 176.136 108.329 175.571 108.328H144.107Z" fill="#3F3D56"/>
<path d="M223.452 130.026H191.987C191.227 130.025 190.498 129.724 189.961 129.188C189.423 128.652 189.12 127.925 189.12 127.166V110.453C189.12 109.695 189.423 108.968 189.961 108.432C190.498 107.896 191.227 107.594 191.987 107.593H223.452C224.212 107.594 224.941 107.896 225.479 108.432C226.016 108.968 226.319 109.695 226.32 110.453V127.166C226.319 127.925 226.016 128.652 225.479 129.188C224.941 129.724 224.212 130.025 223.452 130.026ZM191.987 108.328C191.422 108.329 190.881 108.553 190.481 108.951C190.082 109.349 189.857 109.89 189.856 110.453V127.166C189.857 127.73 190.082 128.27 190.481 128.669C190.881 129.067 191.422 129.291 191.987 129.292H223.452C224.017 129.291 224.559 129.067 224.958 128.669C225.358 128.27 225.582 127.73 225.583 127.166V110.453C225.582 109.89 225.358 109.349 224.958 108.951C224.559 108.553 224.017 108.329 223.452 108.328H191.987Z" fill="#3F3D56"/>
<path d="M127.69 178.138H96.2252C95.4649 178.137 94.7359 177.835 94.1983 177.299C93.6607 176.763 93.3583 176.036 93.3574 175.278V158.565C93.3583 157.807 93.6607 157.08 94.1983 156.544C94.7359 156.007 95.4649 155.706 96.2252 155.705H127.69C128.45 155.706 129.179 156.007 129.717 156.543C130.254 157.08 130.557 157.806 130.557 158.565V175.278C130.557 176.036 130.254 176.763 129.717 177.299C129.179 177.835 128.45 178.137 127.69 178.138ZM96.2252 156.439C95.6602 156.44 95.1185 156.664 94.7189 157.063C94.3194 157.461 94.0947 158.001 94.0941 158.565V175.278C94.0947 175.841 94.3194 176.382 94.7189 176.78C95.1185 177.178 95.6602 177.403 96.2252 177.403H127.69C128.255 177.403 128.796 177.179 129.196 176.78C129.595 176.382 129.82 175.841 129.821 175.278V158.565C129.82 158.001 129.595 157.461 129.196 157.063C128.796 156.664 128.255 156.44 127.69 156.439H96.2252Z" fill="#3F3D56"/>
<path d="M175.571 178.138H144.107C143.346 178.137 142.617 177.835 142.08 177.299C141.542 176.763 141.24 176.036 141.239 175.278V158.565C141.24 157.806 141.542 157.08 142.08 156.543C142.617 156.007 143.346 155.706 144.107 155.705H175.571C176.331 155.706 177.06 156.007 177.598 156.543C178.136 157.08 178.438 157.806 178.439 158.565V175.278C178.438 176.036 178.136 176.763 177.598 177.299C177.06 177.835 176.331 178.137 175.571 178.138ZM144.107 156.439C143.542 156.44 143 156.664 142.6 157.063C142.201 157.461 141.976 158.001 141.975 158.565V175.278C141.976 175.841 142.201 176.382 142.6 176.78C143 177.179 143.542 177.403 144.107 177.403H175.571C176.136 177.403 176.678 177.179 177.077 176.78C177.477 176.382 177.702 175.841 177.702 175.278V158.565C177.702 158.001 177.477 157.461 177.077 157.063C176.678 156.664 176.136 156.44 175.571 156.439H144.107Z" fill="#3F3D56"/>
<path d="M223.452 178.138H191.987C191.227 178.137 190.498 177.835 189.961 177.299C189.423 176.763 189.12 176.036 189.12 175.278V158.565C189.12 157.806 189.423 157.08 189.961 156.543C190.498 156.007 191.227 155.706 191.987 155.705H223.452C224.212 155.706 224.941 156.007 225.479 156.543C226.016 157.08 226.319 157.806 226.32 158.565V175.278C226.319 176.036 226.016 176.763 225.479 177.299C224.941 177.835 224.212 178.137 223.452 178.138ZM191.987 156.439C191.422 156.44 190.881 156.664 190.481 157.063C190.082 157.461 189.857 158.001 189.856 158.565V175.278C189.857 175.841 190.082 176.382 190.481 176.78C190.881 177.179 191.422 177.403 191.987 177.403H223.452C224.017 177.403 224.559 177.179 224.958 176.78C225.358 176.382 225.582 175.841 225.583 175.278V158.565C225.582 158.001 225.358 157.461 224.958 157.063C224.559 156.664 224.017 156.44 223.452 156.439H191.987Z" fill="#3F3D56"/>
<path d="M127.69 226.249H96.2252C95.4649 226.248 94.7359 225.947 94.1983 225.411C93.6607 224.875 93.3583 224.148 93.3574 223.39V206.676C93.3583 205.918 93.6607 205.191 94.1983 204.655C94.7359 204.119 95.4649 203.817 96.2252 203.816H127.69C128.45 203.817 129.179 204.119 129.717 204.655C130.254 205.191 130.557 205.918 130.557 206.676V223.39C130.557 224.148 130.254 224.875 129.717 225.411C129.179 225.947 128.45 226.248 127.69 226.249ZM96.2252 204.551C95.6602 204.552 95.1185 204.776 94.7189 205.174C94.3194 205.573 94.0947 206.113 94.0941 206.676V223.39C94.0947 223.953 94.3194 224.493 94.7189 224.892C95.1185 225.29 95.6602 225.514 96.2252 225.515H127.69C128.255 225.514 128.796 225.29 129.196 224.892C129.595 224.493 129.82 223.953 129.821 223.39V206.676C129.82 206.113 129.595 205.573 129.196 205.174C128.796 204.776 128.255 204.552 127.69 204.551H96.2252Z" fill="#3F3D56"/>
<path d="M175.571 226.249H144.107C143.346 226.248 142.617 225.947 142.08 225.411C141.542 224.875 141.24 224.148 141.239 223.39V206.676C141.24 205.918 141.542 205.191 142.08 204.655C142.617 204.119 143.346 203.817 144.107 203.816H175.571C176.331 203.817 177.06 204.119 177.598 204.655C178.136 205.191 178.438 205.918 178.439 206.676V223.39C178.438 224.148 178.136 224.875 177.598 225.411C177.06 225.947 176.331 226.248 175.571 226.249ZM144.107 204.551C143.542 204.552 143 204.776 142.6 205.174C142.201 205.573 141.976 206.113 141.975 206.676V223.39C141.976 223.953 142.201 224.493 142.6 224.892C143 225.29 143.542 225.514 144.107 225.515H175.571C176.136 225.514 176.678 225.29 177.077 224.892C177.477 224.493 177.702 223.953 177.702 223.39V206.676C177.702 206.113 177.477 205.573 177.077 205.174C176.678 204.776 176.136 204.552 175.571 204.551H144.107Z" fill="#3F3D56"/>
<path d="M223.452 226.249H191.987C191.227 226.248 190.498 225.947 189.961 225.411C189.423 224.875 189.12 224.148 189.12 223.39V206.676C189.12 205.918 189.423 205.191 189.961 204.655C190.498 204.119 191.227 203.817 191.987 203.816H223.452C224.212 203.817 224.941 204.119 225.479 204.655C226.016 205.191 226.319 205.918 226.32 206.676V223.39C226.319 224.148 226.016 224.875 225.479 225.411C224.941 225.947 224.212 226.248 223.452 226.249ZM191.987 204.551C191.422 204.552 190.881 204.776 190.481 205.174C190.082 205.573 189.857 206.113 189.856 206.676V223.39C189.857 223.953 190.082 224.493 190.481 224.892C190.881 225.29 191.422 225.514 191.987 225.515H223.452C224.017 225.514 224.559 225.29 224.958 224.892C225.358 224.493 225.582 223.953 225.583 223.39V206.676C225.582 206.113 225.358 205.573 224.958 205.174C224.559 204.776 224.017 204.552 223.452 204.551H191.987Z" fill="#3F3D56"/>
<path d="M351.632 282.977H-19.6317C-19.7294 282.977 -19.823 282.938 -19.8921 282.869C-19.9612 282.8 -20 282.707 -20 282.609C-20 282.512 -19.9612 282.419 -19.8921 282.35C-19.823 282.281 -19.7294 282.242 -19.6317 282.242H351.632C351.729 282.242 351.823 282.281 351.892 282.35C351.961 282.419 352 282.512 352 282.609C352 282.707 351.961 282.8 351.892 282.869C351.823 282.938 351.729 282.977 351.632 282.977Z" fill="white"/>
<path d="M178.439 247.429C178.449 246.591 178.125 245.783 177.538 245.183C176.951 244.584 176.149 244.241 175.308 244.23H159.839V282.242H178.439V247.429Z" fill="white"/>
<path d="M160.207 281.875H140.87V247.536C140.871 246.611 141.24 245.724 141.896 245.07C142.552 244.416 143.441 244.048 144.369 244.047H160.207V281.875ZM141.607 281.14H159.47V244.781H144.369C143.637 244.782 142.935 245.073 142.417 245.589C141.899 246.105 141.608 246.805 141.607 247.536V281.14Z" fill="white"/>
<path d="M143.265 265.532C143.875 265.532 144.37 265.038 144.37 264.43C144.37 263.821 143.875 263.328 143.265 263.328C142.654 263.328 142.16 263.821 142.16 264.43C142.16 265.038 142.654 265.532 143.265 265.532Z" fill="white"/>
</g>
<defs>
<clipPath id="clip0_1827_15155">
<rect width="372" height="283" fill="white" transform="translate(-20)"/>
</clipPath>
</defs>
</svg>
