<svg width="320" height="316" viewBox="0 0 320 316" fill="none" xmlns="http://www.w3.org/2000/svg">
<g clip-path="url(#clip0_1827_15229)">
<path d="M335 168.091C335.058 207.748 321.031 246.137 295.418 276.413C294.488 277.518 293.541 278.605 292.576 279.686C281.22 292.457 267.992 303.431 253.343 312.234C249.983 314.251 246.549 316.152 243.042 317.936C242.687 318.117 242.327 318.297 241.972 318.471C241.548 318.686 241.118 318.896 240.688 319.105C231.812 323.449 222.568 326.993 213.063 329.696C212.075 329.975 211.085 330.247 210.093 330.51C197.59 333.818 184.747 335.669 171.819 336.027C171.145 336.044 170.482 336.056 169.843 336.068C169.616 336.073 169.395 336.079 169.174 336.079C168.447 336.085 167.727 336.091 167 336.091C153.376 336.101 139.802 334.455 126.575 331.19C125.25 330.865 123.93 330.522 122.617 330.161C115.696 328.272 108.906 325.936 102.288 323.168C98.8002 321.715 95.3743 320.147 92.0104 318.465C91.2489 318.082 90.4874 317.698 89.7375 317.303C89.4177 317.146 89.1038 316.977 88.7899 316.814C70.8612 307.352 54.7832 294.737 41.3256 279.575C40.3955 278.535 39.4828 277.477 38.5818 276.413C23.754 258.833 12.6934 238.395 6.08514 216.366C-0.523155 194.337 -2.53849 171.187 0.163973 148.347C2.86643 125.508 10.2291 103.467 21.7961 83.5884C33.363 63.7102 48.8879 46.4184 67.4092 32.784C68.3625 32.0806 69.3217 31.383 70.2925 30.7029C70.4843 30.5692 70.6761 30.4355 70.868 30.3018C87.9257 18.3534 107.071 9.70732 127.314 4.8111C128.465 4.52626 129.616 4.25886 130.778 4.00889C152.704 -0.787132 175.363 -1.18429 197.443 2.84045C198.6 3.05553 199.757 3.27643 200.908 3.51477C220.97 7.62962 240.103 15.3993 257.354 26.436C257.737 26.6802 258.121 26.9243 258.505 27.1801C259.278 27.68 260.051 28.1916 260.813 28.709C283.665 44.0721 302.385 64.8224 315.323 89.1298C328.261 113.437 335.018 140.555 335 168.091Z" fill="#F2F2F2"/>
<path d="M124.564 255.003L70.868 259.77L70.2925 259.822V30.7029C70.4843 30.5692 70.6761 30.4355 70.868 30.3018C82.0588 22.4742 94.1643 16.0437 106.915 11.1532L109.659 48.9968L109.909 52.4615L112.624 89.9912L113.461 101.536L124.465 253.666L124.564 255.003Z" fill="#CCCCCC"/>
<path d="M257.354 26.436C257.738 26.6802 258.121 26.9243 258.505 27.1801V259.822L257.354 259.718L204.239 255.003L204.338 253.666L215.342 101.536L216.179 89.9912L218.894 52.4615L219.144 48.9968L222.022 9.31047C234.431 13.6118 246.29 19.3599 257.354 26.436Z" fill="#CCCCCC"/>
<path d="M257.354 26.436V262.996C257.354 267.536 254.226 271.228 250.378 271.228H77.8438C74.6582 271.228 71.9551 268.693 71.1354 265.234C70.9565 264.502 70.8667 263.75 70.868 262.996V30.3018C70.6762 30.4355 70.4844 30.5692 70.2925 30.7029C69.3217 31.383 68.3626 32.0806 67.4092 32.784V262.996C67.3577 266.445 68.6455 269.779 71.0017 272.297C72.2373 273.592 73.8 274.528 75.5244 275.006C76.2803 275.212 77.0604 275.315 77.8438 275.314H250.378C251.163 275.315 251.945 275.211 252.703 275.006C257.342 273.756 260.813 268.85 260.813 262.996V28.709C260.051 28.1916 259.278 27.68 258.505 27.1801C258.121 26.9243 257.738 26.6802 257.354 26.436Z" fill="#CCCCCC"/>
<path d="M259.085 48.9992H69.1387V52.4632H259.085V48.9992Z" fill="#CCCCCC"/>
<path d="M127.313 4.81109C128.464 4.52624 129.615 4.25885 130.778 4.00888V98.0714H127.313V4.81109Z" fill="#CCCCCC"/>
<path d="M197.443 2.84044C198.6 3.05553 199.757 3.27643 200.908 3.51477V98.0714H197.443V2.84044Z" fill="#CCCCCC"/>
<path d="M280.734 253.666H53.2598C49.1249 253.666 45.1593 255.309 42.2354 258.233C39.3116 261.156 37.6689 265.122 37.6689 269.257C37.6689 273.392 39.3116 277.358 42.2354 280.281C45.1593 283.205 49.1249 284.848 53.2598 284.848H280.734C282.948 284.848 285.137 284.376 287.154 283.463C289.171 282.55 290.97 281.216 292.43 279.552C293.091 278.8 293.679 277.986 294.186 277.122C294.578 276.46 294.918 275.768 295.203 275.053C296.153 272.687 296.508 270.125 296.237 267.591C295.966 265.057 295.077 262.628 293.649 260.516C292.221 258.405 290.297 256.677 288.045 255.483C285.793 254.288 283.283 253.665 280.734 253.666Z" fill="#CCCCCC"/>
<path d="M259.085 89.9905H70.2935V101.537H259.085V89.9905Z" fill="#CCCCCC"/>
<path d="M162.957 86.5265H166.421C167.255 86.5265 168.081 86.6907 168.851 87.0099C169.622 87.329 170.322 87.7968 170.911 88.3866C171.501 88.9763 171.969 89.6764 172.288 90.4469C172.607 91.2174 172.772 92.0432 172.772 92.8772H156.606C156.606 91.1929 157.275 89.5776 158.466 88.3866C159.657 87.1956 161.272 86.5265 162.957 86.5265H162.957Z" fill="#CCCCCC"/>
<path d="M295.418 276.413C290.368 282.397 284.906 288.02 279.071 293.242H54.9281C49.0937 288.02 43.6316 282.397 38.5815 276.413H295.418Z" fill="#3F3D56"/>
<path d="M185.765 218.125H148.026C147.823 218.122 147.62 218.154 147.427 218.218C147.018 218.344 146.659 218.599 146.405 218.944C146.151 219.289 146.014 219.707 146.015 220.136V279.756H187.782V220.136C187.782 219.871 187.729 219.609 187.628 219.365C187.526 219.121 187.378 218.899 187.19 218.712C187.003 218.525 186.781 218.377 186.536 218.277C186.292 218.176 186.03 218.124 185.765 218.125ZM171.482 247.539C171.483 248.506 171.165 249.446 170.575 250.213C170.013 250.957 169.231 251.506 168.34 251.782C167.449 252.059 166.494 252.048 165.61 251.753C164.725 251.458 163.955 250.892 163.409 250.136C162.863 249.38 162.567 248.472 162.565 247.539V240.621C162.576 239.446 163.05 238.323 163.885 237.495C164.72 236.668 165.848 236.204 167.023 236.204C168.199 236.204 169.327 236.668 170.162 237.495C170.997 238.323 171.471 239.446 171.482 240.621V247.539Z" fill="#2F2E41"/>
<path d="M145.887 277.849V283.598C145.887 283.896 146.005 284.182 146.215 284.394C146.425 284.605 146.711 284.724 147.009 284.726H186.788C187.086 284.723 187.371 284.604 187.581 284.392C187.791 284.181 187.909 283.896 187.91 283.598V277.849H145.887Z" fill="#3F3D56"/>
<path d="M248.256 125.085H86.9413C85.5553 125.087 84.2264 125.638 83.2458 126.617C82.2652 127.597 81.7128 128.925 81.7095 130.311V239.168C81.7106 240.555 82.2621 241.886 83.2431 242.866C84.224 243.847 85.5541 244.399 86.9413 244.4H248.256C249.643 244.399 250.973 243.847 251.954 242.866C252.935 241.886 253.487 240.555 253.488 239.168V130.311C253.485 128.925 252.932 127.597 251.952 126.617C250.971 125.638 249.642 125.087 248.256 125.085Z" fill="#3F3D56"/>
<path d="M246.907 128.864H88.2839C87.5418 128.865 86.8307 129.161 86.3065 129.686C85.7823 130.212 85.4879 130.924 85.4878 131.666V237.825C85.4891 238.567 85.7841 239.277 86.3082 239.801C86.8323 240.325 87.5427 240.62 88.2839 240.621H246.907C247.648 240.62 248.359 240.325 248.883 239.801C249.407 239.277 249.702 238.567 249.703 237.825V131.666C249.703 130.924 249.409 130.212 248.885 129.686C248.361 129.161 247.649 128.865 246.907 128.864Z" fill="#F8F8F8"/>
<path d="M217.714 284.633L216.249 277.675C216.188 277.391 216.058 277.127 215.869 276.906C215.68 276.686 215.439 276.516 215.168 276.413C214.972 276.336 214.763 276.297 214.552 276.297H123.105C122.894 276.297 122.685 276.336 122.489 276.413C122.218 276.516 121.977 276.686 121.788 276.906C121.599 277.127 121.468 277.391 121.408 277.675L119.943 284.633C119.89 284.885 119.894 285.147 119.954 285.398C120.015 285.648 120.131 285.883 120.294 286.083C120.456 286.283 120.661 286.445 120.894 286.556C121.127 286.667 121.382 286.725 121.64 286.726H216.011C216.27 286.727 216.526 286.67 216.759 286.558C216.993 286.446 217.198 286.283 217.359 286.08C217.522 285.881 217.639 285.647 217.7 285.397C217.761 285.146 217.766 284.885 217.714 284.633Z" fill="#2F2E41"/>
<path d="M126.398 277.55H124.059C123.902 277.55 123.775 277.677 123.775 277.834V279.01C123.775 279.167 123.902 279.294 124.059 279.294H126.398C126.555 279.294 126.682 279.167 126.682 279.01V277.834C126.682 277.677 126.555 277.55 126.398 277.55Z" fill="#3F3D56"/>
<path d="M132.211 277.55H129.872C129.715 277.55 129.588 277.677 129.588 277.834V279.01C129.588 279.167 129.715 279.294 129.872 279.294H132.211C132.368 279.294 132.495 279.167 132.495 279.01V277.834C132.495 277.677 132.368 277.55 132.211 277.55Z" fill="#3F3D56"/>
<path d="M138.024 277.55H135.685C135.528 277.55 135.401 277.677 135.401 277.834V279.01C135.401 279.167 135.528 279.294 135.685 279.294H138.024C138.181 279.294 138.308 279.167 138.308 279.01V277.834C138.308 277.677 138.181 277.55 138.024 277.55Z" fill="#3F3D56"/>
<path d="M143.838 277.55H141.499C141.342 277.55 141.215 277.677 141.215 277.834V279.01C141.215 279.167 141.342 279.294 141.499 279.294H143.838C143.994 279.294 144.121 279.167 144.121 279.01V277.834C144.121 277.677 143.994 277.55 143.838 277.55Z" fill="#3F3D56"/>
<path d="M149.651 277.55H147.312C147.155 277.55 147.028 277.677 147.028 277.834V279.01C147.028 279.167 147.155 279.294 147.312 279.294H149.651C149.807 279.294 149.934 279.167 149.934 279.01V277.834C149.934 277.677 149.807 277.55 149.651 277.55Z" fill="#3F3D56"/>
<path d="M155.464 277.55H153.125C152.968 277.55 152.841 277.677 152.841 277.834V279.01C152.841 279.167 152.968 279.294 153.125 279.294H155.464C155.62 279.294 155.747 279.167 155.747 279.01V277.834C155.747 277.677 155.62 277.55 155.464 277.55Z" fill="#3F3D56"/>
<path d="M161.277 277.55H158.938C158.781 277.55 158.654 277.677 158.654 277.834V279.01C158.654 279.167 158.781 279.294 158.938 279.294H161.277C161.434 279.294 161.561 279.167 161.561 279.01V277.834C161.561 277.677 161.434 277.55 161.277 277.55Z" fill="#3F3D56"/>
<path d="M167.09 277.55H164.751C164.594 277.55 164.467 277.677 164.467 277.834V279.01C164.467 279.167 164.594 279.294 164.751 279.294H167.09C167.247 279.294 167.374 279.167 167.374 279.01V277.834C167.374 277.677 167.247 277.55 167.09 277.55Z" fill="#3F3D56"/>
<path d="M172.903 277.55H170.564C170.407 277.55 170.28 277.677 170.28 277.834V279.01C170.28 279.167 170.407 279.294 170.564 279.294H172.903C173.06 279.294 173.187 279.167 173.187 279.01V277.834C173.187 277.677 173.06 277.55 172.903 277.55Z" fill="#3F3D56"/>
<path d="M178.717 277.55H176.378C176.221 277.55 176.094 277.677 176.094 277.834V279.01C176.094 279.167 176.221 279.294 176.378 279.294H178.717C178.873 279.294 179 279.167 179 279.01V277.834C179 277.677 178.873 277.55 178.717 277.55Z" fill="#3F3D56"/>
<path d="M184.53 277.55H182.191C182.034 277.55 181.907 277.677 181.907 277.834V279.01C181.907 279.167 182.034 279.294 182.191 279.294H184.53C184.686 279.294 184.813 279.167 184.813 279.01V277.834C184.813 277.677 184.686 277.55 184.53 277.55Z" fill="#3F3D56"/>
<path d="M190.343 277.55H188.004C187.847 277.55 187.72 277.677 187.72 277.834V279.01C187.72 279.167 187.847 279.294 188.004 279.294H190.343C190.499 279.294 190.626 279.167 190.626 279.01V277.834C190.626 277.677 190.499 277.55 190.343 277.55Z" fill="#3F3D56"/>
<path d="M196.156 277.55H193.817C193.66 277.55 193.533 277.677 193.533 277.834V279.01C193.533 279.167 193.66 279.294 193.817 279.294H196.156C196.313 279.294 196.44 279.167 196.44 279.01V277.834C196.44 277.677 196.313 277.55 196.156 277.55Z" fill="#3F3D56"/>
<path d="M201.969 277.55H199.63C199.473 277.55 199.346 277.677 199.346 277.834V279.01C199.346 279.167 199.473 279.294 199.63 279.294H201.969C202.126 279.294 202.253 279.167 202.253 279.01V277.834C202.253 277.677 202.126 277.55 201.969 277.55Z" fill="#3F3D56"/>
<path d="M207.782 277.55H205.443C205.286 277.55 205.159 277.677 205.159 277.834V279.01C205.159 279.167 205.286 279.294 205.443 279.294H207.782C207.939 279.294 208.066 279.167 208.066 279.01V277.834C208.066 277.677 207.939 277.55 207.782 277.55Z" fill="#3F3D56"/>
<path d="M213.595 277.55H211.256C211.1 277.55 210.973 277.677 210.973 277.834V279.01C210.973 279.167 211.1 279.294 211.256 279.294H213.595C213.752 279.294 213.879 279.167 213.879 279.01V277.834C213.879 277.677 213.752 277.55 213.595 277.55Z" fill="#3F3D56"/>
<path d="M126.329 280.457H123.99C123.834 280.457 123.707 280.584 123.707 280.74V281.917C123.707 282.073 123.834 282.2 123.99 282.2H126.329C126.486 282.2 126.613 282.073 126.613 281.917V280.74C126.613 280.584 126.486 280.457 126.329 280.457Z" fill="#3F3D56"/>
<path d="M132.142 280.457H129.803C129.647 280.457 129.52 280.584 129.52 280.74V281.917C129.52 282.073 129.647 282.2 129.803 282.2H132.142C132.299 282.2 132.426 282.073 132.426 281.917V280.74C132.426 280.584 132.299 280.457 132.142 280.457Z" fill="#3F3D56"/>
<path d="M137.956 280.457H135.617C135.46 280.457 135.333 280.584 135.333 280.74V281.917C135.333 282.073 135.46 282.2 135.617 282.2H137.956C138.113 282.2 138.24 282.073 138.24 281.917V280.74C138.24 280.584 138.113 280.457 137.956 280.457Z" fill="#3F3D56"/>
<path d="M143.769 280.457H141.43C141.273 280.457 141.146 280.584 141.146 280.74V281.917C141.146 282.073 141.273 282.2 141.43 282.2H143.769C143.926 282.2 144.053 282.073 144.053 281.917V280.74C144.053 280.584 143.926 280.457 143.769 280.457Z" fill="#3F3D56"/>
<path d="M149.582 280.457H147.243C147.086 280.457 146.959 280.584 146.959 280.74V281.917C146.959 282.073 147.086 282.2 147.243 282.2H149.582C149.739 282.2 149.866 282.073 149.866 281.917V280.74C149.866 280.584 149.739 280.457 149.582 280.457Z" fill="#3F3D56"/>
<path d="M155.395 280.457H153.056C152.9 280.457 152.772 280.584 152.772 280.74V281.917C152.772 282.073 152.9 282.2 153.056 282.2H155.395C155.552 282.2 155.679 282.073 155.679 281.917V280.74C155.679 280.584 155.552 280.457 155.395 280.457Z" fill="#3F3D56"/>
<path d="M161.208 280.457H158.869C158.713 280.457 158.585 280.584 158.585 280.74V281.917C158.585 282.073 158.713 282.2 158.869 282.2H161.208C161.365 282.2 161.492 282.073 161.492 281.917V280.74C161.492 280.584 161.365 280.457 161.208 280.457Z" fill="#3F3D56"/>
<path d="M167.021 280.457H164.682C164.525 280.457 164.398 280.584 164.398 280.74V281.917C164.398 282.073 164.525 282.2 164.682 282.2H167.021C167.178 282.2 167.305 282.073 167.305 281.917V280.74C167.305 280.584 167.178 280.457 167.021 280.457Z" fill="#3F3D56"/>
<path d="M172.835 280.457H170.496C170.339 280.457 170.212 280.584 170.212 280.74V281.917C170.212 282.073 170.339 282.2 170.496 282.2H172.835C172.991 282.2 173.118 282.073 173.118 281.917V280.74C173.118 280.584 172.991 280.457 172.835 280.457Z" fill="#3F3D56"/>
<path d="M178.648 280.457H176.309C176.152 280.457 176.025 280.584 176.025 280.74V281.917C176.025 282.073 176.152 282.2 176.309 282.2H178.648C178.804 282.2 178.931 282.073 178.931 281.917V280.74C178.931 280.584 178.804 280.457 178.648 280.457Z" fill="#3F3D56"/>
<path d="M184.461 280.457H182.122C181.965 280.457 181.838 280.584 181.838 280.74V281.917C181.838 282.073 181.965 282.2 182.122 282.2H184.461C184.617 282.2 184.744 282.073 184.744 281.917V280.74C184.744 280.584 184.617 280.457 184.461 280.457Z" fill="#3F3D56"/>
<path d="M190.274 280.457H187.935C187.778 280.457 187.651 280.584 187.651 280.74V281.917C187.651 282.073 187.778 282.2 187.935 282.2H190.274C190.431 282.2 190.558 282.073 190.558 281.917V280.74C190.558 280.584 190.431 280.457 190.274 280.457Z" fill="#3F3D56"/>
<path d="M196.087 280.457H193.748C193.591 280.457 193.464 280.584 193.464 280.74V281.917C193.464 282.073 193.591 282.2 193.748 282.2H196.087C196.244 282.2 196.371 282.073 196.371 281.917V280.74C196.371 280.584 196.244 280.457 196.087 280.457Z" fill="#3F3D56"/>
<path d="M201.9 280.457H199.561C199.404 280.457 199.277 280.584 199.277 280.74V281.917C199.277 282.073 199.404 282.2 199.561 282.2H201.9C202.057 282.2 202.184 282.073 202.184 281.917V280.74C202.184 280.584 202.057 280.457 201.9 280.457Z" fill="#3F3D56"/>
<path d="M207.713 280.457H205.374C205.217 280.457 205.09 280.584 205.09 280.74V281.917C205.09 282.073 205.217 282.2 205.374 282.2H207.713C207.87 282.2 207.997 282.073 207.997 281.917V280.74C207.997 280.584 207.87 280.457 207.713 280.457Z" fill="#3F3D56"/>
<path d="M213.527 280.457H211.188C211.031 280.457 210.904 280.584 210.904 280.74V281.917C210.904 282.073 211.031 282.2 211.188 282.2H213.527C213.683 282.2 213.81 282.073 213.81 281.917V280.74C213.81 280.584 213.683 280.457 213.527 280.457Z" fill="#3F3D56"/>
<path d="M174.578 283.944H151.893C151.736 283.944 151.609 284.071 151.609 284.228V285.405C151.609 285.561 151.736 285.688 151.893 285.688H174.578C174.735 285.688 174.862 285.561 174.862 285.405V284.228C174.862 284.071 174.735 283.944 174.578 283.944Z" fill="#3F3D56"/>
<path d="M238.937 143.488H90.5134C90.3592 143.484 90.2123 143.421 90.1044 143.31C89.9965 143.2 89.936 143.052 89.936 142.897C89.936 142.743 89.9965 142.595 90.1044 142.485C90.2123 142.374 90.3592 142.311 90.5134 142.307H238.937C239.091 142.311 239.238 142.374 239.346 142.485C239.454 142.595 239.514 142.743 239.514 142.897C239.514 143.052 239.454 143.2 239.346 143.31C239.238 143.421 239.091 143.484 238.937 143.488Z" fill="#3F3D56"/>
<path d="M100.617 139.294C102.527 139.294 104.076 137.71 104.076 135.757C104.076 133.804 102.527 132.221 100.617 132.221C98.7064 132.221 97.1577 133.804 97.1577 135.757C97.1577 137.71 98.7064 139.294 100.617 139.294Z" fill="#3F3D56"/>
<path d="M112.566 139.294C114.476 139.294 116.025 137.71 116.025 135.757C116.025 133.804 114.476 132.221 112.566 132.221C110.656 132.221 109.107 133.804 109.107 135.757C109.107 137.71 110.656 139.294 112.566 139.294Z" fill="#3F3D56"/>
<path d="M124.516 139.294C126.426 139.294 127.975 137.71 127.975 135.757C127.975 133.804 126.426 132.221 124.516 132.221C122.605 132.221 121.057 133.804 121.057 135.757C121.057 137.71 122.605 139.294 124.516 139.294Z" fill="#3F3D56"/>
<path d="M231.741 133.096H223.254C223.086 133.1 222.927 133.169 222.809 133.289C222.692 133.409 222.626 133.57 222.626 133.738C222.626 133.906 222.692 134.067 222.809 134.187C222.927 134.307 223.086 134.376 223.254 134.38H231.741C231.91 134.378 232.071 134.309 232.19 134.189C232.308 134.069 232.375 133.907 232.375 133.738C232.375 133.569 232.308 133.407 232.19 133.287C232.071 133.167 231.91 133.098 231.741 133.096Z" fill="#3F3D56"/>
<path d="M231.741 135.508H223.254C223.086 135.512 222.926 135.581 222.809 135.701C222.691 135.821 222.625 135.983 222.625 136.15C222.625 136.318 222.691 136.48 222.809 136.6C222.926 136.72 223.086 136.789 223.254 136.793H231.741C231.91 136.791 232.071 136.722 232.19 136.602C232.309 136.482 232.376 136.319 232.376 136.15C232.376 135.981 232.309 135.819 232.19 135.699C232.071 135.579 231.91 135.51 231.741 135.508Z" fill="#3F3D56"/>
<path d="M231.741 137.921H223.254C223.086 137.925 222.927 137.994 222.809 138.114C222.692 138.234 222.626 138.395 222.626 138.563C222.626 138.731 222.692 138.892 222.809 139.012C222.927 139.132 223.086 139.201 223.254 139.205H231.741C231.91 139.203 232.071 139.134 232.19 139.014C232.308 138.894 232.375 138.732 232.375 138.563C232.375 138.394 232.308 138.232 232.19 138.112C232.071 137.992 231.91 137.923 231.741 137.921Z" fill="#3F3D56"/>
<path d="M103.311 157.205H100.262C99.337 157.205 98.5874 157.954 98.5874 158.879C98.5874 159.803 99.337 160.553 100.262 160.553H103.311C104.236 160.553 104.985 159.803 104.985 158.879C104.985 157.954 104.236 157.205 103.311 157.205Z" fill="#E6E6E6"/>
<path d="M138.19 157.205H135.14C134.216 157.205 133.466 157.954 133.466 158.879C133.466 159.803 134.216 160.553 135.14 160.553H138.19C139.115 160.553 139.864 159.803 139.864 158.879C139.864 157.954 139.115 157.205 138.19 157.205Z" fill="#E6E6E6"/>
<path d="M148.072 157.205H145.023C144.098 157.205 143.349 157.954 143.349 158.879C143.349 159.803 144.098 160.553 145.023 160.553H148.072C148.997 160.553 149.747 159.803 149.747 158.879C149.747 157.954 148.997 157.205 148.072 157.205Z" fill="#E6E6E6"/>
<path d="M128.703 156.926H109.749C108.824 156.926 108.075 157.675 108.075 158.6C108.075 159.524 108.824 160.274 109.749 160.274H128.703C129.628 160.274 130.377 159.524 130.377 158.6C130.377 157.675 129.628 156.926 128.703 156.926Z" fill="#E6E6E6"/>
<path d="M175.208 156.926H156.254C155.329 156.926 154.58 157.675 154.58 158.6C154.58 159.524 155.329 160.274 156.254 160.274H175.208C176.133 160.274 176.882 159.524 176.882 158.6C176.882 157.675 176.133 156.926 175.208 156.926Z" fill="#E6E6E6"/>
<path d="M112.613 164.762H109.563C108.638 164.762 107.889 165.511 107.889 166.436C107.889 167.361 108.638 168.11 109.563 168.11H112.613C113.537 168.11 114.287 167.361 114.287 166.436C114.287 165.511 113.537 164.762 112.613 164.762Z" fill="#E6E6E6"/>
<path d="M147.491 164.762H144.442C143.517 164.762 142.768 165.511 142.768 166.436C142.768 167.361 143.517 168.11 144.442 168.11H147.491C148.416 168.11 149.166 167.361 149.166 166.436C149.166 165.511 148.416 164.762 147.491 164.762Z" fill="#E6E6E6"/>
<path d="M157.374 164.762H154.324C153.399 164.762 152.65 165.511 152.65 166.436C152.65 167.361 153.399 168.11 154.324 168.11H157.374C158.298 168.11 159.048 167.361 159.048 166.436C159.048 165.511 158.298 164.762 157.374 164.762Z" fill="#E6E6E6"/>
<path d="M138.004 164.483H119.05C118.125 164.483 117.375 165.232 117.375 166.157C117.375 167.081 118.125 167.831 119.05 167.831H138.004C138.928 167.831 139.678 167.081 139.678 166.157C139.678 165.232 138.928 164.483 138.004 164.483Z" fill="#E6E6E6"/>
<path d="M184.509 164.483H165.555C164.63 164.483 163.881 165.232 163.881 166.157C163.881 167.081 164.63 167.831 165.555 167.831H184.509C185.434 167.831 186.183 167.081 186.183 166.157C186.183 165.232 185.434 164.483 184.509 164.483Z" fill="#E6E6E6"/>
<path d="M121.913 172.319H118.864C117.939 172.319 117.189 173.068 117.189 173.993C117.189 174.918 117.939 175.667 118.864 175.667H121.913C122.838 175.667 123.587 174.918 123.587 173.993C123.587 173.068 122.838 172.319 121.913 172.319Z" fill="#E6E6E6"/>
<path d="M156.792 172.319H153.743C152.818 172.319 152.068 173.068 152.068 173.993C152.068 174.918 152.818 175.667 153.743 175.667H156.792C157.717 175.667 158.466 174.918 158.466 173.993C158.466 173.068 157.717 172.319 156.792 172.319Z" fill="#E6E6E6"/>
<path d="M166.675 172.319H163.625C162.7 172.319 161.951 173.068 161.951 173.993C161.951 174.918 162.7 175.667 163.625 175.667H166.675C167.599 175.667 168.349 174.918 168.349 173.993C168.349 173.068 167.599 172.319 166.675 172.319Z" fill="#E6E6E6"/>
<path d="M147.305 172.04H128.351C127.426 172.04 126.677 172.789 126.677 173.714C126.677 174.639 127.426 175.388 128.351 175.388H147.305C148.23 175.388 148.979 174.639 148.979 173.714C148.979 172.789 148.23 172.04 147.305 172.04Z" fill="#E6E6E6"/>
<path d="M193.81 172.04H174.856C173.931 172.04 173.182 172.789 173.182 173.714C173.182 174.639 173.931 175.388 174.856 175.388H193.81C194.735 175.388 195.484 174.639 195.484 173.714C195.484 172.789 194.735 172.04 193.81 172.04Z" fill="#E6E6E6"/>
<path d="M131.215 179.876H128.165C127.24 179.876 126.491 180.626 126.491 181.55C126.491 182.475 127.24 183.224 128.165 183.224H131.215C132.139 183.224 132.889 182.475 132.889 181.55C132.889 180.626 132.139 179.876 131.215 179.876Z" fill="#E6E6E6"/>
<path d="M166.093 179.876H163.044C162.119 179.876 161.37 180.626 161.37 181.55C161.37 182.475 162.119 183.224 163.044 183.224H166.093C167.018 183.224 167.768 182.475 167.768 181.55C167.768 180.626 167.018 179.876 166.093 179.876Z" fill="#E6E6E6"/>
<path d="M175.976 179.876H172.926C172.001 179.876 171.252 180.626 171.252 181.55C171.252 182.475 172.001 183.224 172.926 183.224H175.976C176.9 183.224 177.65 182.475 177.65 181.55C177.65 180.626 176.9 179.876 175.976 179.876Z" fill="#E6E6E6"/>
<path d="M156.606 179.597H137.652C136.727 179.597 135.978 180.346 135.978 181.271C135.978 182.196 136.727 182.945 137.652 182.945H156.606C157.531 182.945 158.28 182.196 158.28 181.271C158.28 180.346 157.531 179.597 156.606 179.597Z" fill="#E6E6E6"/>
<path d="M138.19 209.926H135.14C134.216 209.926 133.466 210.676 133.466 211.6C133.466 212.525 134.216 213.275 135.14 213.275H138.19C139.115 213.275 139.864 212.525 139.864 211.6C139.864 210.676 139.115 209.926 138.19 209.926Z" fill="#E6E6E6"/>
<path d="M148.072 209.926H145.023C144.098 209.926 143.349 210.676 143.349 211.6C143.349 212.525 144.098 213.275 145.023 213.275H148.072C148.997 213.275 149.747 212.525 149.747 211.6C149.747 210.676 148.997 209.926 148.072 209.926Z" fill="#E6E6E6"/>
<path d="M175.208 210.205H156.254C155.329 210.205 154.58 210.955 154.58 211.879C154.58 212.804 155.329 213.554 156.254 213.554H175.208C176.133 213.554 176.882 212.804 176.882 211.879C176.882 210.955 176.133 210.205 175.208 210.205Z" fill="#E6E6E6"/>
<path d="M103.311 209.926H100.262C99.337 209.926 98.5874 210.676 98.5874 211.6C98.5874 212.525 99.337 213.275 100.262 213.275H103.311C104.236 213.275 104.985 212.525 104.985 211.6C104.985 210.676 104.236 209.926 103.311 209.926Z" fill="#E6E6E6"/>
<path d="M128.703 210.205H109.749C108.824 210.205 108.075 210.955 108.075 211.879C108.075 212.804 108.824 213.554 109.749 213.554H128.703C129.628 213.554 130.377 212.804 130.377 211.879C130.377 210.955 129.628 210.205 128.703 210.205Z" fill="#E6E6E6"/>
<path d="M112.613 202.369H109.563C108.638 202.369 107.889 203.119 107.889 204.043C107.889 204.968 108.638 205.717 109.563 205.717H112.613C113.537 205.717 114.287 204.968 114.287 204.043C114.287 203.119 113.537 202.369 112.613 202.369Z" fill="#E6E6E6"/>
<path d="M147.491 202.369H144.442C143.517 202.369 142.768 203.119 142.768 204.043C142.768 204.968 143.517 205.717 144.442 205.717H147.491C148.416 205.717 149.166 204.968 149.166 204.043C149.166 203.119 148.416 202.369 147.491 202.369Z" fill="#E6E6E6"/>
<path d="M157.374 202.369H154.324C153.399 202.369 152.65 203.119 152.65 204.043C152.65 204.968 153.399 205.717 154.324 205.717H157.374C158.298 205.717 159.048 204.968 159.048 204.043C159.048 203.119 158.298 202.369 157.374 202.369Z" fill="#E6E6E6"/>
<path d="M138.004 202.648H119.05C118.125 202.648 117.375 203.398 117.375 204.322C117.375 205.247 118.125 205.997 119.05 205.997H138.004C138.928 205.997 139.678 205.247 139.678 204.322C139.678 203.398 138.928 202.648 138.004 202.648Z" fill="#E6E6E6"/>
<path d="M121.913 194.812H118.864C117.939 194.812 117.189 195.562 117.189 196.486C117.189 197.411 117.939 198.16 118.864 198.16H121.913C122.838 198.16 123.587 197.411 123.587 196.486C123.587 195.562 122.838 194.812 121.913 194.812Z" fill="#E6E6E6"/>
<path d="M156.792 194.812H153.743C152.818 194.812 152.068 195.562 152.068 196.486C152.068 197.411 152.818 198.16 153.743 198.16H156.792C157.717 198.16 158.466 197.411 158.466 196.486C158.466 195.562 157.717 194.812 156.792 194.812Z" fill="#E6E6E6"/>
<path d="M166.675 194.812H163.625C162.7 194.812 161.951 195.562 161.951 196.486C161.951 197.411 162.7 198.16 163.625 198.16H166.675C167.599 198.16 168.349 197.411 168.349 196.486C168.349 195.562 167.599 194.812 166.675 194.812Z" fill="#E6E6E6"/>
<path d="M147.305 195.091H128.351C127.426 195.091 126.677 195.841 126.677 196.765C126.677 197.69 127.426 198.439 128.351 198.439H147.305C148.23 198.439 148.979 197.69 148.979 196.765C148.979 195.841 148.23 195.091 147.305 195.091Z" fill="#E6E6E6"/>
<path d="M131.215 187.255H128.165C127.24 187.255 126.491 188.004 126.491 188.929C126.491 189.854 127.24 190.603 128.165 190.603H131.215C132.139 190.603 132.889 189.854 132.889 188.929C132.889 188.004 132.139 187.255 131.215 187.255Z" fill="#E6E6E6"/>
<path d="M166.093 187.255H163.044C162.119 187.255 161.37 188.004 161.37 188.929C161.37 189.854 162.119 190.603 163.044 190.603H166.093C167.018 190.603 167.768 189.854 167.768 188.929C167.768 188.004 167.018 187.255 166.093 187.255Z" fill="#E6E6E6"/>
<path d="M175.976 187.255H172.926C172.001 187.255 171.252 188.004 171.252 188.929C171.252 189.854 172.001 190.603 172.926 190.603H175.976C176.9 190.603 177.65 189.854 177.65 188.929C177.65 188.004 176.9 187.255 175.976 187.255Z" fill="#E6E6E6"/>
<path d="M156.606 187.534H137.652C136.727 187.534 135.978 188.284 135.978 189.208C135.978 190.133 136.727 190.882 137.652 190.882H156.606C157.531 190.882 158.28 190.133 158.28 189.208C158.28 188.284 157.531 187.534 156.606 187.534Z" fill="#E6E6E6"/>
<path d="M240.716 319.099C240.362 319.279 240.001 319.459 239.647 319.634C230.462 324.226 223.114 326.836 213.063 329.696C212.215 320.221 211.395 303.566 210.598 293.242C210.389 290.562 210.18 288.313 209.976 286.726C209.925 285.882 209.753 285.05 209.465 284.255L209.5 286.726L209.587 293.242L210.093 330.51C197.59 333.818 184.747 335.669 171.819 336.027C171.145 336.044 170.482 336.056 169.843 336.068C169.616 336.073 169.395 336.079 169.174 336.079C168.447 336.085 167.727 336.091 167 336.091C153.376 336.101 139.802 334.455 126.575 331.19C126.86 321.814 127.145 305.345 127.418 293.242C127.476 290.876 127.529 288.673 127.587 286.726C127.697 282.563 127.813 279.564 127.924 278.558C127.826 278.736 127.75 278.926 127.697 279.122C127.159 281.629 126.792 284.169 126.598 286.726C126.395 288.673 126.192 290.876 125.988 293.242C124.907 305.816 123.779 322.912 122.616 330.161C115.696 328.272 108.906 325.936 102.288 323.168C98.8 321.715 95.3741 320.147 92.0103 318.465C92.6497 314.28 93.3182 309.589 94.0042 304.723C94.539 300.95 95.0912 297.073 95.6551 293.242C96.5271 287.324 97.4223 281.523 98.3291 276.413C99.6545 268.949 101.015 262.95 102.363 260.194C103.642 257.578 104.921 254.997 106.159 252.527C106.59 251.661 107.02 250.806 107.438 249.975C107.537 249.777 107.636 249.585 107.735 249.394C108.624 247.644 109.485 245.97 110.304 244.4C111.008 243.057 111.676 241.79 112.31 240.621C113.844 237.785 115.147 235.523 116.112 234.093C120.146 227.974 126.152 223.418 133.132 221.182L133.307 221.136L133.429 221.188L145.317 217.537L147.055 217.003L148.223 216.642L152.339 213.509L154.577 211.806L156.676 210.207L160.78 207.085L186.189 208.649L191.136 220.56L202.216 224.612L202.408 224.525L202.576 224.455L202.751 224.502C209.73 226.739 215.736 231.295 219.772 237.413C220.318 238.232 220.981 239.314 221.731 240.621C222.37 241.732 223.068 242.999 223.823 244.4C224.899 246.394 226.073 248.644 227.317 251.079C227.59 251.614 227.869 252.161 228.148 252.713C228.666 253.736 229.191 254.78 229.724 255.846C230.962 258.317 232.241 260.898 233.52 263.519C234.63 265.792 235.752 270.466 236.856 276.413C237.769 281.354 238.676 287.179 239.554 293.242C240.705 301.101 239.478 310.513 240.519 317.744C240.583 318.204 240.652 318.651 240.716 319.099Z" fill="#3F3D56"/>
<path d="M167.358 197.578C183.679 197.578 196.91 184.347 196.91 168.026C196.91 151.705 183.679 138.474 167.358 138.474C151.037 138.474 137.806 151.705 137.806 168.026C137.806 184.347 151.037 197.578 167.358 197.578Z" fill="#A0616A"/>
<path d="M216.092 128.864C215.508 127.5 214.73 126.227 213.784 125.085C209.296 119.603 201.135 117.191 192.758 123.678C191.145 123.318 189.464 123.415 187.904 123.957C187.167 124.224 186.477 124.605 185.858 125.085C184.589 126.075 183.6 127.377 182.986 128.864C182.658 129.649 182.443 130.477 182.347 131.323C180.276 130.247 178.084 129.421 175.818 128.864C170.258 127.481 164.444 127.481 158.885 128.864C157.103 129.314 155.387 129.994 153.781 130.887C151.06 132.456 149.496 134.439 149.217 136.642C145.293 136.863 141.213 138.926 138.172 142.31C137.829 142.687 137.498 143.083 137.19 143.49C134.633 146.835 133.259 150.934 133.284 155.145V155.883H134.022C136.045 155.881 138.048 156.272 139.922 157.034C141.136 157.522 142.286 158.156 143.346 158.924C144.04 159.415 144.694 159.96 145.305 160.551C146.721 161.922 147.921 163.5 148.863 165.231C151.278 169.605 152.115 174.677 151.235 179.595C151.032 180.734 150.737 181.853 150.351 182.943C149.802 184.499 149.078 185.987 148.194 187.379C148.159 187.431 148.13 187.484 148.095 187.536C147.706 188.158 147.334 188.791 146.985 189.431C146.724 189.908 146.479 190.396 146.253 190.884C145.59 192.243 145.03 193.65 144.578 195.093C143.769 197.645 143.293 200.29 143.16 202.964C143.119 203.673 143.108 204.382 143.131 205.092C143.166 206.92 143.366 208.741 143.73 210.533C143.782 210.777 143.834 211.015 143.887 211.259L144.311 213.114L145.317 217.538L146.014 220.584L146.66 223.409L147.613 222.043C147.938 221.578 148.758 220.148 149.857 218.125C150.583 216.805 151.426 215.23 152.339 213.509C153.612 211.097 155.007 208.405 156.373 205.719C156.926 204.632 157.472 203.551 158.001 202.493C159.001 200.488 159.943 198.552 160.751 196.831C161.495 195.244 162.128 193.837 162.599 192.71C162.745 193.448 162.867 194.198 162.96 194.953C163.064 195.721 163.14 196.5 163.181 197.279C163.192 197.395 163.198 197.517 163.204 197.633L163.227 198.11L163.233 198.249L163.849 198.331C167.403 198.711 170.986 198.739 174.545 198.412H174.551C179.266 198.057 183.892 196.936 188.247 195.093C190.72 194.02 193.029 192.603 195.106 190.884C196.077 190.081 196.983 189.202 197.815 188.257C198.025 188.018 198.228 187.78 198.426 187.536C199.576 186.122 200.561 184.581 201.361 182.943C201.897 181.863 202.352 180.743 202.722 179.595C204.954 172.834 204.826 164.4 202.338 154.378C203.01 154.248 203.654 154 204.239 153.645C206.064 152.547 207.331 150.367 207.727 147.704L208.355 147.873C210.58 146.836 212.563 145.343 214.173 143.49C214.492 143.112 214.791 142.718 215.069 142.31C217.911 138.124 217.935 133.101 216.092 128.864Z" fill="#2F2E41"/>
<path opacity="0.2" d="M118.937 276.387L123.876 257.325L128.238 273.774L118.937 276.387Z" fill="black"/>
<path d="M250.378 263.967C248.611 288.313 250.442 299.032 240.687 319.105C231.812 323.449 222.567 326.993 213.063 329.696C212.075 329.975 211.085 330.247 210.093 330.51C197.59 333.818 184.747 335.669 171.819 336.027C171.145 336.044 170.482 336.056 169.842 336.068C169.616 336.073 169.395 336.079 169.174 336.079C168.447 336.085 167.726 336.091 167 336.091C153.376 336.101 139.802 334.455 126.575 331.19C125.25 330.865 123.93 330.522 122.616 330.161C115.696 328.272 108.906 325.936 102.288 323.168C98.7999 321.715 95.374 320.147 92.0101 318.465C91.2486 318.082 90.4871 317.698 89.7372 317.303C85.8831 310.525 83.6915 302.282 83.645 292.376C86.3133 275.309 244.483 249.248 250.378 263.967Z" fill="#2F2E41"/>
<path opacity="0.2" d="M250.374 268.136C250.464 266.629 250.565 265.072 250.682 263.451C244.788 248.732 86.6179 274.793 83.9497 291.86C83.9571 293.425 84.024 294.943 84.1365 296.426C90.5981 279.58 240.862 254.812 250.374 268.136Z" fill="black"/>
<path d="M93.8099 198.989C93.8484 198.462 93.7736 197.932 93.5905 197.437C93.4073 196.941 93.1201 196.49 92.7482 196.115C92.3763 195.74 91.9282 195.448 91.4342 195.26C90.9403 195.073 90.4118 194.993 89.8844 195.027C89.6879 195.034 89.4924 195.059 89.3002 195.1L66.1859 200.321C65.6694 200.447 65.1848 200.679 64.7634 201.003C64.3421 201.327 63.9932 201.735 63.7393 202.202C63.4003 202.215 63.0637 202.264 62.7351 202.348C62.0158 202.511 61.3357 202.814 60.7335 203.24C60.1314 203.666 59.619 204.206 59.2257 204.83C58.8324 205.454 58.5658 206.149 58.4411 206.876C58.3165 207.603 58.3363 208.348 58.4993 209.067C58.6623 209.786 58.9655 210.466 59.3913 211.068C59.8172 211.671 60.3575 212.183 60.9814 212.576C62.2415 213.371 63.7655 213.632 65.2181 213.303C66.045 213.111 66.8185 212.737 67.4821 212.207L75.3147 234.263C75.706 234.954 76.3104 235.5 77.0377 235.819C77.765 236.138 78.576 236.214 79.3496 236.034L94.3759 232.638C95.1435 232.458 95.8345 232.039 96.3495 231.442C96.8644 230.845 97.177 230.101 97.2423 229.315L93.8099 198.989ZM64.8712 211.733C63.8338 211.967 62.7458 211.78 61.846 211.213C60.9461 210.646 60.3077 209.745 60.0709 208.708C59.834 207.672 60.018 206.583 60.5825 205.682C61.1469 204.78 62.0458 204.14 63.082 203.9C63.155 203.882 63.2281 203.9 63.3011 203.882C63.2956 204.547 63.4656 205.202 63.7941 205.781L66.6605 210.783C66.1615 211.256 65.5429 211.585 64.8712 211.733Z" fill="#2F2E41"/>
<path d="M89.8845 195.027C90.1036 197.948 85.101 201.307 78.4004 202.64C72.2474 203.9 66.7336 203.024 65.1816 200.723C65.4936 200.538 65.8324 200.403 66.1859 200.321L89.3002 195.1C89.4925 195.059 89.688 195.034 89.8845 195.027Z" fill="#3F3D56"/>
<path d="M73.8983 269.185L86.8812 262.693L76.0621 233.482L73.2108 218.75C72.8404 216.836 71.9741 215.053 70.6986 213.579C69.4231 212.104 67.783 210.991 65.9423 210.349C64.1015 209.707 62.1246 209.559 60.2089 209.921C58.2933 210.283 56.5062 211.141 55.026 212.409C52.8327 214.289 51.4555 216.948 51.1851 219.824C50.9148 222.7 51.7724 225.569 53.5771 227.825L64.1612 241.055L73.8983 269.185Z" fill="#A0616A"/>
<path d="M86.8813 257.284L69.5708 265.939L82.7077 307.101C83.651 310.057 85.3421 312.719 87.617 314.829C89.8919 316.939 92.6734 318.425 95.6917 319.144C99.4135 320.03 103.321 319.708 106.847 318.224C110.373 316.74 113.335 314.172 115.304 310.891L150.139 251.182C152.608 247.067 153.37 242.151 152.262 237.482C151.155 232.814 148.266 228.763 144.212 226.196C142.032 224.815 139.586 223.909 137.032 223.536C134.478 223.163 131.875 223.332 129.391 224.032C126.907 224.732 124.599 225.948 122.616 227.599C120.632 229.25 119.019 231.3 117.881 233.616L96.6186 278.922L86.8813 257.284Z" fill="#3F3D56"/>
<path d="M81.5272 220.084C81.495 220.084 81.4631 220.079 81.4327 220.069L77.6533 218.767C77.6076 218.752 77.5666 218.725 77.5339 218.69C77.5011 218.654 77.4778 218.611 77.4659 218.564C77.4541 218.517 77.4541 218.468 77.4659 218.422C77.4778 218.375 77.5011 218.332 77.5338 218.296L80.3447 215.236C80.3704 215.208 80.4015 215.185 80.4361 215.168C80.4708 215.152 80.5083 215.143 80.5465 215.141C80.5847 215.139 80.6229 215.145 80.6589 215.158C80.6948 215.171 80.7278 215.191 80.756 215.217C80.7842 215.243 80.807 215.274 80.8231 215.309C80.8392 215.344 80.8483 215.381 80.8499 215.419C80.8514 215.458 80.8454 215.496 80.8322 215.532C80.8189 215.568 80.7987 215.601 80.7727 215.629L78.2621 218.362L81.6217 219.519C81.6868 219.541 81.7417 219.586 81.7769 219.645C81.8121 219.704 81.8252 219.774 81.8139 219.842C81.8025 219.91 81.7675 219.971 81.715 220.016C81.6625 220.06 81.596 220.084 81.5272 220.084Z" fill="#F8F8F8"/>
<path d="M86.7077 219.024C86.6498 219.024 86.5932 219.007 86.5452 218.974C86.4972 218.942 86.46 218.896 86.4383 218.842C86.4165 218.789 86.4114 218.73 86.4234 218.673C86.4354 218.616 86.464 218.565 86.5056 218.524L89.0602 216.054L85.6285 214.64C85.5932 214.626 85.5611 214.604 85.534 214.578C85.5069 214.551 85.4854 214.519 85.4706 214.483C85.4559 214.448 85.4483 214.41 85.4482 214.372C85.4482 214.334 85.4556 214.296 85.4702 214.261C85.4847 214.226 85.5061 214.193 85.5331 214.166C85.56 214.139 85.5921 214.118 85.6274 214.103C85.6626 214.089 85.7005 214.081 85.7387 214.081C85.7768 214.081 85.8147 214.089 85.8499 214.103L89.6921 215.687C89.7367 215.705 89.7761 215.734 89.8066 215.771C89.8371 215.809 89.8578 215.853 89.8669 215.901C89.876 215.948 89.8731 215.997 89.8585 216.043C89.844 216.089 89.8182 216.13 89.7835 216.164L86.9098 218.942C86.8556 218.995 86.7831 219.024 86.7077 219.024Z" fill="#F8F8F8"/>
<path d="M82.3206 221.862C82.2916 221.863 82.2628 221.858 82.2351 221.849C82.1986 221.838 82.1647 221.82 82.1352 221.796C82.1058 221.771 82.0814 221.741 82.0636 221.708C82.0457 221.674 82.0347 221.637 82.0311 221.599C82.0275 221.561 82.0314 221.523 82.0427 221.486L84.7253 212.766C84.7482 212.693 84.7993 212.632 84.8674 212.596C84.9355 212.56 85.0151 212.552 85.0886 212.575C85.1621 212.598 85.2237 212.649 85.2598 212.717C85.2958 212.785 85.3035 212.864 85.2811 212.938L82.5984 221.658C82.5801 221.717 82.5432 221.769 82.4932 221.806C82.4432 221.843 82.3827 221.862 82.3206 221.862Z" fill="#F8F8F8"/>
</g>
<defs>
<clipPath id="clip0_1827_15229">
<rect width="336" height="336" fill="white" transform="translate(-1 0.0908203)"/>
</clipPath>
</defs>
</svg>
