<svg width="167" height="50" viewBox="0 0 167 50" fill="none" xmlns="http://www.w3.org/2000/svg">
<path fill-rule="evenodd" clip-rule="evenodd" d="M13.8829 4.46364V2.38972C13.8829 2.09706 13.9543 1.83898 13.6709 1.83898H9.02329C8.68918 1.83898 8.81361 2.44502 8.81361 3.08564V7.46392L0.230421 12.3952C0.0898642 12.4874 0 12.4529 0 12.6579V28.558C1.0968 28.558 1.35718 28.906 2.07379 29.3899L13.9497 22.4446C13.9497 21.1979 13.9704 20.9029 14.5142 20.1609C15.8023 18.4142 19.2194 18.9949 19.3162 21.774C19.3462 22.6036 19.0466 22.3316 19.625 22.9469C20.0628 23.4078 22.7172 26.5048 22.7633 26.6777C23.1734 26.5671 24.344 25.2121 26.2196 26.3481C26.5676 26.5601 27.0422 27.0164 27.1413 27.4404C27.4132 27.3736 33.153 24.1175 33.9963 23.6083L40.8122 19.7346C40.6808 19.1747 40.5956 19.0433 40.6647 18.4119C40.6921 17.988 40.8391 17.5805 41.0887 17.2367C41.8007 16.232 42.5542 16.0546 43.7293 16.0546V12.5174C43.4666 12.4575 43.0542 12.1602 42.7823 12.0081C42.4528 11.8307 42.1648 11.6532 41.8606 11.4712L23.5513 0.921842C21.2586 -0.366295 22.4822 -0.324817 19.5028 1.28593C18.9314 1.58089 14.2562 4.37838 13.8829 4.46364ZM18.1848 6.96387H21.0328V9.81206H18.1848V6.96387ZM22.6273 6.96387H25.4754V9.81206H22.6273V6.96387ZM18.1848 11.4067H21.0328V14.2549H18.1848V11.4067ZM22.6273 11.4067H25.4754V14.2549H22.6273V11.4067Z" fill="#8BC750"/>
<path fill-rule="evenodd" clip-rule="evenodd" d="M16.8662 24.7353V47.4355C16.8662 47.6936 18.7234 48.6361 18.94 48.7675C19.205 48.9242 20.8986 49.9404 21.1728 50.0003V28.4177C21.1728 26.3783 21.364 27.36 20.1635 25.816C19.9861 25.5856 18.6934 24.0555 18.4653 23.9011C17.8662 24.2214 18.0483 24.2975 17.2395 24.4841C17.0068 24.5348 16.8662 24.498 16.8662 24.7353Z" fill="#00A068"/>
<path fill-rule="evenodd" clip-rule="evenodd" d="M11.1738 25.7054V44.3108L15.2868 46.6681C15.3974 46.7073 15.4804 46.7995 15.4804 46.5322V24.4587C15.4804 24.2675 15.25 24.1845 15.091 24.0854C14.932 23.9863 14.803 23.855 14.6463 23.7605C14.2983 23.8435 11.4918 25.6247 11.1738 25.7054Z" fill="#00A068"/>
<path fill-rule="evenodd" clip-rule="evenodd" d="M28.3877 28.4175V46.6012C28.6942 46.5321 29.6896 45.926 30.0145 45.7278L32.6943 44.1678V26.0532C32.321 26.1385 28.7518 28.3299 28.3877 28.4175Z" fill="#00A068"/>
<path fill-rule="evenodd" clip-rule="evenodd" d="M34.1484 25.1498V43.3358L36.3029 42.0938C36.6716 41.8818 36.9803 41.6998 37.3628 41.4878C37.7453 41.2757 38.1163 41.0638 38.455 40.8425V22.7925C38.167 22.857 37.6716 23.2165 37.3628 23.3732C36.8328 23.6405 34.4411 25.0853 34.1484 25.1498Z" fill="#00A068"/>
<path fill-rule="evenodd" clip-rule="evenodd" d="M24.9196 31.3394C24.1109 31.3394 23.6316 31.2011 23.0302 30.7287C22.903 30.5996 22.7683 30.4781 22.627 30.3646V49.9517C22.9403 49.8779 24.8436 48.7419 25.3021 48.4631L26.9289 47.5183V30.2886C26.5487 30.5421 26.0372 31.3394 24.9196 31.3394Z" fill="#00A068"/>
<path fill-rule="evenodd" clip-rule="evenodd" d="M39.9092 21.8915V40.0107C40.4944 39.6973 43.4185 37.9368 43.7296 37.8538C43.7296 32.6252 43.7964 27.0233 43.7296 21.8155C43.718 20.8937 43.3839 22.0459 41.7088 20.9214L39.9092 21.8915Z" fill="#00A068"/>
<path fill-rule="evenodd" clip-rule="evenodd" d="M5.41309 29.0351V40.974L8.5929 42.7945C8.77954 42.9097 8.92701 42.9788 9.12287 43.0963C9.31022 43.2196 9.51031 43.3224 9.71966 43.4028V26.6086L5.41309 29.0351Z" fill="#00A068"/>
<path fill-rule="evenodd" clip-rule="evenodd" d="M2.70745 30.6344C2.75184 30.8396 2.775 31.0489 2.77657 31.2588C2.7786 31.6209 2.70765 31.9796 2.56796 32.3135C2.42826 32.6475 2.22269 32.9499 1.96351 33.2026C1.70434 33.4553 1.39689 33.6532 1.05953 33.7845C0.72217 33.9157 0.361817 33.9776 0 33.9665L0 37.7157C0 37.9461 0.230421 37.9691 0.412454 38.0659L0.898642 38.3424L3.95863 40.073V29.9338C3.53466 30.162 3.14064 30.4178 2.70745 30.6344Z" fill="#00A068"/>
<path fill-rule="evenodd" clip-rule="evenodd" d="M156.519 19.3198V30.6342C156.519 30.7955 156.569 30.8462 156.726 30.8462H161.38C162.804 30.8462 164.5 30.0673 165.249 29.3714C166.95 27.7906 167 26.5324 167 24.5484V24.2511C166.987 23.4983 166.796 22.7593 166.443 22.0943C166.143 21.5022 165.724 20.9782 165.212 20.5549C164.41 19.8383 162.678 19.1101 161.168 19.1101H156.726C156.569 19.1101 156.519 19.1631 156.519 19.3198ZM160.477 28.9013H158.53V21.1264C160.636 21.1264 162.463 20.8292 163.963 22.1496C165.464 23.47 165.477 26.7951 163.694 28.028C162.784 28.6594 161.986 28.9013 160.477 28.9013Z" fill="#00A068"/>
<path fill-rule="evenodd" clip-rule="evenodd" d="M95.0928 27.3045L90.4683 20.6818C90.2632 20.3983 89.9959 19.9052 89.7471 19.737V30.8463H91.6895V25.7053C91.7563 25.7859 91.6757 25.6799 91.7886 25.8205L95.0928 30.6343C95.2564 30.4712 95.396 30.2858 95.5076 30.0835L98.4916 25.7767V30.8463H100.505V19.6655C100.369 19.789 100.256 19.9367 100.174 20.1011L95.0928 27.3045Z" fill="#00A068"/>
<path fill-rule="evenodd" clip-rule="evenodd" d="M123.204 24.9424C123.204 28.2353 125.739 30.8462 129.17 30.8462C134.239 30.8462 136.91 24.523 133.214 20.8291C129.518 17.1352 123.204 19.8175 123.204 24.9424ZM125.218 25.2212V24.735C125.218 22.8731 127.02 21.1264 128.905 21.1264H129.324C131.112 21.1264 132.935 22.8777 132.935 24.6636C132.935 26.1383 132.767 26.7237 131.702 27.8044C130.994 28.493 130.044 28.8755 129.057 28.869C128.069 28.8625 127.124 28.4677 126.425 27.7698C125.748 27.1039 125.218 26.2697 125.218 25.2212Z" fill="#00A068"/>
<path fill-rule="evenodd" clip-rule="evenodd" d="M136.946 30.8462H138.817V20.9859C140.029 20.9859 141.64 20.8937 142.64 21.3984C143.792 21.9837 144.297 24.0138 142.474 25.0531C141.801 25.4379 140.504 25.2835 139.515 25.2835C139.587 25.5969 142.165 28.8898 142.58 29.4314C142.898 29.86 143.368 30.3531 143.61 30.8301H145.967L143.124 26.5232C143.73 26.4702 144.493 25.8619 144.877 25.431C145.649 24.5692 145.691 23.6658 145.691 22.6358C145.691 21.3937 144.917 20.525 144.186 19.9789C143.377 19.3728 142.283 19.094 140.905 19.094H136.946V30.8462Z" fill="#00A068"/>
<path fill-rule="evenodd" clip-rule="evenodd" d="M52.6094 30.8462H60.5266C60.6833 30.8462 60.7317 30.7955 60.7317 30.6342V28.9013H54.6256V25.984H58.9321C59.0865 25.984 59.1372 25.9379 59.1372 25.7766V23.9654H54.6256V21.1264H60.5266C60.8884 21.1264 60.7317 20.3383 60.7317 19.3198C60.7317 19.1631 60.6833 19.1101 60.5266 19.1101H52.6094V30.8462Z" fill="#00A068"/>
<path fill-rule="evenodd" clip-rule="evenodd" d="M62.748 22.3731C62.748 23.4631 62.8886 23.9424 63.702 24.7512C64.6767 25.7306 65.4739 25.7606 66.7412 25.9426C67.55 26.0624 68.2344 25.8504 69.1284 26.4035C69.845 26.8436 69.9856 28.0557 68.8819 28.5811C67.9233 29.042 65.8864 28.9129 64.8541 28.3921C64.6271 28.2584 64.386 28.1502 64.1352 28.0695L63.1812 29.1964C63.0107 29.3669 62.9508 29.3577 62.884 29.595C63.096 29.6503 65.762 31.5906 69.0731 30.5813C72.5755 29.5097 72.9764 24.6522 67.868 23.9908C67.4072 23.9309 66.9233 24.0115 66.4624 23.9355C64.1582 23.5714 64.5292 21.8961 65.4739 21.4261C66.1398 21.0988 66.7804 21.1288 67.5339 21.1288C68.4643 21.1567 69.3725 21.4191 70.1745 21.8915L71.557 20.4306C71.2345 20.2647 71.0432 20.1034 70.6791 19.9259C68.7367 18.9558 65.9901 18.7253 64.1813 19.9259C63.5246 20.373 62.748 21.3039 62.748 22.3731Z" fill="#00A068"/>
<path fill-rule="evenodd" clip-rule="evenodd" d="M102.378 30.8463H104.74C104.787 30.6007 104.88 30.3662 105.014 30.155C105.104 29.9568 105.18 29.5351 105.431 29.5351H110.708C110.957 29.5351 111.339 30.5882 111.399 30.8532H113.758L112.376 27.9336C112.134 27.4543 111.915 27.0119 111.659 26.5003L108.433 19.9306C108.36 19.7693 108.339 19.6633 108.277 19.5319C108.182 19.3314 108.226 19.3199 107.996 19.26L105.542 24.3043C105.401 24.5854 105.33 24.7651 105.194 25.0647C104.744 26.0394 104.233 26.9888 103.758 27.9336L102.378 30.8463ZM108.138 23.4171L110.016 27.6525H106.129L107.588 24.4609C107.664 24.2835 107.749 24.1522 107.837 23.9448C107.943 23.6752 107.943 23.5599 108.138 23.4171Z" fill="#00A068"/>
<path fill-rule="evenodd" clip-rule="evenodd" d="M73.8496 20.919C73.8496 21.0757 73.9003 21.1264 74.0616 21.1264H77.5294V30.8462H79.3359C79.4926 30.8462 79.5433 30.7955 79.5433 30.6342V21.1264H82.9512C83.1079 21.1264 83.1586 21.0757 83.1586 20.919V19.1101H73.8496V20.919Z" fill="#00A068"/>
<path fill-rule="evenodd" clip-rule="evenodd" d="M112.858 21.1264H116.469V30.8462H118.483V21.1264H122.094V19.1101H112.858V21.1264Z" fill="#00A068"/>
<path fill-rule="evenodd" clip-rule="evenodd" d="M85.4443 30.8462H87.2485C87.4098 30.8462 87.4536 30.7955 87.4536 30.6342V19.3198C87.4536 19.1631 87.4098 19.1101 87.2485 19.1101H85.4443V30.8462Z" fill="#00A068"/>
<path d="M154.228 19.1101H152.283V30.8439H154.228V19.1101Z" fill="#00A068"/>
<path fill-rule="evenodd" clip-rule="evenodd" d="M147.497 29.3162C147.497 30.9039 148.986 31.1827 149.769 30.4684C151.046 29.3162 149.223 27.2745 147.926 28.4889C147.691 28.7068 147.54 28.9992 147.497 29.3162Z" fill="#00A068"/>
</svg>
