<svg width="168" height="50" viewBox="0 0 168 50" fill="none" xmlns="http://www.w3.org/2000/svg">
<path fill-rule="evenodd" clip-rule="evenodd" d="M13.961 4.45319V2.37879C13.961 2.08607 14.0328 1.82792 13.7478 1.82792H9.07407C8.73808 1.82792 8.86321 2.43411 8.86321 3.07487V7.45416L0.231718 12.3866C0.09037 12.4788 0 12.4442 0 12.6494V28.5531C1.10298 28.5531 1.36482 28.9012 2.08546 29.3852L14.0282 22.4383C14.0282 21.1913 14.0491 20.8963 14.5959 20.1541C15.8912 18.407 19.3276 18.9878 19.4249 21.7675C19.455 22.5973 19.1538 22.3253 19.7354 22.9407C20.1757 23.4017 22.8451 26.4995 22.8914 26.6723C23.3039 26.5617 24.481 25.2064 26.3672 26.3427C26.7171 26.5548 27.1944 27.0112 27.2941 27.4353C27.5675 27.3684 33.3396 24.1116 34.1877 23.6022L41.0419 19.7277C40.9098 19.1676 40.8241 19.0362 40.8936 18.4047C40.9211 17.9806 41.0689 17.5731 41.3199 17.2292C42.0359 16.2243 42.7937 16.0468 43.9754 16.0468V12.5088C43.7113 12.4489 43.2965 12.1515 43.0231 11.9994C42.6917 11.8219 42.4021 11.6445 42.0962 11.4624L23.6839 0.910577C21.3783 -0.377857 22.6087 -0.336369 19.6126 1.27475C19.0379 1.56978 14.3364 4.36791 13.961 4.45319ZM18.2872 6.954H21.1512V9.80284H18.2872V6.954ZM22.7547 6.954H25.6187V9.80284H22.7547V6.954ZM18.2872 11.3978H21.1512V14.2467H18.2872V11.3978ZM22.7547 11.3978H25.6187V14.2467H22.7547V11.3978Z" fill="white"/>
<path fill-rule="evenodd" clip-rule="evenodd" d="M16.9629 24.7291V47.4346C16.9629 47.6928 18.8305 48.6355 19.0484 48.7669C19.3148 48.9236 21.018 49.94 21.2937 50V28.4124C21.2937 26.3725 21.486 27.3544 20.2788 25.8101C20.1004 25.5796 18.8004 24.0492 18.571 23.8948C17.9685 24.2152 18.1516 24.2912 17.3383 24.4779C17.1042 24.5286 16.9629 24.4917 16.9629 24.7291Z" fill="white"/>
<path fill-rule="evenodd" clip-rule="evenodd" d="M11.2354 25.6997V44.3094L15.3715 46.6673C15.4827 46.7065 15.5662 46.7987 15.5662 46.5313V24.4528C15.5662 24.2615 15.3344 24.1785 15.1746 24.0794C15.0147 23.9803 14.8849 23.8489 14.7273 23.7544C14.3774 23.8374 11.5551 25.6191 11.2354 25.6997Z" fill="white"/>
<path fill-rule="evenodd" clip-rule="evenodd" d="M28.5479 28.4124V46.6003C28.856 46.5312 29.8571 45.925 30.1838 45.7268L32.8787 44.1664V26.0476C32.5033 26.1329 28.914 28.3248 28.5479 28.4124Z" fill="white"/>
<path fill-rule="evenodd" clip-rule="evenodd" d="M34.3408 25.1443V43.3345L36.5074 42.0921C36.8781 41.8801 37.1886 41.698 37.5733 41.486C37.9579 41.2739 38.331 41.0619 38.6716 40.8406V22.7864C38.382 22.8509 37.8838 23.2105 37.5733 23.3672C37.0403 23.6346 34.6351 25.0797 34.3408 25.1443Z" fill="white"/>
<path fill-rule="evenodd" clip-rule="evenodd" d="M25.0595 31.3352C24.2462 31.3352 23.7642 31.1969 23.1594 30.7244C23.0315 30.5953 22.8961 30.4737 22.7539 30.3602V49.9518C23.069 49.8781 24.983 48.7417 25.4442 48.4629L27.0801 47.5178V30.2842C26.6978 30.5377 26.1833 31.3352 25.0595 31.3352Z" fill="white"/>
<path fill-rule="evenodd" clip-rule="evenodd" d="M40.1338 21.8852V40.0085C40.7224 39.695 43.6629 37.9341 43.9757 37.8511C43.9757 32.6213 44.0429 27.0181 43.9757 21.8091C43.9641 20.8871 43.6281 22.0396 41.9435 20.9148L40.1338 21.8852Z" fill="white"/>
<path fill-rule="evenodd" clip-rule="evenodd" d="M5.44336 29.0303V40.972L8.64107 42.7928C8.82876 42.9081 8.97706 42.9772 9.17402 43.0948C9.36243 43.2181 9.56364 43.3209 9.77417 43.4013V26.6033L5.44336 29.0303Z" fill="white"/>
<path fill-rule="evenodd" clip-rule="evenodd" d="M2.72269 30.6299C2.76732 30.8352 2.79062 31.0445 2.7922 31.2545C2.79424 31.6166 2.72289 31.9754 2.58241 32.3094C2.44193 32.6435 2.23519 32.9459 1.97457 33.1987C1.71394 33.4515 1.40476 33.6495 1.0655 33.7807C0.726234 33.912 0.363853 33.9739 0 33.9628L0 37.7128C0 37.9433 0.231718 37.9663 0.414775 38.0632L0.9037 38.3397L3.98091 40.0707V29.9292C3.55455 30.1574 3.15832 30.4132 2.72269 30.6299Z" fill="white"/>
<path fill-rule="evenodd" clip-rule="evenodd" d="M157.398 19.3128V30.6298C157.398 30.7911 157.449 30.8418 157.607 30.8418H162.288C163.72 30.8418 165.425 30.0628 166.178 29.3667C167.888 27.7855 167.939 26.5271 167.939 24.5426V24.2452C167.926 23.4922 167.734 22.753 167.379 22.0879C167.077 21.4956 166.655 20.9716 166.141 20.5482C165.335 19.8314 163.592 19.103 162.075 19.103H157.607C157.449 19.103 157.398 19.156 157.398 19.3128ZM161.379 28.8965H159.421V21.1198C161.539 21.1198 163.377 20.8225 164.885 22.1432C166.394 23.4639 166.408 26.7898 164.614 28.023C163.699 28.6545 162.897 28.8965 161.379 28.8965V28.8965Z" fill="white"/>
<path fill-rule="evenodd" clip-rule="evenodd" d="M95.6268 27.2994L90.9763 20.6751C90.77 20.3916 90.5012 19.8984 90.251 19.7301V30.842H92.2044V25.6998C92.2716 25.7805 92.1905 25.6745 92.304 25.8151L95.6268 30.63C95.7913 30.4668 95.9317 30.2814 96.0439 30.0791L99.0447 25.7713V30.842H101.07V19.6587C100.933 19.7822 100.82 19.9299 100.736 20.0943L95.6268 27.2994Z" fill="white"/>
<path fill-rule="evenodd" clip-rule="evenodd" d="M123.897 24.9366C123.897 28.2303 126.446 30.8418 129.897 30.8418C134.994 30.8418 137.68 24.5172 133.963 20.8224C130.247 17.1277 123.897 19.8106 123.897 24.9366ZM125.923 25.2155V24.7292C125.923 22.8669 127.735 21.1197 129.63 21.1197H130.052C131.85 21.1197 133.683 22.8715 133.683 24.6578C133.683 26.1329 133.514 26.7183 132.443 27.7993C131.732 28.4881 130.776 28.8706 129.783 28.8642C128.79 28.8577 127.839 28.4628 127.137 27.7647C126.456 27.0986 125.923 26.2643 125.923 25.2155V25.2155Z" fill="white"/>
<path fill-rule="evenodd" clip-rule="evenodd" d="M137.717 30.8419H139.598V20.9792C140.817 20.9792 142.437 20.887 143.443 21.3918C144.601 21.9772 145.109 24.0079 143.276 25.0474C142.599 25.4323 141.295 25.2778 140.3 25.2778C140.372 25.5913 142.965 28.885 143.382 29.4267C143.702 29.8554 144.175 30.3486 144.418 30.8257H146.789L143.929 26.5179C144.539 26.4649 145.306 25.8564 145.693 25.4254C146.469 24.5633 146.51 23.6598 146.51 22.6295C146.51 21.3872 145.732 20.5182 144.997 19.972C144.184 19.3658 143.083 19.0869 141.698 19.0869H137.717V30.8419Z" fill="white"/>
<path fill-rule="evenodd" clip-rule="evenodd" d="M52.9053 30.8418H60.8671C61.0247 30.8418 61.0733 30.7911 61.0733 30.6298V28.8965H54.9328V25.9785H59.2636C59.4189 25.9785 59.4698 25.9324 59.4698 25.7711V23.9594H54.9328V21.1198H60.8671C61.2309 21.1198 61.0733 20.3315 61.0733 19.3128C61.0733 19.156 61.0247 19.103 60.8671 19.103H52.9053V30.8418Z" fill="white"/>
<path fill-rule="evenodd" clip-rule="evenodd" d="M63.1016 22.3668C63.1016 23.457 63.2429 23.9364 64.0609 24.7455C65.041 25.725 65.8428 25.755 67.1172 25.9371C67.9306 26.0569 68.6188 25.8449 69.5178 26.3981C70.2385 26.8383 70.3798 28.0507 69.2699 28.5762C68.306 29.0372 66.2576 28.9081 65.2195 28.3872C64.9912 28.2534 64.7487 28.1452 64.4965 28.0645L63.5372 29.1916C63.3657 29.3622 63.3055 29.3529 63.2383 29.5903C63.4515 29.6457 66.1324 31.5864 69.4622 30.5768C72.9843 29.5051 73.3875 24.6464 68.2503 23.9848C67.7869 23.9249 67.3003 24.0056 66.8369 23.9295C64.5197 23.5654 64.8927 21.8897 65.8428 21.4195C66.5125 21.0922 67.1566 21.1222 67.9143 21.1222C68.85 21.1501 69.7633 21.4125 70.5698 21.8851L71.9601 20.4238C71.6357 20.2578 71.4434 20.0965 71.0773 19.919C69.1239 18.9487 66.3618 18.7182 64.5428 19.919C63.8825 20.3662 63.1016 21.2973 63.1016 22.3668Z" fill="white"/>
<path fill-rule="evenodd" clip-rule="evenodd" d="M102.955 30.8419H105.33C105.378 30.5963 105.471 30.3617 105.606 30.1505C105.696 29.9522 105.773 29.5304 106.025 29.5304H111.332C111.582 29.5304 111.967 30.5838 112.027 30.8488H114.4L113.009 27.9285C112.766 27.4491 112.546 27.0066 112.289 26.4949L109.045 19.9237C108.97 19.7623 108.95 19.6563 108.887 19.5249C108.792 19.3244 108.836 19.3129 108.604 19.2529L106.137 24.2983C105.995 24.5795 105.923 24.7593 105.787 25.0589C105.335 26.0339 104.82 26.9835 104.343 27.9285L102.955 30.8419ZM108.748 23.411L110.637 27.6473H106.727L108.194 24.4551C108.271 24.2776 108.356 24.1462 108.444 23.9388C108.551 23.6691 108.551 23.5539 108.748 23.411Z" fill="white"/>
<path fill-rule="evenodd" clip-rule="evenodd" d="M74.2646 20.9124C74.2646 21.0691 74.3156 21.1198 74.4778 21.1198H77.9652V30.8418H79.7818C79.9394 30.8418 79.9904 30.7911 79.9904 30.6298V21.1198H83.4175C83.5751 21.1198 83.626 21.0691 83.626 20.9124V19.103H74.2646V20.9124Z" fill="white"/>
<path fill-rule="evenodd" clip-rule="evenodd" d="M113.493 21.1198H117.124V30.8418H119.149V21.1198H122.78V19.103H113.493V21.1198Z" fill="white"/>
<path fill-rule="evenodd" clip-rule="evenodd" d="M85.9258 30.8418H87.7401C87.9023 30.8418 87.9464 30.7911 87.9464 30.6298V19.3128C87.9464 19.156 87.9023 19.103 87.7401 19.103H85.9258V30.8418Z" fill="white"/>
<path d="M155.096 19.103H153.141V30.8395H155.096V19.103Z" fill="white"/>
<path fill-rule="evenodd" clip-rule="evenodd" d="M148.328 29.3116C148.328 30.8997 149.825 31.1786 150.613 30.464C151.897 29.3116 150.064 27.2695 148.759 28.4841C148.524 28.702 148.371 28.9945 148.328 29.3116V29.3116Z" fill="white"/>
</svg>
