<svg width="20" height="20" viewBox="0 0 20 20" fill="none" xmlns="http://www.w3.org/2000/svg">
<rect width="20" height="20" rx="10" fill="white"/>
<path d="M16.9333 10.1993C16.9333 9.69112 16.8874 9.20248 16.802 8.7334H10V11.5056H13.8869C13.7194 12.4014 13.2106 13.1604 12.4457 13.6686V15.4667H14.7798C16.1455 14.2191 16.9333 12.3818 16.9333 10.1993Z" fill="#4285F4"/>
<path d="M9.9678 17.2666C11.9119 17.2666 13.5419 16.618 14.7332 15.5118L12.4061 13.6946C11.7614 14.1291 10.9366 14.3859 9.9678 14.3859C8.09241 14.3859 6.50503 13.1118 5.93881 11.3999H3.5332V13.2764C4.71801 15.6435 7.15307 17.2666 9.9678 17.2666Z" fill="#34A853"/>
<path d="M5.9334 11.4011C5.78809 10.9691 5.70553 10.5077 5.70553 10.0331C5.70553 9.55861 5.78809 9.09717 5.9334 8.66519V6.7998H3.50615C2.99759 7.80309 2.73295 8.91038 2.7334 10.0331C2.7334 11.1949 3.0141 12.2945 3.50615 13.2665L5.9334 11.4011Z" fill="#FBBC05"/>
<path d="M9.97598 5.68046C11.0345 5.68046 11.9848 6.0459 12.732 6.76359L14.7999 4.68622C13.5513 3.5175 11.9193 2.7998 9.97598 2.7998C7.15767 2.7998 4.71951 4.42285 3.5332 6.78993L5.94187 8.66647C6.50881 6.95454 8.0982 5.68046 9.97598 5.68046Z" fill="#EA4335"/>
</svg>
