<svg width="319" height="227" viewBox="0 0 319 227" fill="none" xmlns="http://www.w3.org/2000/svg">
<g clip-path="url(#clip0_1543_3640)">
<path d="M195.189 72.0273H187.51C187.264 72.0281 187.026 71.9365 186.843 71.7704C186.661 71.6044 186.547 71.3758 186.524 71.1297L184.987 55.3232H197.712L196.175 71.1295C196.152 71.3757 196.038 71.6042 195.856 71.7704C195.673 71.9365 195.435 72.0281 195.189 72.0273V72.0273Z" fill="#E6E6E6"/>
<path d="M197.692 57.3114H185.007C184.744 57.3111 184.492 57.2062 184.306 57.0198C184.121 56.8334 184.016 56.5807 184.016 56.3171V53.9308C184.016 53.6672 184.121 53.4145 184.306 53.2281C184.492 53.0417 184.744 52.9368 185.007 52.9365H197.692C197.955 52.9368 198.207 53.0417 198.392 53.2281C198.578 53.4145 198.683 53.6672 198.683 53.9308V56.3171C198.683 56.5807 198.578 56.8334 198.392 57.0198C198.207 57.2062 197.955 57.3111 197.692 57.3114V57.3114Z" fill="#CCCCCC"/>
<path d="M105.347 55.0465H74.9263V45.7812C84.5391 39.0694 93.0562 39.6529 104.261 46.3263L105.347 55.0465Z" fill="#089E14"/>
<path d="M67.882 219.619L61.2221 219.619L60.2263 193.846L67.8831 193.846L67.882 219.619Z" fill="#FFB8B8"/>
<path d="M69.5803 226.096L48.1062 226.095V225.822C48.1062 224.721 48.3224 223.631 48.7424 222.613C49.1625 221.596 49.7781 220.671 50.5543 219.893C51.3304 219.114 52.2518 218.496 53.2659 218.075C54.28 217.653 55.3669 217.436 56.4646 217.437H56.4651L69.5806 217.437L69.5803 226.096Z" fill="#2F2E41"/>
<path d="M105.394 219.619L112.054 219.619L113.049 193.846L105.392 193.846L105.394 219.619Z" fill="#FFB8B8"/>
<path d="M103.695 217.437L116.811 217.437H116.811C117.909 217.436 118.996 217.653 120.01 218.075C121.024 218.496 121.945 219.114 122.721 219.893C123.497 220.671 124.113 221.596 124.533 222.613C124.953 223.631 125.169 224.721 125.169 225.822V226.095L103.695 226.096L103.695 217.437Z" fill="#2F2E41"/>
<path d="M105.569 216.316C105.013 216.314 104.474 216.123 104.041 215.774C103.607 215.426 103.304 214.94 103.182 214.396L86.675 142.16C86.6388 141.976 86.5391 141.811 86.3936 141.694C86.2481 141.577 86.0661 141.516 85.8796 141.52H85.8755C85.6883 141.516 85.506 141.58 85.3608 141.698C85.2156 141.817 85.1169 141.983 85.0823 142.168L69.9238 213.917C69.8056 214.466 69.504 214.958 69.0691 215.311C68.6342 215.665 68.092 215.859 67.5323 215.861H60.3114C59.9782 215.861 59.6485 215.792 59.3426 215.66C59.0367 215.527 58.7611 215.334 58.5325 215.09C58.304 214.847 58.1275 214.56 58.0137 214.245C57.9 213.931 57.8514 213.597 57.8711 213.263L63.2495 122.324L65.4138 121.682L65.4544 121.682L107.966 122.055L117.021 212.894C117.052 213.218 117.019 213.545 116.923 213.857C116.828 214.168 116.671 214.456 116.463 214.706C116.255 214.956 115.999 215.161 115.711 215.311C115.423 215.46 115.108 215.551 114.784 215.577L105.765 216.308C105.699 216.313 105.634 216.316 105.569 216.316Z" fill="#2F2E41"/>
<path d="M88.013 38.4414C95.3817 38.4414 101.355 32.4481 101.355 25.0551C101.355 17.6622 95.3817 11.6689 88.013 11.6689C80.6443 11.6689 74.6708 17.6622 74.6708 25.0551C74.6708 32.4481 80.6443 38.4414 88.013 38.4414Z" fill="#FFB8B8"/>
<path d="M79.8395 132.294C77.4988 132.323 75.1673 131.994 72.9255 131.318C70.9317 130.715 69.0819 129.708 67.4902 128.361C65.8984 127.014 64.5984 125.354 63.67 123.483C63.3758 122.92 63.3106 122.265 63.488 121.655C64.9595 116.616 72.0702 90.4251 67.5333 69.6042C66.8929 66.7118 66.8397 63.7197 67.3768 60.8062C67.9139 57.8927 69.0304 55.1176 70.6596 52.6464C72.2509 50.1946 74.3181 48.0894 76.7379 46.4565C79.1577 44.8236 81.8805 43.6964 84.7439 43.1421L84.744 43.1416C85.4965 42.9941 86.2531 42.8733 86.9925 42.7818C90.1577 42.3909 93.37 42.7067 96.3993 43.7067C99.4287 44.7067 102.2 46.3661 104.516 48.5662C106.9 50.8095 108.761 53.5539 109.964 56.6029C111.168 59.652 111.685 62.9303 111.478 66.2032L107.991 122.342C107.967 122.763 107.834 123.17 107.606 123.524C107.377 123.878 107.061 124.166 106.688 124.36C102.672 126.472 90.6088 132.294 79.8395 132.294Z" fill="#3F3D56"/>
<path d="M103.086 15.2018C101.7 11.7072 99.1609 8.79524 95.8933 6.95195C92.6256 5.10866 88.8266 4.44558 85.1305 5.07338L89.3372 8.484C84.1105 8.66058 78.6087 8.28512 74.8769 11.9608C76.0649 11.9278 77.6221 14.4774 78.8101 14.4443C76.5889 14.4884 74.5748 16.0542 73.5937 18.0541C72.685 20.1086 72.4724 22.4054 72.9885 24.5927C73.4272 26.7778 76.7738 31.8968 77.6746 33.9344C77.5197 28.6095 87.9683 15.9082 93.0706 17.2337C90.4783 18.1987 88.2289 19.9122 86.6059 22.1581C90.0771 20.4006 94.0028 19.7561 97.8512 20.3121C98.7299 20.5143 99.6364 20.5652 100.532 20.4627C101.081 20.3537 101.593 20.1054 102.019 19.7414C102.445 19.3774 102.771 18.9099 102.966 18.3835C103.16 17.8571 103.217 17.2894 103.131 16.7347C103.044 16.18 102.818 15.6568 102.473 15.215L103.086 15.2018Z" fill="#2F2E41"/>
<path d="M78.9205 128.923C78.5835 128.922 78.2502 128.852 77.9416 128.716L52.6269 117.63C52.0892 117.399 51.6528 116.98 51.3979 116.452C51.1431 115.924 51.087 115.321 51.2399 114.754L67.9984 51.2381C68.31 50.0562 68.8534 48.9486 69.5968 47.98C70.3403 47.0115 71.2688 46.2014 72.3281 45.5973C73.3874 44.9932 74.5562 44.6071 75.766 44.4617C76.9758 44.3163 78.2024 44.4145 79.3739 44.7506L86.0749 46.6693L81.3576 126.613C81.3334 127.007 81.2148 127.39 81.0118 127.729C80.8089 128.067 80.5276 128.352 80.1918 128.559C79.8099 128.796 79.3698 128.922 78.9205 128.923V128.923Z" fill="#089E14"/>
<path d="M125.772 114.753L124.659 110.54L123.045 104.414L122.269 101.477L120.655 95.3669L109.014 51.2368C108.703 50.0544 108.16 48.9462 107.417 47.9771C106.674 47.0081 105.745 46.1977 104.686 45.5936C103.626 44.9894 102.457 44.6037 101.247 44.459C100.037 44.3144 98.8101 44.4136 97.6387 44.751L90.9407 46.6695L94.2597 102.899L94.6022 108.769L94.8194 112.47V112.475L95.1669 118.312L95.656 126.613C95.6959 127.236 95.9697 127.821 96.4222 128.25C96.8748 128.678 97.4725 128.919 98.0949 128.924C98.4315 128.922 98.7642 128.851 99.0729 128.717L124.387 117.631C124.925 117.4 125.362 116.981 125.616 116.452C125.871 115.923 125.926 115.32 125.772 114.753V114.753Z" fill="#089E14"/>
<path d="M122.268 101.477L94.6023 108.769L94.2595 102.899L120.655 95.3672L122.268 101.477Z" fill="#CCCCCC"/>
<path d="M124.659 110.541L95.1667 118.313L94.8196 112.476V112.47L123.046 104.415L124.659 110.541Z" fill="#CCCCCC"/>
<path d="M82.4123 104.164L82.0696 109.925L54.9359 101.815L56.527 95.7871L82.4123 104.164Z" fill="#CCCCCC"/>
<path d="M81.8468 113.718L54.1586 104.753L52.5669 110.797L81.51 119.447L81.8468 113.718Z" fill="#CCCCCC"/>
<path d="M54.6414 119.743C55.4669 119.527 56.2351 119.132 56.8919 118.585C57.5487 118.039 58.0782 117.355 58.443 116.581C58.8078 115.808 58.9991 114.963 59.0033 114.107C59.0076 113.251 58.8247 112.405 58.4676 111.627L71.4844 70.628L62.2542 68.6885L50.3201 108.885C49.0583 109.574 48.0919 110.703 47.6042 112.058C47.1165 113.414 47.1413 114.901 47.674 116.24C48.2066 117.578 49.2101 118.674 50.4942 119.32C51.7784 119.965 53.254 120.116 54.6414 119.743V119.743Z" fill="#FFB8B8"/>
<path d="M71.8458 50.472C74.4962 50.7433 75.987 53.7331 75.3281 57.4559L72.1658 75.3208C71.9288 76.6599 70.8303 77.7203 69.9173 77.4913L59.2209 74.8087C58.3978 74.6023 58.0947 73.4291 58.5611 72.2551L64.9824 56.0935C66.3769 52.5836 69.2762 50.209 71.8458 50.472Z" fill="#3F3D56"/>
<path d="M87.9638 3.07452e-10C92.4794 0.00048593 96.8176 1.76427 100.06 4.91786C103.302 8.07145 105.193 12.3672 105.333 16.8956H108.606C108.895 16.8956 109.171 17.0104 109.375 17.2148C109.578 17.4193 109.693 17.6965 109.693 17.9856V22.3457C109.693 22.6348 109.578 22.9121 109.375 23.1165C109.171 23.3209 108.895 23.4358 108.606 23.4358H71.667C71.3789 23.4358 71.1025 23.3209 70.8988 23.1165C70.695 22.9121 70.5806 22.6348 70.5806 22.3457V17.4405C70.5806 15.1502 71.0302 12.8823 71.9038 10.7663C72.7774 8.65033 74.0578 6.72769 75.672 5.10819C77.2862 3.48868 79.2025 2.20401 81.3116 1.32755C83.4206 0.451086 85.681 -1.35986e-05 87.9638 3.07452e-10Z" fill="#089E14"/>
<path d="M90.0409 107.808H82.3621C82.1157 107.808 81.8779 107.717 81.6954 107.551C81.5129 107.385 81.3989 107.156 81.3757 106.91L79.8386 91.1035H92.5644L91.0273 106.91C91.0042 107.156 90.8902 107.385 90.7077 107.551C90.5252 107.717 90.2874 107.808 90.0409 107.808V107.808Z" fill="#E6E6E6"/>
<path d="M92.544 93.0917H79.859C79.5962 93.0914 79.3443 92.9865 79.1585 92.8001C78.9727 92.6137 78.8682 92.361 78.8679 92.0974V89.7111C78.8682 89.4475 78.9727 89.1947 79.1585 89.0084C79.3443 88.822 79.5962 88.7171 79.859 88.7168H92.544C92.8068 88.7171 93.0587 88.822 93.2444 89.0084C93.4302 89.1947 93.5347 89.4475 93.5351 89.7111V92.0974C93.5347 92.361 93.4302 92.6137 93.2444 92.8001C93.0587 92.9865 92.8068 93.0914 92.544 93.0917V93.0917Z" fill="#CCCCCC"/>
<path d="M86.3663 99.33C86.6649 99.3646 86.9603 99.4228 87.2498 99.504L107.7 81.9085L106.505 75.4526L115.98 72.3691L119.203 83.5918C119.464 84.4984 119.424 85.4653 119.09 86.3474C118.756 87.2294 118.146 87.9789 117.351 88.4835L91.4516 104.927C91.47 106.089 91.1354 107.228 90.4924 108.194C89.8494 109.161 88.9284 109.908 87.852 110.336C86.7756 110.764 85.5947 110.853 84.4665 110.592C83.3382 110.33 82.3161 109.73 81.5359 108.872C80.7558 108.013 80.2547 106.937 80.0993 105.785C79.9439 104.634 80.1415 103.463 80.6659 102.427C81.1903 101.391 82.0166 100.54 83.0348 99.9867C84.0531 99.4335 85.2151 99.2044 86.3663 99.33V99.33Z" fill="#FFB8B8"/>
<path d="M107.753 51.9472C110.584 51.1521 113.413 53.3141 114.361 56.9973L118.91 74.6723C119.251 75.9973 118.589 77.4053 117.554 77.5546L105.437 79.3033C104.504 79.4379 103.683 78.4785 103.648 77.2151L103.178 59.8218C103.076 56.0445 105.009 52.7181 107.753 51.9472Z" fill="#3F3D56"/>
<path d="M270.631 164.852C265.052 157.406 260.641 149.148 257.552 140.363C257.373 139.838 257.386 139.266 257.588 138.749C257.79 138.232 258.169 137.804 258.656 137.54L277.748 127.277C278.057 127.11 278.4 127.015 278.75 127.001C279.101 126.987 279.45 127.053 279.772 127.194C280.099 127.337 280.39 127.553 280.621 127.825C280.853 128.098 281.02 128.42 281.109 128.766C283.331 137.231 287.508 145.053 293.302 151.598C293.54 151.864 293.715 152.181 293.813 152.526C293.911 152.87 293.929 153.232 293.866 153.585C293.805 153.932 293.667 154.26 293.461 154.545C293.255 154.83 292.986 155.065 292.676 155.23L273.585 165.493C273.096 165.755 272.531 165.834 271.99 165.716C271.449 165.599 270.968 165.292 270.631 164.852V164.852Z" fill="#CCCCCC"/>
<path d="M271.934 163.87C272.036 163.998 272.181 164.087 272.341 164.12C272.502 164.153 272.67 164.129 272.815 164.052L291.907 153.788C291.999 153.74 292.08 153.67 292.141 153.586C292.203 153.501 292.244 153.403 292.261 153.299C292.281 153.19 292.276 153.078 292.245 152.971C292.214 152.865 292.159 152.767 292.085 152.685C286.12 145.947 281.82 137.895 279.532 129.181C279.506 129.073 279.455 128.973 279.384 128.888C279.312 128.804 279.222 128.737 279.121 128.693C279.025 128.65 278.921 128.63 278.816 128.634C278.711 128.639 278.609 128.667 278.517 128.718L259.426 138.982C259.281 139.06 259.168 139.187 259.107 139.34C259.045 139.492 259.039 139.662 259.089 139.819C262.123 148.447 266.454 156.557 271.934 163.87V163.87Z" fill="white"/>
<path d="M279.001 141.924L268.603 146.529C268.208 146.704 267.759 146.714 267.356 146.557C266.953 146.4 266.629 146.09 266.454 145.693L266.197 145.109C266.023 144.712 266.013 144.262 266.169 143.858C266.325 143.454 266.635 143.128 267.03 142.953L277.428 138.348C277.823 138.173 278.272 138.163 278.675 138.32C279.077 138.476 279.402 138.787 279.577 139.183L279.834 139.768C280.008 140.164 280.018 140.614 279.862 141.019C279.706 141.423 279.396 141.748 279.001 141.924V141.924Z" fill="#CCCCCC"/>
<path d="M282.804 149.009L272.406 153.614C272.01 153.789 271.562 153.799 271.159 153.642C270.756 153.485 270.432 153.175 270.257 152.778L269.999 152.194C269.825 151.797 269.815 151.347 269.971 150.943C270.128 150.539 270.437 150.213 270.832 150.038L281.23 145.433C281.626 145.258 282.074 145.248 282.477 145.405C282.88 145.561 283.205 145.872 283.379 146.268L283.637 146.853C283.811 147.249 283.821 147.699 283.665 148.104C283.509 148.508 283.199 148.833 282.804 149.009V149.009Z" fill="#CCCCCC"/>
<path d="M258.417 143.105C257.699 142.642 257.091 142.027 256.637 141.303C256.182 140.578 255.891 139.763 255.784 138.914C255.677 138.065 255.757 137.202 256.018 136.387C256.28 135.573 256.716 134.825 257.296 134.198L252.911 71.7617L265.543 72.9908L265.89 134.135C266.876 135.183 267.444 136.557 267.487 137.998C267.531 139.438 267.046 140.844 266.125 141.95C265.203 143.056 263.91 143.784 262.489 143.997C261.069 144.21 259.62 143.893 258.417 143.105L258.417 143.105Z" fill="#A0616A"/>
<path d="M255.771 92.7415C255.475 92.5281 255.23 92.2508 255.056 91.93C254.881 91.6092 254.78 91.2531 254.761 90.8881L253.835 74.0601C253.744 72.3929 254.271 70.7506 255.314 69.4501C256.358 68.1495 257.845 67.2828 259.488 67.0169C261.131 66.751 262.814 67.1049 264.212 68.0102C265.611 68.9156 266.625 70.3083 267.061 71.9199L271.127 86.965C271.296 87.5928 271.209 88.2622 270.887 88.8263C270.565 89.3903 270.032 89.8031 269.407 89.974L257.841 93.1201C257.49 93.2164 257.122 93.2324 256.763 93.1669C256.405 93.1014 256.066 92.956 255.771 92.7415V92.7415Z" fill="#3F3D56"/>
<path d="M234.242 219.865H227.582L224.414 194.092H234.243L234.242 219.865Z" fill="#A0616A"/>
<path d="M222.825 217.955H235.669V226.069H214.738C214.738 225.003 214.947 223.948 215.353 222.964C215.76 221.979 216.355 221.085 217.106 220.331C217.857 219.578 218.749 218.98 219.73 218.573C220.711 218.165 221.763 217.955 222.825 217.955V217.955Z" fill="#2F2E41"/>
<path d="M259.23 219.865H252.57L249.402 194.092H259.231L259.23 219.865Z" fill="#A0616A"/>
<path d="M247.813 217.955H260.657V226.069H239.726C239.726 225.003 239.935 223.948 240.342 222.964C240.748 221.979 241.344 221.085 242.095 220.331C242.846 219.578 243.737 218.98 244.718 218.573C245.699 218.165 246.751 217.955 247.813 217.955Z" fill="#2F2E41"/>
<path d="M233.927 206.881L226.595 206.53C225.971 206.501 225.381 206.232 224.948 205.779C224.515 205.327 224.272 204.725 224.267 204.098C222.334 174.166 219.657 142.071 223.756 129.672C223.753 129.319 223.827 128.969 223.972 128.647C224.116 128.325 224.329 128.038 224.594 127.806C224.86 127.574 225.172 127.402 225.51 127.302C225.847 127.202 226.203 127.177 226.551 127.228L255.882 131.499C256.462 131.581 256.992 131.869 257.377 132.312C257.762 132.754 257.974 133.321 257.975 133.908C261.72 148.589 261.889 175.211 261.748 202.872C261.75 203.195 261.689 203.516 261.567 203.816C261.445 204.116 261.266 204.388 261.038 204.618C260.811 204.848 260.541 205.03 260.243 205.154C259.945 205.279 259.626 205.343 259.303 205.343H251.399C250.816 205.345 250.252 205.137 249.808 204.757C249.365 204.377 249.073 203.85 248.984 203.271L244.108 172.169C244.037 171.714 243.804 171.3 243.452 171.004C243.1 170.707 242.654 170.549 242.195 170.557C241.736 170.566 241.295 170.741 240.954 171.05C240.614 171.359 240.396 171.781 240.342 172.238L236.471 204.723C236.398 205.318 236.111 205.866 235.664 206.264C235.217 206.662 234.641 206.882 234.043 206.884C234.005 206.884 233.966 206.883 233.927 206.881Z" fill="#2F2E41"/>
<path d="M239.088 133.911C232.624 130.308 227.573 129.361 225.138 129.117C224.814 129.086 224.501 128.989 224.215 128.832C223.93 128.676 223.68 128.462 223.479 128.206C223.274 127.947 223.124 127.65 223.037 127.331C222.95 127.012 222.928 126.679 222.974 126.352L230.002 74.0025C230.406 70.9399 231.585 68.0322 233.426 65.5559C235.268 63.0796 237.71 61.1173 240.52 59.8555C243.241 58.6007 246.236 58.0652 249.222 58.2999C252.207 58.5347 255.083 59.5319 257.575 61.1967C257.816 61.3575 258.052 61.5216 258.284 61.6891C261.155 63.7992 263.338 66.7146 264.56 70.0679C265.781 73.4211 265.986 77.0622 265.149 80.5321C260.839 98.2207 259.359 127.219 259.106 132.853C259.086 133.333 258.925 133.797 258.642 134.185C258.36 134.574 257.97 134.87 257.52 135.036C254.869 136.003 252.071 136.503 249.249 136.514C245.696 136.535 242.197 135.639 239.088 133.911Z" fill="#3F3D56"/>
<path d="M244.967 52.747C252.335 52.747 258.309 46.7538 258.309 39.3608C258.309 31.9678 252.335 25.9746 244.967 25.9746C237.598 25.9746 231.625 31.9678 231.625 39.3608C231.625 46.7538 237.598 52.747 244.967 52.747Z" fill="#A0616A"/>
<path d="M254.408 49.9515C251.919 52.6116 247.297 51.1836 246.973 47.5495C246.947 47.2673 246.949 46.9834 246.978 46.7016C247.145 45.0918 248.072 43.6304 247.85 41.9307C247.8 41.5077 247.643 41.1046 247.394 40.7595C245.411 38.0947 240.755 41.9514 238.883 39.5391C237.735 38.0599 239.084 35.731 238.203 34.0777C237.041 31.8957 233.597 32.9721 231.438 31.7771C229.035 30.4475 229.179 26.7492 230.761 24.4996C232.689 21.7562 236.071 20.2924 239.411 20.0814C242.75 19.8704 246.067 20.7761 249.185 21.9952C252.727 23.3803 256.24 25.2945 258.42 28.4196C261.071 32.2201 261.326 37.3295 260 41.7735C259.194 44.4768 256.441 47.7792 254.408 49.9515Z" fill="#2F2E41"/>
<path d="M264.974 62.9663C264.741 61.8653 262.736 60.3611 259.868 59.1348C255.258 57.2613 250.272 56.5069 245.316 56.9331C240.36 57.3593 235.574 58.9541 231.349 61.5874C231.054 61.6033 230.772 61.7159 230.548 61.9079C230.323 62.0999 230.167 62.3607 230.105 62.6502L220.457 105.461L219.202 111.037L218.371 114.727L217.116 120.286L216.448 123.256C216.405 123.446 216.403 123.643 216.443 123.834C216.482 124.024 216.561 124.204 216.675 124.362C216.79 124.519 216.936 124.65 217.105 124.746C217.273 124.842 217.461 124.901 217.654 124.918L259.314 128.526C259.352 128.526 259.395 128.532 259.433 128.532C259.777 128.53 260.107 128.397 260.357 128.16C260.607 127.924 260.759 127.601 260.781 127.257L261.177 121.201L261.601 114.727L261.786 111.92L262.204 105.461L264.98 63.0371V62.999L264.974 62.9663Z" fill="#089E14"/>
<path d="M196.618 65.6606C196.684 65.9547 196.728 66.2536 196.748 66.5545L220.083 80.0611L225.755 76.7851L231.802 84.7272L219.668 93.4042L193.045 72.3324C191.96 72.7355 190.777 72.7974 189.655 72.5099C188.534 72.2224 187.526 71.599 186.766 70.7228C186.006 69.8465 185.53 68.7589 185.401 67.6045C185.272 66.4502 185.496 65.2838 186.044 64.2605C186.592 63.2372 187.437 62.4055 188.468 61.876C189.498 61.3465 190.665 61.1443 191.813 61.2963C192.961 61.4482 194.035 61.9472 194.893 62.7268C195.752 63.5065 196.353 64.5297 196.618 65.6606H196.618Z" fill="#A0616A"/>
<path d="M220.917 78.9128C220.878 78.5493 220.921 78.1817 221.042 77.8371C221.164 77.4925 221.361 77.1797 221.619 76.9217L233.496 65.0029C234.673 63.8222 236.243 63.1203 237.905 63.0327C239.567 62.9452 241.203 63.478 242.496 64.5286C243.79 65.5792 244.65 67.073 244.911 68.7222C245.172 70.3713 244.815 72.0589 243.909 73.4596L235.45 86.5357C235.097 87.0808 234.543 87.4629 233.909 87.5983C233.275 87.7337 232.613 87.6113 232.069 87.2579L222.017 80.7131C221.711 80.5147 221.453 80.25 221.263 79.9384C221.073 79.6268 220.954 79.2764 220.917 78.9128Z" fill="#3F3D56"/>
<path d="M262.204 105.461L261.785 111.919L219.202 111.036L220.457 105.461H262.204Z" fill="#CCCCCC"/>
<path d="M261.601 114.727L261.177 121.201L217.116 120.286L218.371 114.727H261.601Z" fill="#CCCCCC"/>
<path d="M245.228 13.3525C240.712 13.353 236.374 15.1168 233.132 18.2704C229.89 21.424 227.999 25.7198 227.859 30.2481H224.585C224.297 30.2481 224.021 30.363 223.817 30.5674C223.613 30.7718 223.499 31.049 223.499 31.3381V35.6983C223.499 35.9874 223.613 36.2646 223.817 36.469C224.021 36.6735 224.297 36.7883 224.585 36.7883H261.525C261.813 36.7883 262.089 36.6735 262.293 36.469C262.497 36.2646 262.611 35.9874 262.611 35.6983V30.7931C262.611 28.5028 262.162 26.2348 261.288 24.1189C260.414 22.0029 259.134 20.0802 257.52 18.4607C255.906 16.8412 253.989 15.5566 251.88 14.6801C249.771 13.8036 247.511 13.3525 245.228 13.3525V13.3525Z" fill="#089E14"/>
<path d="M318.457 227H-68.3209C-68.465 227 -68.6031 226.943 -68.705 226.841C-68.8069 226.738 -68.8641 226.6 -68.8641 226.455C-68.8641 226.311 -68.8069 226.172 -68.705 226.07C-68.6031 225.968 -68.465 225.91 -68.3209 225.91H318.457C318.601 225.91 318.739 225.968 318.841 226.07C318.943 226.172 319 226.311 319 226.455C319 226.6 318.943 226.738 318.841 226.841C318.739 226.943 318.601 227 318.457 227Z" fill="#CCCCCC"/>
</g>
<defs>
<clipPath id="clip0_1543_3640">
<rect width="404" height="227" fill="white" transform="translate(-85)"/>
</clipPath>
</defs>
</svg>
