<svg width="20" height="20" viewBox="0 0 20 20" fill="none" xmlns="http://www.w3.org/2000/svg">
<path d="M8.14374 4.62759C8.93034 2.6666 9.32364 1.6861 9.99997 1.6861C10.6763 1.6861 11.0696 2.6666 11.8562 4.6276L11.8928 4.71891C12.3372 5.82678 12.5594 6.38071 13.0123 6.7174C13.4651 7.05409 14.0596 7.10733 15.2485 7.2138L15.4634 7.23305C17.4092 7.40732 18.3822 7.49445 18.5903 8.11343C18.7985 8.73242 18.076 9.38976 16.6309 10.7044L16.1487 11.1432C15.4172 11.8087 15.0514 12.1415 14.8809 12.5776C14.8491 12.659 14.8227 12.7423 14.8018 12.8271C14.6897 13.2818 14.7968 13.7645 15.0111 14.73L15.0777 15.0305C15.4714 16.8049 15.6682 17.692 15.3246 18.0747C15.1961 18.2177 15.0292 18.3206 14.8438 18.3712C14.3476 18.5066 13.6431 17.9326 12.2342 16.7845C11.309 16.0306 10.8464 15.6537 10.3153 15.5689C10.1064 15.5355 9.89353 15.5355 9.68463 15.5689C9.15352 15.6537 8.69094 16.0306 7.76577 16.7845C6.35681 17.9326 5.65234 18.5066 5.15614 18.3712C4.97072 18.3206 4.80381 18.2177 4.67538 18.0747C4.33171 17.692 4.52854 16.8049 4.92222 15.0305L4.98889 14.73C5.2031 13.7645 5.31021 13.2818 5.19815 12.8271C5.17725 12.7423 5.15081 12.659 5.11901 12.5776C4.94854 12.1415 4.58279 11.8087 3.85128 11.1432L3.369 10.7044C1.92395 9.38976 1.20143 8.73242 1.40961 8.11343C1.61779 7.49445 2.5907 7.40732 4.53651 7.23305L4.75145 7.2138C5.94036 7.10733 6.53482 7.05409 6.98767 6.7174C7.44052 6.38071 7.66272 5.82678 8.10711 4.71891L8.14374 4.62759Z" fill="#FFC700" stroke="#FFC700" stroke-width="1.4"/>
</svg>
