<svg width="20" height="18" viewBox="0 0 20 18" fill="none" xmlns="http://www.w3.org/2000/svg">
<path d="M8.14374 3.62759C8.93034 1.6666 9.32364 0.686096 9.99997 0.686096C10.6763 0.686096 11.0696 1.6666 11.8562 3.6276L11.8928 3.71891C12.3372 4.82678 12.5594 5.38071 13.0123 5.7174C13.4651 6.05409 14.0596 6.10733 15.2485 6.2138L15.4634 6.23305C17.4092 6.40732 18.3822 6.49445 18.5903 7.11343C18.7985 7.73242 18.076 8.38976 16.6309 9.70445L16.1487 10.1432C15.4172 10.8087 15.0514 11.1415 14.8809 11.5776C14.8491 11.659 14.8227 11.7423 14.8018 11.8271C14.6897 12.2818 14.7968 12.7645 15.0111 13.73L15.0777 14.0305C15.4714 15.8049 15.6682 16.692 15.3246 17.0747C15.1961 17.2177 15.0292 17.3206 14.8438 17.3712C14.3476 17.5066 13.6431 16.9326 12.2342 15.7845C11.309 15.0306 10.8464 14.6537 10.3153 14.5689C10.1064 14.5355 9.89353 14.5355 9.68463 14.5689C9.15352 14.6537 8.69094 15.0306 7.76577 15.7845C6.35681 16.9326 5.65234 17.5066 5.15614 17.3712C4.97072 17.3206 4.80381 17.2177 4.67538 17.0747C4.33171 16.692 4.52854 15.8049 4.92222 14.0305L4.98889 13.73C5.2031 12.7645 5.31021 12.2818 5.19815 11.8271C5.17725 11.7423 5.15081 11.659 5.11901 11.5776C4.94854 11.1415 4.58279 10.8087 3.85128 10.1432L3.369 9.70445C1.92395 8.38976 1.20143 7.73242 1.40961 7.11343C1.61779 6.49445 2.5907 6.40732 4.53651 6.23305L4.75145 6.2138C5.94036 6.10733 6.53482 6.05409 6.98767 5.7174C7.44052 5.38071 7.66272 4.82678 8.10711 3.71891L8.14374 3.62759Z" fill="#B7B7B7" stroke="#B7B7B7"/>
</svg>
